<?xml version="1.0" encoding="utf-8"?>
<!-- Generator: Adobe Illustrator 21.0.2, SVG Export Plug-In . SVG Version: 6.00 Build 0)  -->
<svg version="1.1" id="Layer_1" xmlns="http://www.w3.org/2000/svg" xmlns:xlink="http://www.w3.org/1999/xlink" x="0px" y="0px"
	 viewBox="0 0 48.6 48.6" enable-background="new 0 0 48.6 48.6" xml:space="preserve">
<path fill="#EF3F54" d="M48.6,23.9c0.2,13.4-10.5,24.5-23.9,24.7C11.3,48.8,0.2,38.1,0,24.7c-0.1-7.5,3.2-14.3,8.5-18.9
	c2.6-2.2,5.7-3.9,9.2-4.9c2-0.6,4.1-0.9,6.2-0.9C37.3-0.2,48.4,10.5,48.6,23.9z"/>
<g>
	<path fill="none" stroke="#FFFFFF" stroke-width="2.6667" stroke-linecap="round" stroke-linejoin="round" d="M33.6,36.3H15
		c-1.5,0-2.7-1.2-2.7-2.7V15c0-1.5,1.2-2.7,2.7-2.7h14.7l6.7,6.7v14.7C36.3,35.1,35.1,36.3,33.6,36.3z"/>
	<polyline fill="none" stroke="#FFFFFF" stroke-width="2.6667" stroke-linecap="round" stroke-linejoin="round" points="31,36.3 
		31,25.6 17.6,25.6 17.6,36.3 	"/>
	<polyline fill="none" stroke="#FFFFFF" stroke-width="2.6667" stroke-linecap="round" stroke-linejoin="round" points="17.6,12.3 
		17.6,19 28.3,19 	"/>
</g>
</svg>
