<?xml version="1.0" encoding="utf-8"?>
<!-- Generator: Adobe Illustrator 21.0.2, SVG Export Plug-In . SVG Version: 6.00 Build 0)  -->
<svg version="1.1" id="Layer_1" xmlns="http://www.w3.org/2000/svg" xmlns:xlink="http://www.w3.org/1999/xlink" x="0px" y="0px"
	 viewBox="0 0 48.6 48.6" enable-background="new 0 0 48.6 48.6" xml:space="preserve">
<path fill="#EF3F54" d="M48.6,23.9c0.2,13.4-10.5,24.5-23.9,24.7C11.3,48.8,0.2,38.1,0,24.7c-0.1-7.5,3.2-14.3,8.5-18.9
	c2.6-2.2,5.7-3.9,9.2-4.9c2-0.6,4.1-0.9,6.2-0.9C37.3-0.2,48.4,10.5,48.6,23.9z"/>
<path fill="#FFFFFF" d="M27.6,28.1c-0.1-1.1-0.1-1.8-0.1-2.8c0.5-0.3,1.3-1.9,1.5-3.2c0.4,0,1-0.4,1.2-1.9c0.1-0.8-0.3-1.2-0.5-1.4
	c0.6-1.9,1.9-7.6-2.4-8.2c-0.4-0.8-1.6-1.2-3-1.2c-5.8,0.1-6.5,4.4-5.3,9.3c-0.2,0.1-0.6,0.6-0.5,1.4c0.2,1.5,0.8,1.8,1.2,1.9
	c0.1,1.4,1,3,1.5,3.2c0,1,0,1.7-0.1,2.8c-1.2,3.1-9,2.2-9.3,8.2h25.1C36.5,30.4,28.7,31.3,27.6,28.1z"/>
</svg>
