<?xml version="1.0" encoding="utf-8"?>
<!-- Generator: Adobe Illustrator 21.0.2, SVG Export Plug-In . SVG Version: 6.00 Build 0)  -->
<svg version="1.1" id="Layer_1" xmlns="http://www.w3.org/2000/svg" xmlns:xlink="http://www.w3.org/1999/xlink" x="0px" y="0px"
	 viewBox="0 0 48.6 48.6" enable-background="new 0 0 48.6 48.6" xml:space="preserve">
<ellipse transform="matrix(0.9998 -1.743894e-02 1.743894e-02 0.9998 -0.4201 0.4275)" fill="#EF3F54" cx="24.3" cy="24.3" rx="24.3" ry="24.3"/>
<g>
	<path fill="#FFFFFF" d="M19.5,20.5c-1.5,0-2.9,0-4.3,0c-0.8,0-1.1-0.4-1.1-1.1c0-0.9,0-1.9,0-2.8c0-0.8,0.4-1.2,1.2-1.2
		c0.1,0,0.2,0,0.4,0c0-0.1,0-0.2,0-0.4c0-1.6,0-3.3,0-4.9C15.7,9.3,16,9,16.7,9c5,0,10.1,0,15.1,0c0.7,0,1.1,0.4,1.1,1.1
		c0,1.6,0,3.3,0,4.9c0,0.1,0,0.2,0,0.4c0.2,0,0.4,0,0.6,0c0.6,0,1,0.4,1,1c0,1.1,0,2.1,0,3.2c0,0.6-0.4,1-1,1c-1.4,0-2.9,0-4.4,0
		c0,0.1,0,0.3,0,0.4c0,5.6,0,11.3,0,16.9c0,0.9-0.3,1.2-1.1,1.3c-1.1,0.2-2.2,0.4-3.3,0.5c-0.5,0.1-1-0.1-1.6-0.1
		c-0.9-0.1-1.7-0.3-2.6-0.4c-0.7-0.1-1.1-0.5-1.1-1.2c0-5.7,0-11.3,0-17C19.5,20.8,19.5,20.7,19.5,20.5z M27.3,15.3c0-1.5,0-3,0-4.4
		c-2,0-4,0-6.1,0c0,1.5,0,3,0,4.4C23.3,15.3,25.3,15.3,27.3,15.3z M32.6,17.3c-5.6,0-11.1,0-16.6,0c0,0.4,0,0.8,0,1.2
		c5.5,0,11.1,0,16.6,0C32.6,18.1,32.6,17.7,32.6,17.3z M17.6,10.9c0,1.5,0,3,0,4.4c0.8,0,1.6,0,2.3,0c0-1.5,0-3,0-4.4
		C19.2,10.9,18.4,10.9,17.6,10.9z M28.7,15.3c0.8,0,1.6,0,2.3,0c0-1.5,0-3,0-4.4c-0.8,0-1.6,0-2.3,0C28.7,12.4,28.7,13.9,28.7,15.3z
		 M27.1,21.8c0-0.4,0-0.9,0-1.3c-1.9,0-3.8,0-5.7,0c0,0.6,0,1.2,0,1.9C23.4,22.2,25.3,22,27.1,21.8z M21.4,37.1c0,0,0,0.1,0,0.1
		c1.9,0.6,3.8,0.6,5.7,0c0-0.2,0-0.4,0-0.7C25.2,36.7,23.3,36.9,21.4,37.1z M27.2,23.1c-1.9,0.2-3.8,0.4-5.7,0.6c0,0.2,0,0.4,0,0.6
		c1.9-0.2,3.8-0.4,5.7-0.6C27.2,23.5,27.2,23.3,27.2,23.1z M27.2,25c-1.9,0.2-3.8,0.4-5.7,0.6c0,0.2,0,0.4,0,0.6
		c1.9-0.2,3.8-0.4,5.7-0.6C27.2,25.4,27.2,25.2,27.2,25z M27.1,30.8c-1.9,0.2-3.8,0.4-5.7,0.6c0,0.2,0,0.4,0,0.6
		c1.9-0.2,3.8-0.4,5.7-0.6C27.1,31.2,27.1,31,27.1,30.8z M27.1,34.6c-1.9,0.2-3.8,0.4-5.7,0.6c0,0.2,0,0.4,0,0.6
		c1.9-0.2,3.8-0.4,5.7-0.6C27.1,35,27.1,34.8,27.1,34.6z M27.2,26.9c-1.9,0.2-3.8,0.4-5.7,0.6c0,0.2,0,0.4,0,0.6
		c1.9-0.2,3.8-0.4,5.7-0.6C27.2,27.3,27.2,27.2,27.2,26.9z M27.2,28.8c-1.9,0.2-3.8,0.4-5.7,0.6c0,0.2,0,0.4,0,0.6
		c1.9-0.2,3.8-0.4,5.7-0.6C27.2,29.2,27.2,29.1,27.2,28.8z M27.2,32.7c-1.9,0.2-3.8,0.4-5.7,0.6c0,0.2,0,0.4,0,0.6
		c1.9-0.2,3.8-0.4,5.7-0.6C27.2,33.1,27.2,32.9,27.2,32.7z"/>
</g>
</svg>
