<svg xmlns="http://www.w3.org/2000/svg" width="199.915" height="199.915" viewBox="0 0 199.915 199.915">
  <g id="Group_10" data-name="Group 10" transform="translate(-394 -1096.891)">
    <circle id="Ellipse_3" data-name="Ellipse 3" cx="99.958" cy="99.958" r="99.958" transform="translate(394 1096.891)" fill="#c80000"/>
    <g id="Group_7" data-name="Group 7" transform="translate(443.207 1134.597)">
      <path id="Path_9" data-name="Path 9" d="M-370.437,495.346V543a2.5,2.5,0,0,0,2.5,2.5h9.79a2.5,2.5,0,0,1,2.494,2.5v2.87a2.5,2.5,0,0,1-2.494,2.5H-389.84a2.5,2.5,0,0,1-2.5-2.5v-2.87a2.5,2.5,0,0,1,2.5-2.5h9.788a2.5,2.5,0,0,0,2.5-2.5V495.346a2.5,2.5,0,0,0-2.5-2.5h-9.788a2.5,2.5,0,0,1-2.5-2.5v-2.87a2.5,2.5,0,0,1,2.5-2.5h31.689a2.494,2.494,0,0,1,2.494,2.5v2.87a2.5,2.5,0,0,1-2.494,2.5h-9.79A2.5,2.5,0,0,0-370.437,495.346Z" transform="translate(428.259 -449.634)" fill="#fff"/>
      <g id="book_text" transform="translate(0 0)">
        <g id="Group_6" data-name="Group 6">
          <path id="Path_10" data-name="Path 10" d="M-312.5,463.667v7.8h-7.807v7.81h7.807v109.3h-93.685s-7.807,0-7.807-7.807V475.448c0-.025,0-.048,0-.071a11.023,11.023,0,0,1,6.07-10.328,13.2,13.2,0,0,1,5.644-1.381H-312.5m-89.8,15.613h74.182v-7.81h-74.167c-.007.023-.124-.008-.58.073a5.933,5.933,0,0,0-1.579.489c-.987.667-1.615.819-1.744,3.344.058,1.952.524,2.378,1.061,2.9a4.963,4.963,0,0,0,2.262.934,3.349,3.349,0,0,0,.565.07m3.918,101.493h78.072V487.088h-78.072v93.685" transform="translate(414 -463.667)" fill="#fff"/>
        </g>
      </g>
    </g>
  </g>
</svg>
