<?xml version="1.0" encoding="utf-8"?>
<!-- Generator: Adobe Illustrator 21.0.2, SVG Export Plug-In . SVG Version: 6.00 Build 0)  -->
<svg version="1.1" id="Layer_1" xmlns="http://www.w3.org/2000/svg" xmlns:xlink="http://www.w3.org/1999/xlink" x="0px" y="0px"
	 viewBox="0 0 48.6 48.6" enable-background="new 0 0 48.6 48.6" xml:space="preserve">
<path fill="#EF3F54" d="M48.6,23.9c0.2,13.4-10.5,24.5-23.9,24.7C11.3,48.8,0.2,38.1,0,24.7c-0.1-7.5,3.2-14.3,8.5-18.9
	c2.6-2.2,5.7-3.9,9.2-4.9c2-0.6,4.1-0.9,6.2-0.9C37.3-0.2,48.4,10.5,48.6,23.9z"/>
<g>
	<rect x="19.1" y="13.6" fill="#FFFFFF" width="5.2" height="14.8"/>
	<path fill="#FFFFFF" d="M37.6,28.4V35H11.1v-6.7h5.5c0.1,0,0.1,0,0.2,0h9.8c0.1,0,0.1,0,0.2,0H37.6z"/>
	<g>
		<path fill="#FFFFFF" d="M25.4,23.3v3.8h3.8C29.2,25,27.5,23.3,25.4,23.3z"/>
		<path fill="#FFFFFF" d="M14,27.2h3.8v-3.8C15.8,23.3,14,25,14,27.2z"/>
	</g>
	<polygon fill="#FFFFFF" points="29.6,22.1 30.9,16.9 30.1,22.3 35.6,19.6 30.6,22.8 36.7,22.3 30.5,23.6 	"/>
</g>
</svg>
