<?xml version="1.0" encoding="utf-8"?>
<!-- Generator: Adobe Illustrator 21.0.2, SVG Export Plug-In . SVG Version: 6.00 Build 0)  -->
<svg version="1.1" id="Layer_1" xmlns="http://www.w3.org/2000/svg" xmlns:xlink="http://www.w3.org/1999/xlink" x="0px" y="0px"
	 viewBox="0 0 36.5 36.5" enable-background="new 0 0 36.5 36.5" xml:space="preserve">
<path fill="#EF3F54" d="M22.8,23.1c-0.1-1.1-0.1-1.8-0.1-2.8c0.5-0.3,1.3-1.9,1.5-3.2c0.4,0,1-0.4,1.2-1.9c0.1-0.8-0.3-1.2-0.5-1.4
	c0.6-1.9,1.9-7.6-2.4-8.2c-0.4-0.8-1.6-1.2-3-1.2C13.7,4.7,13,9,14.2,13.9c-0.2,0.1-0.6,0.6-0.5,1.4c0.2,1.5,0.8,1.8,1.2,1.9
	c0.1,1.4,1,3,1.5,3.2c0,1,0,1.7-0.1,2.8c-1.2,3.1-9,2.2-9.3,8.2h25.1C31.7,25.4,24,26.3,22.8,23.1z"/>
</svg>
