<?xml version="1.0" encoding="utf-8"?>
<!-- Generator: Adobe Illustrator 21.0.2, SVG Export Plug-In . SVG Version: 6.00 Build 0)  -->
<svg version="1.1" id="Layer_1" xmlns="http://www.w3.org/2000/svg" xmlns:xlink="http://www.w3.org/1999/xlink" x="0px" y="0px"
	 viewBox="0 0 48.6 48.6" enable-background="new 0 0 48.6 48.6" xml:space="preserve">
<ellipse transform="matrix(0.9998 -1.743894e-02 1.743894e-02 0.9998 -0.4201 0.4275)" fill="#FFFFFF" cx="24.3" cy="24.3" rx="24.3" ry="24.3"/>
<g>
	<defs>
		
			<ellipse id="SVGID_3_" transform="matrix(0.9998 -1.743894e-02 1.743894e-02 0.9998 -0.4201 0.4275)" cx="24.3" cy="24.3" rx="21.2" ry="21.2"/>
	</defs>
	<clipPath id="SVGID_2_">
		<use xlink:href="#SVGID_3_"  overflow="visible"/>
	</clipPath>
	<g clip-path="url(#SVGID_2_)">
		<path fill="#EF3F54" d="M41.4,32.5c0,2.5-2,4.5-4.5,4.5c-2.4,0-4.4-2-4.4-4.5c0-2.4,2-4.4,4.5-4.4C39.4,28.1,41.4,30.1,41.4,32.5z
			"/>
		<path fill="#EF3F54" d="M22.8,27.3c2.5,0,4.5,2,4.5,4.5c0,2.4-2,4.4-4.4,4.4c-2.5,0-4.5-2-4.5-4.5C18.4,29.3,20.4,27.3,22.8,27.3z
			"/>
		<path fill="#EF3F54" d="M16.9,19.1c0-2.1,1.7-3.7,3.7-3.7c2,0,3.7,1.7,3.7,3.7c0,2-1.7,3.7-3.7,3.7C18.6,22.8,16.9,21.2,16.9,19.1
			z"/>
		<path fill="#EF3F54" d="M2.8,1.3c0.1,0,0.2,0,0.3,0c1.6,0,3.1,0,4.7,0c0.1,0,0.3,0.1,0.4,0.2C8.5,1.7,8.7,2,9,2.2
			C7.1,4.5,6.2,7.1,6.3,10C6.2,10,6.2,9.9,6.1,9.9C5.1,8.8,4,7.8,2.9,6.7C2.9,6.6,2.8,6.5,2.8,6.4c0-1.6,0-3.3,0-4.9
			C2.8,1.4,2.8,1.4,2.8,1.3z"/>
		<path fill="#EF3F54" d="M13.7,7c0.1,0.1,0.1,0.1,0.2,0.1c0.9,0.9,1.9,1.9,2.8,2.8c0.1,0.1,0.1,0.2,0,0.3c-1.8,2.1-2.6,4.6-2.5,7.4
			c0,0.1,0,0.1,0,0.2c-0.1-0.1-0.2-0.1-0.2-0.2c-0.7-0.7-1.3-1.3-2-2c-0.3-0.3-0.5-0.7-0.5-1.1c-0.3-2.4,0.2-4.7,1.6-6.7
			C13.2,7.6,13.5,7.3,13.7,7z"/>
		<path fill="#EF3F54" d="M9.7,3.1c1.1,1.1,2.1,2.1,3.1,3.1c-1.7,2.5-2.3,3-2.7,7.7c-0.1-0.1-0.1-0.1-0.2-0.1
			c-0.7-0.7-1.5-1.5-2.2-2.2c-0.1-0.1-0.2-0.3-0.2-0.4c-0.4-2.3,0-4.5,1.1-6.5C9,4.1,9.4,3.6,9.7,3.1z"/>
		<path fill="#EF3F54" d="M32.1,21.4c0.9,0.9,1.8,1.8,2.6,2.6c-0.4,0.5-0.8,1-1.1,1.6c-0.7,1-1.1,2.1-1.4,3.2
			c-0.1,0.2-0.2,0.4-0.3,0.7c-0.6,1-0.9,2.1-0.8,3.2c0,0,0,0.1,0,0.1c-0.1,0-0.1-0.1-0.2-0.1c-0.1-0.1-0.2-0.2-0.3-0.3
			c-0.8-0.6-1-1.4-1.1-2.3c-0.3-2,0-4,0.8-5.9C30.7,23.2,31.3,22.3,32.1,21.4C32,21.4,32,21.4,32.1,21.4z"/>
		<path fill="#EF3F54" d="M28.2,29.1c-0.1,0-0.1-0.1-0.1-0.1c-0.4-0.9-1.2-1.6-1.9-2.3c-0.2-0.2-0.3-0.4-0.3-0.7
			c-0.2-2.5,0.4-4.7,1.7-6.8c0.3-0.4,0.6-0.8,0.9-1.2c0,0,0.1-0.1,0.2-0.1c0.2,0.3,0.5,0.5,0.7,0.8c0.6,0.6,1.2,1.2,1.7,1.7
			c0.1,0.1,0.1,0.2,0,0.3c-2,2.3-2.9,5-2.9,8.1C28.2,28.9,28.2,28.9,28.2,29.1z"/>
		<path fill="#EF3F54" d="M14.7,30c-0.2-0.2-0.4-0.5-0.7-0.7c-0.1-0.1-0.2-0.2-0.4-0.4c-1.1-1.1-1.1-1.1-1.3-2.7
			c-0.2-2.2,0.2-4.3,1.2-6.3c0-0.1,0.1-0.2,0.1-0.2c0.1,0.1,0.1,0.1,0.2,0.1c0.8,0.8,1.5,1.5,2.3,2.3c0.1,0.1,0.2,0.2,0.1,0.4
			c-0.8,1.5-1.4,3.1-1.5,4.8c-0.1,0.8,0,1.6,0,2.4C14.8,29.8,14.8,29.9,14.7,30C14.8,29.9,14.7,30,14.7,30z"/>
		<path fill="#EF3F54" d="M10.3,16.2c0.1,0.1,0.2,0.1,0.2,0.2c0.7,0.7,1.5,1.5,2.2,2.2c0.2,0.2,0.2,0.3,0.1,0.5
			c-0.8,1.5-1.4,3.1-1.5,4.8c-0.1,0.8,0,1.6,0,2.4c0,0.1,0,0.1,0,0.2c-0.1-0.1-0.1-0.1-0.2-0.1c-0.5-0.5-1.1-1.1-1.6-1.6
			c-0.2-0.2-0.3-0.4-0.3-0.6c-0.6-2.7-0.3-5.3,1-7.7C10.2,16.4,10.3,16.3,10.3,16.2z"/>
		<path fill="#EF3F54" d="M7.8,23.1c-0.2-0.2-0.3-0.4-0.5-0.6C7,22.2,6.8,22,6.5,21.8c-0.6-0.5-0.8-1.1-0.9-1.8
			c-0.4-2.4,0-4.7,1.1-6.9c0-0.1,0.1-0.1,0.1-0.2c0,0,0,0,0.1,0c0,0,0.1,0.1,0.1,0.1c0.8,0.8,1.5,1.5,2.3,2.3c0.1,0.1,0.1,0.3,0,0.4
			c-0.7,1.3-1.2,2.6-1.4,4.1c-0.2,1-0.2,2.1-0.1,3.1C7.9,22.9,7.9,22.9,7.8,23.1C7.8,23,7.8,23,7.8,23.1z"/>
		<path fill="#EF3F54" d="M20.9,24.4c-0.3,0.5-0.7,1-1,1.5c-0.4,0.7-0.7,1.2-1.3,1.8c-1.1,1.1-1.7,2.5-1.7,4.1c0,0.1,0,0.2,0,0.3
			c-0.5-0.3-0.7-0.7-0.8-1.3c-0.5-2.5-0.2-4.9,1-7.2c0.1-0.1,0.1-0.3,0.2-0.4C18.3,24,19.5,24.4,20.9,24.4z"/>
		<path fill="#EF3F54" d="M6,12c-1.3,2.3-1.9,4.8-1.6,7.5c-0.1-0.1-0.2-0.1-0.2-0.2c-0.4-0.4-0.8-0.8-1.2-1.2
			c-0.1-0.1-0.2-0.2-0.2-0.3c0-3,0-6,0-8.9c0,0,0-0.1,0-0.1C3.8,9.9,4.9,10.9,6,12z"/>
		<path fill="#EF3F54" d="M15.4,18.5c-0.3-2.8,0.4-5.3,2.2-7.5c1,1,2,2,2.9,2.9C17.7,14.2,16,15.7,15.4,18.5z"/>
		<path fill="#EF3F54" d="M25.2,14.4c0.2,0.3,0.5,0.5,0.7,0.7c0.6,0.6,1.2,1.2,1.8,1.8c0.1,0.1,0.2,0.2,0.1,0.3
			c-0.8,0.9-1.4,1.9-1.9,3c0-0.1,0-0.1,0-0.2c0.3-1.7-0.2-3.1-1.3-4.4c-0.1-0.1-0.1-0.2,0-0.3c0.2-0.3,0.4-0.5,0.6-0.8
			C25.1,14.5,25.1,14.5,25.2,14.4z"/>
		<path fill="#EF3F54" d="M17.4,6.7c-0.2,0.3-0.5,0.6-0.8,1C15.7,6.8,14.9,5.9,14,5c0.2-0.3,0.5-0.6,0.7-1
			C15.6,4.9,16.5,5.8,17.4,6.7z"/>
		<path fill="#EF3F54" d="M20.8,10.2c-0.3,0.3-0.5,0.7-0.8,1c-0.1-0.1-0.1-0.1-0.2-0.1c-0.8-0.8-1.5-1.5-2.3-2.3
			c-0.2-0.1-0.2-0.3,0-0.4c0.2-0.3,0.4-0.6,0.6-0.8C19.1,8.4,19.9,9.3,20.8,10.2z"/>
		<path fill="#EF3F54" d="M21.6,11c0.9,0.9,1.8,1.8,2.7,2.7c-0.2,0.3-0.5,0.6-0.8,1c-0.1-0.1-0.1-0.1-0.2-0.2
			c-0.8-0.8-1.5-1.5-2.3-2.3c-0.1-0.1-0.2-0.2,0-0.4C21.2,11.5,21.4,11.3,21.6,11z"/>
		<path fill="#EF3F54" d="M13.9,3.2c-0.3,0.3-0.5,0.7-0.8,1c-1-1-1.9-1.9-2.9-2.9c0.3,0,0.6,0,0.9,0c0.6-0.1,1.1,0.1,1.5,0.6
			C13,2.4,13.5,2.7,13.9,3.2C13.9,3.2,13.9,3.2,13.9,3.2z"/>
		<path fill="#EF3F54" d="M35.5,24.9c0.6,0.6,1.1,1.1,1.7,1.7c-1.2,0-2.3,0.2-3.3,0.8C34.3,26.4,34.8,25.6,35.5,24.9z"/>
		<path fill="#EF3F54" d="M25.3,21.5c-0.4,1.2-0.5,2.4-0.6,3.6c-0.5-0.5-1-1-1.5-1.5C24.1,23.1,24.8,22.4,25.3,21.5z"/>
		<path fill="#EF3F54" d="M23,25.8c-0.6,0.1-1.2,0.2-2,0.2c0.3-0.4,0.6-0.9,1-1.3C22.4,25.1,22.7,25.5,23,25.8z"/>
	</g>
</g>
</svg>
