<?xml version="1.0" encoding="utf-8"?>
<!-- Generator: Adobe Illustrator 21.0.2, SVG Export Plug-In . SVG Version: 6.00 Build 0)  -->
<svg version="1.1" id="Layer_1" xmlns="http://www.w3.org/2000/svg" xmlns:xlink="http://www.w3.org/1999/xlink" x="0px" y="0px"
	 viewBox="0 0 48.6 48.6" enable-background="new 0 0 48.6 48.6" xml:space="preserve">
<path fill="#EF3F54" d="M48.6,23.9c0.2,13.4-10.5,24.5-23.9,24.7C11.3,48.8,0.2,38.1,0,24.7c-0.1-7.5,3.2-14.3,8.5-18.9
	c2-1.7,4.3-3.1,6.8-4.1c0.8-0.3,1.6-0.6,2.4-0.8c2-0.6,4.1-0.9,6.2-0.9C37.3-0.2,48.4,10.5,48.6,23.9z"/>
<path fill="#FFFFFF" d="M34.7,10.9V9.6h-15v1.3c0,0.3,0.2,0.5,0.5,0.5h5.3c0.3,0,0.5,0.2,0.5,0.5v25.8c0,0.3-0.2,0.5-0.5,0.5h-5.3
	c-0.3,0-0.5,0.2-0.5,0.5v1.6h15v-1.6c0-0.3-0.2-0.5-0.5-0.5h-5.3c-0.3,0-0.5-0.2-0.5-0.5V12c0-0.3,0.2-0.5,0.5-0.5h5.3
	C34.4,11.4,34.7,11.2,34.7,10.9z"/>
<path fill="#FFFFFF" d="M15.3,1.7v24.2l-3.4-4.4l-3.4,4.4V5.8C10.5,4.1,12.8,2.7,15.3,1.7z"/>
</svg>
