<?xml version="1.0" encoding="utf-8"?>
<!-- Generator: Adobe Illustrator 21.0.2, SVG Export Plug-In . SVG Version: 6.00 Build 0)  -->
<svg version="1.1" id="Layer_1" xmlns="http://www.w3.org/2000/svg" xmlns:xlink="http://www.w3.org/1999/xlink" x="0px" y="0px"
	 viewBox="0 0 36.5 36.5" enable-background="new 0 0 36.5 36.5" xml:space="preserve">
<g>
	<rect x="13" y="5.8" fill="#EF3F54" width="5.2" height="14.8"/>
	<path fill="#EF3F54" d="M31.5,20.6v6.7H5v-6.7h5.5c0.1,0,0.1,0,0.2,0h9.8c0.1,0,0.1,0,0.2,0H31.5z"/>
	<g>
		<path fill="#EF3F54" d="M19.3,15.6v3.8h3.8C23.1,17.3,21.4,15.6,19.3,15.6z"/>
		<path fill="#EF3F54" d="M8,19.4h3.8v-3.8C9.7,15.6,8,17.3,8,19.4z"/>
	</g>
	<polygon fill="#EF3F54" points="23.5,14.3 24.9,9.2 24,14.6 29.5,11.9 24.5,15.1 30.6,14.6 24.4,15.9 	"/>
</g>
</svg>
