<?xml version="1.0" encoding="utf-8"?>
<!-- Generator: Adobe Illustrator 21.0.2, SVG Export Plug-In . SVG Version: 6.00 Build 0)  -->
<svg version="1.1" id="Layer_1" xmlns="http://www.w3.org/2000/svg" xmlns:xlink="http://www.w3.org/1999/xlink" x="0px" y="0px"
	 viewBox="0 0 36.5 36.5" enable-background="new 0 0 36.5 36.5" xml:space="preserve">
<path fill="#EF3F54" d="M30,8.8v-1H17.7v1c0,0.2,0.2,0.4,0.4,0.4h4.4c0.2,0,0.4,0.2,0.4,0.4v21.1c0,0.2-0.2,0.4-0.4,0.4h-4.4
	c-0.2,0-0.4,0.2-0.4,0.4v1.3H30v-1.3c0-0.2-0.2-0.4-0.4-0.4h-4.4c-0.2,0-0.4-0.2-0.4-0.4V9.6c0-0.2,0.2-0.4,0.4-0.4h4.4
	C29.8,9.2,30,9,30,8.8z"/>
<polygon fill="#EF3F54" points="13.3,7.7 13.3,22.5 9.9,18.1 6.6,22.5 6.6,7.7 9.9,3.2 "/>
</svg>
