<?xml version="1.0" encoding="utf-8"?>
<!-- Generator: Adobe Illustrator 21.0.2, SVG Export Plug-In . SVG Version: 6.00 Build 0)  -->
<svg version="1.1" id="Layer_1" xmlns="http://www.w3.org/2000/svg" xmlns:xlink="http://www.w3.org/1999/xlink" x="0px" y="0px"
	 viewBox="0 0 103 103" enable-background="new 0 0 103 103" xml:space="preserve">
<path fill="#C72026" d="M65,103H38C17.01,103,0,85.99,0,65V38C0,17.01,17.01,0,38,0h27c20.99,0,38,17.01,38,38v27
	C103,85.99,85.99,103,65,103z"/>
<g>
	<path fill="#FFFFFF" d="M10.05,55.83h10.24v11.78c0,1.17,0.71,1.75,2.13,1.75c1.37,0,2.06-0.58,2.06-1.75v-6.09
		c0-1.86-1.24-4.05-3.72-6.55c-4.8-4.65-7.78-7.78-8.95-9.38c-1.17-1.6-1.75-3.35-1.75-5.26v-5.76c0-6.66,4.35-9.99,13.05-9.99
		c7.79,0,11.69,3.03,11.69,9.09v8.88H24.55v-9.45c0-1.03-0.57-1.54-1.72-1.54c-1.34,0-2.01,0.99-2.01,2.97l0.22,3.33
		c0,1.91,1.27,4.13,3.8,6.66c4.71,4.51,7.71,7.66,8.99,9.45s1.92,3.82,1.92,6.09v6.55c0,6.83-4.36,10.24-13.09,10.24
		c-8.41,0-12.62-3.1-12.62-9.31V55.83z"/>
	<path fill="#FFFFFF" d="M49.14,57.48v18.9H38.15V25.04H50c4.7,0,8.19,0.6,10.47,1.79c2.28,1.19,3.42,3.63,3.42,7.3v14.25
		c0,3.37-0.93,5.75-2.79,7.14C59.24,56.92,55.25,57.57,49.14,57.48z M52.9,47.41V35.1c0-1.81-1.25-2.72-3.76-2.72v17.76
		C51.65,50.14,52.9,49.23,52.9,47.41z"/>
	<path fill="#FFFFFF" d="M65.9,55.83h10.24v11.78c0,1.17,0.71,1.75,2.13,1.75c1.37,0,2.06-0.58,2.06-1.75v-6.09
		c0-1.86-1.24-4.05-3.72-6.55c-4.8-4.65-7.78-7.78-8.95-9.38c-1.17-1.6-1.75-3.35-1.75-5.26v-5.76c0-6.66,4.35-9.99,13.05-9.99
		c7.79,0,11.69,3.03,11.69,9.09v8.88H80.4v-9.45c0-1.03-0.57-1.54-1.72-1.54c-1.34,0-2.01,0.99-2.01,2.97l0.22,3.33
		c0,1.91,1.27,4.13,3.8,6.66c4.71,4.51,7.71,7.66,8.99,9.45s1.92,3.82,1.92,6.09v6.55c0,6.83-4.36,10.24-13.09,10.24
		c-8.41,0-12.62-3.1-12.62-9.31V55.83z"/>
</g>
<path fill="#FFFFFF" d="M83.48,82.72c-6.21,5.38-18.2,9.01-31.98,9.01c-13.78,0-25.77-3.63-31.98-9.01
	c7.87,3.54,19.28,5.76,31.98,5.76S75.61,86.26,83.48,82.72z"/>
</svg>
