<?xml version="1.0" encoding="utf-8"?>
<!-- Generator: Adobe Illustrator 21.0.2, SVG Export Plug-In . SVG Version: 6.00 Build 0)  -->
<svg version="1.1" id="Layer_1" xmlns="http://www.w3.org/2000/svg" xmlns:xlink="http://www.w3.org/1999/xlink" x="0px" y="0px"
	 viewBox="0 0 149.13 133.33" enable-background="new 0 0 149.13 133.33" xml:space="preserve">
<g>
	<line fill="none" stroke="#000000" stroke-width="0.2742" stroke-miterlimit="10" x1="26.08" y1="115.21" x2="26.08" y2="25.83"/>
	<line fill="none" stroke="#000000" stroke-width="0.2742" stroke-miterlimit="10" x1="29.08" y1="25.83" x2="22.58" y2="25.83"/>
	<line fill="none" stroke="#000000" stroke-width="0.2742" stroke-miterlimit="10" x1="29.08" y1="115.21" x2="22.58" y2="115.21"/>
</g>
<g>
	<line fill="none" stroke="#000000" stroke-width="0.2742" stroke-miterlimit="10" x1="125.42" y1="14.92" x2="36.04" y2="14.92"/>
	<line fill="none" stroke="#000000" stroke-width="0.2742" stroke-miterlimit="10" x1="36.04" y1="11.92" x2="36.04" y2="18.42"/>
	<line fill="none" stroke="#000000" stroke-width="0.2742" stroke-miterlimit="10" x1="125.42" y1="11.92" x2="125.42" y2="18.42"/>
</g>
<line fill="none" stroke="#000000" stroke-width="0.2742" stroke-miterlimit="10" x1="41.92" y1="30.74" x2="51.96" y2="40.57"/>
<line fill="none" stroke="#000000" stroke-width="0.2742" stroke-miterlimit="10" x1="125.42" y1="25.83" x2="135.46" y2="35.66"/>
<path fill="#EF3F54" stroke="#000000" stroke-width="0.6664" stroke-miterlimit="10" d="M35.34,27.56v84.52
	c0,1.73,1.4,3.13,3.13,3.13h84.52c1.73,0,3.13-1.4,3.13-3.13V27.56c0-1.73-1.4-3.13-3.13-3.13H38.47
	C36.74,24.42,35.34,25.83,35.34,27.56z M117.46,109.68H43.98c-1.73,0-3.13-1.4-3.13-3.13V33.09c0-1.73,1.4-3.13,3.13-3.13h73.48
	c1.73,0,3.13,1.4,3.13,3.13v73.46C120.59,108.27,119.19,109.68,117.46,109.68z"/>
<g>
	<line fill="none" stroke="#000000" stroke-width="0.2742" stroke-miterlimit="10" x1="35.37" y1="86" x2="44.71" y2="86"/>
	<line fill="none" stroke="#000000" stroke-width="0.2742" stroke-miterlimit="10" x1="41.38" y1="88.56" x2="39.48" y2="82.94"/>
	<line fill="none" stroke="#000000" stroke-width="0.2742" stroke-miterlimit="10" x1="36.31" y1="88.56" x2="34.42" y2="82.94"/>
</g>
<g>
	<g>
		<g>
			<line fill="none" stroke="#000000" stroke-width="0.2742" stroke-miterlimit="10" x1="79.73" y1="70.79" x2="78.23" y2="70.79"/>
			
				<line fill="none" stroke="#000000" stroke-width="0.2742" stroke-miterlimit="10" stroke-dasharray="2.9591,0.9864" x1="77.24" y1="70.79" x2="54.06" y2="70.79"/>
			<line fill="none" stroke="#000000" stroke-width="0.2742" stroke-miterlimit="10" x1="53.57" y1="70.79" x2="52.07" y2="70.79"/>
		</g>
	</g>
	<g>
		<g>
			
				<line fill="none" stroke="#000000" stroke-width="0.2742" stroke-miterlimit="10" x1="79.73" y1="100.62" x2="79.73" y2="99.12"/>
			
				<line fill="none" stroke="#000000" stroke-width="0.2742" stroke-miterlimit="10" stroke-dasharray="3.2192,1.0731" x1="79.73" y1="98.04" x2="79.73" y2="72.83"/>
			<line fill="none" stroke="#000000" stroke-width="0.2742" stroke-miterlimit="10" x1="79.73" y1="72.29" x2="79.73" y2="70.79"/>
		</g>
	</g>
	<line fill="none" stroke="#000000" stroke-width="0.1939" stroke-miterlimit="10" x1="57.32" y1="69.17" x2="52.07" y2="70.79"/>
	<line fill="none" stroke="#000000" stroke-width="0.1939" stroke-miterlimit="10" x1="57.32" y1="72.42" x2="52.07" y2="70.79"/>
	<line fill="none" stroke="#000000" stroke-width="0.1939" stroke-miterlimit="10" x1="57.32" y1="69.17" x2="57.32" y2="72.42"/>
	<line fill="none" stroke="#000000" stroke-width="0.1939" stroke-miterlimit="10" x1="78.1" y1="95.37" x2="79.73" y2="100.62"/>
	<line fill="none" stroke="#000000" stroke-width="0.1939" stroke-miterlimit="10" x1="81.35" y1="95.37" x2="79.73" y2="100.62"/>
	<line fill="none" stroke="#000000" stroke-width="0.1939" stroke-miterlimit="10" x1="78.1" y1="95.37" x2="81.35" y2="95.37"/>
	<text transform="matrix(1 0 0 1 67.5704 67.5409)" font-family="'MyriadPro-Regular'" font-size="8.4928px">y</text>
	<text transform="matrix(1 0 0 1 84.3575 99.8677)" font-family="'MyriadPro-Regular'" font-size="8.4928px">z</text>
</g>
<text transform="matrix(1 0 0 1 75.9376 10.4165)" font-family="'MyriadPro-Regular'" font-size="7px">B</text>
<text transform="matrix(1 0 0 1 50.0355 88.1668)" font-family="'MyriadPro-Regular'" font-size="7px">T</text>
<text transform="matrix(1 0 0 1 17.4166 73.1667)" font-family="'MyriadPro-Regular'" font-size="7px">B</text>
<text transform="matrix(1 0 0 1 53.0416 46.0417)" font-family="'MyriadPro-Regular'" font-size="7px">ri</text>
<text transform="matrix(1 0 0 1 137.6666 43.4167)" font-family="'MyriadPro-Regular'" font-size="7px">ro</text>
</svg>
