<?xml version="1.0" encoding="utf-8"?>
<!-- Generator: Adobe Illustrator 21.0.2, SVG Export Plug-In . SVG Version: 6.00 Build 0)  -->
<svg version="1.1" id="Layer_1" xmlns="http://www.w3.org/2000/svg" xmlns:xlink="http://www.w3.org/1999/xlink" x="0px" y="0px"
	 viewBox="0 0 137.33 96" enable-background="new 0 0 137.33 96" xml:space="preserve">
<path fill="#EF3F54" stroke="#000000" stroke-miterlimit="10" d="M111.63,22.75v6.66H83.01c-1.33,0-2.42,1.08-2.42,2.42v49.5h-5.26
	v-49.5c0-1.34-1.08-2.42-2.42-2.42H44.29v-6.66H111.63z"/>
<line fill="none" stroke="#000000" stroke-width="0.2742" stroke-miterlimit="10" x1="119.04" y1="22.75" x2="125.54" y2="22.75"/>
<line fill="none" stroke="#000000" stroke-width="0.2742" stroke-miterlimit="10" x1="119.04" y1="29.41" x2="125.54" y2="29.41"/>
<g>
	<line fill="none" stroke="#000000" stroke-width="0.2742" stroke-miterlimit="10" x1="44.29" y1="15.42" x2="111.63" y2="15.42"/>
	<line fill="none" stroke="#000000" stroke-width="0.2742" stroke-miterlimit="10" x1="111.63" y1="18.42" x2="111.63" y2="11.92"/>
	<line fill="none" stroke="#000000" stroke-width="0.2742" stroke-miterlimit="10" x1="44.29" y1="18.42" x2="44.29" y2="11.92"/>
</g>
<g>
	<line fill="none" stroke="#000000" stroke-width="0.2808" stroke-miterlimit="10" x1="11.64" y1="83" x2="11.64" y2="22.75"/>
	<line fill="none" stroke="#000000" stroke-width="0.2808" stroke-miterlimit="10" x1="14.64" y1="22.75" x2="8.14" y2="22.75"/>
	<line fill="none" stroke="#000000" stroke-width="0.2808" stroke-miterlimit="10" x1="14.64" y1="83" x2="8.14" y2="83"/>
</g>
<line fill="none" stroke="#000000" stroke-width="0.2742" stroke-miterlimit="10" x1="73.63" y1="63.64" x2="87.93" y2="63.64"/>
<line fill="none" stroke="#000000" stroke-width="0.2742" stroke-miterlimit="10" x1="82.22" y1="66.2" x2="78.97" y2="60.57"/>
<line fill="none" stroke="#000000" stroke-width="0.2742" stroke-miterlimit="10" x1="76.95" y1="66.2" x2="73.7" y2="60.57"/>
<line fill="none" stroke="#000000" stroke-width="0.2742" stroke-miterlimit="10" x1="122.29" y1="22.75" x2="122.29" y2="29.41"/>
<line fill="none" stroke="#000000" stroke-width="0.2742" stroke-miterlimit="10" x1="81.05" y1="30.42" x2="92.79" y2="40.25"/>
<g>
	<g>
		<g>
			<line fill="none" stroke="#000000" stroke-width="0.2742" stroke-miterlimit="10" x1="77.67" y1="38.29" x2="76.17" y2="38.29"/>
			
				<line fill="none" stroke="#000000" stroke-width="0.2742" stroke-miterlimit="10" stroke-dasharray="2.9924,0.9975" x1="75.17" y1="38.29" x2="35.77" y2="38.29"/>
			<line fill="none" stroke="#000000" stroke-width="0.2742" stroke-miterlimit="10" x1="35.27" y1="38.29" x2="33.77" y2="38.29"/>
		</g>
	</g>
	<g>
		<g>
			<line fill="none" stroke="#000000" stroke-width="0.2742" stroke-miterlimit="10" x1="77.67" y1="91.58" x2="77.67" y2="90.08"/>
			
				<line fill="none" stroke="#000000" stroke-width="0.2742" stroke-miterlimit="10" stroke-dasharray="3.0791,1.0264" x1="77.67" y1="89.06" x2="77.67" y2="40.3"/>
			<line fill="none" stroke="#000000" stroke-width="0.2742" stroke-miterlimit="10" x1="77.67" y1="39.79" x2="77.67" y2="38.29"/>
		</g>
	</g>
	<line fill="none" stroke="#000000" stroke-width="0.1939" stroke-miterlimit="10" x1="39.02" y1="36.67" x2="33.77" y2="38.29"/>
	<line fill="none" stroke="#000000" stroke-width="0.1939" stroke-miterlimit="10" x1="39.02" y1="39.92" x2="33.77" y2="38.29"/>
	<line fill="none" stroke="#000000" stroke-width="0.1939" stroke-miterlimit="10" x1="39.02" y1="36.67" x2="39.02" y2="39.92"/>
	<line fill="none" stroke="#000000" stroke-width="0.1939" stroke-miterlimit="10" x1="76.04" y1="86.33" x2="77.67" y2="91.58"/>
	<line fill="none" stroke="#000000" stroke-width="0.1939" stroke-miterlimit="10" x1="79.29" y1="86.33" x2="77.67" y2="91.58"/>
	<line fill="none" stroke="#000000" stroke-width="0.1939" stroke-miterlimit="10" x1="76.04" y1="86.33" x2="79.29" y2="86.33"/>
	<text transform="matrix(1 0 0 1 40.8423 44.4891)" font-family="'MyriadPro-Regular'" font-size="8.4928px">y</text>
	<text transform="matrix(1 0 0 1 82.2951 90.8333)" font-family="'MyriadPro-Regular'" font-size="8.4928px">z</text>
</g>
<text transform="matrix(1 0 0 1 4.0047 56.7908)" font-family="'MyriadPro-Regular'" font-size="7px">h</text>
<text transform="matrix(1 0 0 1 22.3801 31.2911)" font-family="'MyriadPro-Regular'" font-size="7px">ey</text>
<text transform="matrix(1 0 0 1 75.6189 12.7238)" font-family="'MyriadPro-Regular'" font-size="7px">b</text>
<text transform="matrix(1 0 0 1 126.2907 29.4141)" font-family="'MyriadPro-Regular'" font-size="7px">tf</text>
<text transform="matrix(1 0 0 1 91.4833 64.9373)" font-family="'MyriadPro-Regular'" font-size="7px">tw</text>
<text transform="matrix(1 0 0 1 95.2862 43.9156)" font-family="'MyriadPro-Regular'" font-size="7px">r</text>
<line fill="none" stroke="#000000" stroke-width="0.2808" stroke-miterlimit="10" x1="21" y1="38.29" x2="21" y2="22.75"/>
<line fill="none" stroke="#000000" stroke-width="0.2808" stroke-miterlimit="10" x1="17.75" y1="22.75" x2="23.25" y2="22.75"/>
<line fill="none" stroke="#000000" stroke-width="0.2808" stroke-miterlimit="10" x1="23.25" y1="38.29" x2="17.75" y2="38.29"/>
</svg>
