<?xml version="1.0" encoding="utf-8"?>
<!-- Generator: Adobe Illustrator 21.0.2, SVG Export Plug-In . SVG Version: 6.00 Build 0)  -->
<svg version="1.1" id="Layer_1" xmlns="http://www.w3.org/2000/svg" xmlns:xlink="http://www.w3.org/1999/xlink" x="0px" y="0px"
	 viewBox="0 0 135.12 101.33" enable-background="new 0 0 135.12 101.33" xml:space="preserve">
<path fill="#EF3F54" stroke="#000000" stroke-miterlimit="10" d="M108.83,22.75v1.9c0,2.63-2.14,4.77-4.77,4.77H81.34
	c-1.33,0-2.42,1.08-2.42,2.42l-1.92,47.99c-0.03,0.84-0.73,1.51-1.57,1.51h-0.54c-0.84,0-1.54-0.67-1.57-1.51l-1.92-47.99
	c0-1.34-1.08-2.42-2.42-2.42H46.25c-2.63,0-4.77-2.14-4.77-4.77v-1.9H108.83z"/>
<line fill="none" stroke="#000000" stroke-width="0.2742" stroke-miterlimit="10" x1="116.24" y1="22.75" x2="122.74" y2="22.75"/>
<line fill="none" stroke="#000000" stroke-width="0.2742" stroke-miterlimit="10" x1="116.24" y1="29.41" x2="122.74" y2="29.41"/>
<g>
	<line fill="none" stroke="#000000" stroke-width="0.2742" stroke-miterlimit="10" x1="41.49" y1="15.42" x2="108.82" y2="15.42"/>
	<line fill="none" stroke="#000000" stroke-width="0.2742" stroke-miterlimit="10" x1="108.82" y1="18.42" x2="108.82" y2="11.92"/>
	<line fill="none" stroke="#000000" stroke-width="0.2742" stroke-miterlimit="10" x1="41.49" y1="18.42" x2="41.49" y2="11.92"/>
</g>
<g>
	<line fill="none" stroke="#000000" stroke-width="0.2802" stroke-miterlimit="10" x1="12.58" y1="83" x2="12.58" y2="23.02"/>
	<line fill="none" stroke="#000000" stroke-width="0.2802" stroke-miterlimit="10" x1="15.58" y1="23.02" x2="9.08" y2="23.02"/>
	<line fill="none" stroke="#000000" stroke-width="0.2802" stroke-miterlimit="10" x1="15.58" y1="83" x2="9.08" y2="83"/>
</g>
<g>
	<line fill="none" stroke="#000000" stroke-width="0.2802" stroke-miterlimit="10" x1="103.25" y1="81.33" x2="103.25" y2="32.68"/>
	<line fill="none" stroke="#000000" stroke-width="0.2802" stroke-miterlimit="10" x1="106.25" y1="32.68" x2="99.75" y2="32.68"/>
	<line fill="none" stroke="#000000" stroke-width="0.2802" stroke-miterlimit="10" x1="106.25" y1="81.33" x2="99.75" y2="81.33"/>
</g>
<g>
	<line fill="none" stroke="#000000" stroke-width="0.2802" stroke-miterlimit="10" x1="47.68" y1="81.33" x2="47.68" y2="54.19"/>
	<line fill="none" stroke="#000000" stroke-width="0.2802" stroke-miterlimit="10" x1="50.68" y1="54.19" x2="44.18" y2="54.19"/>
	<line fill="none" stroke="#000000" stroke-width="0.2802" stroke-miterlimit="10" x1="50.68" y1="81.33" x2="44.18" y2="81.33"/>
</g>
<line fill="none" stroke="#000000" stroke-width="0.2742" stroke-miterlimit="10" x1="69.69" y1="54.19" x2="86.26" y2="54.19"/>
<line fill="none" stroke="#000000" stroke-width="0.2742" stroke-miterlimit="10" x1="79.6" y1="56.76" x2="76.35" y2="51.13"/>
<line fill="none" stroke="#000000" stroke-width="0.2742" stroke-miterlimit="10" x1="74.27" y1="57.01" x2="71.02" y2="51.38"/>
<line fill="none" stroke="#000000" stroke-width="0.2742" stroke-miterlimit="10" x1="119.49" y1="22.75" x2="119.49" y2="29.41"/>
<line fill="none" stroke="#000000" stroke-width="0.2742" stroke-miterlimit="10" x1="79.38" y1="30.42" x2="89.99" y2="40.25"/>
<line fill="none" stroke="#000000" stroke-width="0.2742" stroke-miterlimit="10" x1="30.05" y1="15.42" x2="40.66" y2="25.24"/>
<line fill="none" stroke="#000000" stroke-width="0.2742" stroke-miterlimit="10" x1="63.08" y1="71.51" x2="73.69" y2="81.33"/>
<g>
	<g>
		<g>
			<line fill="none" stroke="#000000" stroke-width="0.2742" stroke-miterlimit="10" x1="75.48" y1="38.29" x2="73.98" y2="38.29"/>
			
				<line fill="none" stroke="#000000" stroke-width="0.2742" stroke-miterlimit="10" stroke-dasharray="2.9924,0.9975" x1="72.98" y1="38.29" x2="33.58" y2="38.29"/>
			<line fill="none" stroke="#000000" stroke-width="0.2742" stroke-miterlimit="10" x1="33.08" y1="38.29" x2="31.58" y2="38.29"/>
		</g>
	</g>
	<g>
		<g>
			<line fill="none" stroke="#000000" stroke-width="0.2742" stroke-miterlimit="10" x1="75.48" y1="91.58" x2="75.48" y2="90.08"/>
			
				<line fill="none" stroke="#000000" stroke-width="0.2742" stroke-miterlimit="10" stroke-dasharray="3.0791,1.0264" x1="75.48" y1="89.06" x2="75.48" y2="40.3"/>
			<line fill="none" stroke="#000000" stroke-width="0.2742" stroke-miterlimit="10" x1="75.48" y1="39.79" x2="75.48" y2="38.29"/>
		</g>
	</g>
	<line fill="none" stroke="#000000" stroke-width="0.1939" stroke-miterlimit="10" x1="36.83" y1="36.67" x2="31.58" y2="38.29"/>
	<line fill="none" stroke="#000000" stroke-width="0.1939" stroke-miterlimit="10" x1="36.83" y1="39.92" x2="31.58" y2="38.29"/>
	<line fill="none" stroke="#000000" stroke-width="0.1939" stroke-miterlimit="10" x1="36.83" y1="36.67" x2="36.83" y2="39.92"/>
	<line fill="none" stroke="#000000" stroke-width="0.1939" stroke-miterlimit="10" x1="73.85" y1="86.33" x2="75.48" y2="91.58"/>
	<line fill="none" stroke="#000000" stroke-width="0.1939" stroke-miterlimit="10" x1="77.1" y1="86.33" x2="75.48" y2="91.58"/>
	<line fill="none" stroke="#000000" stroke-width="0.1939" stroke-miterlimit="10" x1="73.85" y1="86.33" x2="77.1" y2="86.33"/>
	<text transform="matrix(1 0 0 1 38.4457 45.0409)" font-family="'MyriadPro-Regular'" font-size="8.4928px">y</text>
	<text transform="matrix(1 0 0 1 80.1078 90.8333)" font-family="'MyriadPro-Regular'" font-size="8.4928px">z</text>
</g>
<text transform="matrix(1 0 0 1 5.9577 58.4574)" font-family="'MyriadPro-Regular'" font-size="7px">h</text>
<text transform="matrix(1 0 0 1 78.9227 12.7237)" font-family="'MyriadPro-Regular'" font-size="7px">b</text>
<text transform="matrix(1 0 0 1 124.4082 29.4137)" font-family="'MyriadPro-Regular'" font-size="7px">tf</text>
<text transform="matrix(1 0 0 1 89.6739 56.7912)" font-family="'MyriadPro-Regular'" font-size="7px">tw</text>
<text transform="matrix(1 0 0 1 31.5833 68.6662)" font-family="'MyriadPro-Regular'" font-size="7px">h/2</text>
<text transform="matrix(1 0 0 1 87.5857 46.6857)" font-family="'MyriadPro-Regular'" font-size="7px">r1</text>
<text transform="matrix(1 0 0 1 105.0855 55.0607)" font-family="'MyriadPro-Regular'" font-size="7px">d</text>
<text transform="matrix(1 0 0 1 23.2469 14.7688)" font-family="'MyriadPro-Regular'" font-size="7px">r2</text>
<text transform="matrix(1 0 0 1 53.5315 74.1021)" font-family="'MyriadPro-Regular'" font-size="7px">r3</text>
<text transform="matrix(1 0 0 1 23.2472 31.2911)" font-family="'MyriadPro-Regular'" font-size="7px">ey</text>
<line fill="none" stroke="#000000" stroke-width="0.2808" stroke-miterlimit="10" x1="21.87" y1="38.29" x2="21.87" y2="22.75"/>
<line fill="none" stroke="#000000" stroke-width="0.2808" stroke-miterlimit="10" x1="18.62" y1="22.75" x2="24.12" y2="22.75"/>
<line fill="none" stroke="#000000" stroke-width="0.2808" stroke-miterlimit="10" x1="24.12" y1="38.29" x2="18.62" y2="38.29"/>
</svg>
