<?xml version="1.0" encoding="utf-8"?>
<!-- Generator: Adobe Illustrator 21.0.2, SVG Export Plug-In . SVG Version: 6.00 Build 0)  -->
<svg version="1.1" id="Layer_1" xmlns="http://www.w3.org/2000/svg" xmlns:xlink="http://www.w3.org/1999/xlink" x="0px" y="0px"
	 viewBox="0 0 141.33 193.33" enable-background="new 0 0 141.33 193.33" xml:space="preserve">
<path fill="#EF3F54" stroke="#000000" stroke-miterlimit="10" d="M108.66,43.33v-6.67H41.33v6.67h26.92c1.33,0,2.42,1.08,2.42,2.42
	v118.5c0,1.33-1.08,2.42-2.42,2.42H41.33v6.67h67.33v-6.67H81.75c-1.33,0-2.42-1.08-2.42-2.42V45.75c0-1.33,1.08-2.42,2.42-2.42
	H108.66z"/>
<line fill="none" stroke="#000000" stroke-width="0.2742" stroke-miterlimit="10" x1="116.08" y1="36.67" x2="122.58" y2="36.67"/>
<line fill="none" stroke="#000000" stroke-width="0.2742" stroke-miterlimit="10" x1="116.08" y1="43.33" x2="122.58" y2="43.33"/>
<g>
	<line fill="none" stroke="#000000" stroke-width="0.2742" stroke-miterlimit="10" x1="39" y1="20.17" x2="108.66" y2="20.17"/>
	<line fill="none" stroke="#000000" stroke-width="0.2742" stroke-miterlimit="10" x1="108.66" y1="23.17" x2="108.66" y2="16.67"/>
	<line fill="none" stroke="#000000" stroke-width="0.2742" stroke-miterlimit="10" x1="39" y1="23.17" x2="39" y2="16.67"/>
</g>
<g>
	<line fill="none" stroke="#000000" stroke-width="0.2742" stroke-miterlimit="10" x1="23.66" y1="173.33" x2="23.66" y2="36.67"/>
	<line fill="none" stroke="#000000" stroke-width="0.2742" stroke-miterlimit="10" x1="26.66" y1="36.67" x2="20.16" y2="36.67"/>
	<line fill="none" stroke="#000000" stroke-width="0.2742" stroke-miterlimit="10" x1="26.66" y1="173.33" x2="20.16" y2="173.33"/>
</g>
<line fill="none" stroke="#000000" stroke-width="0.2742" stroke-miterlimit="10" x1="70.66" y1="117.88" x2="86.66" y2="117.88"/>
<line fill="none" stroke="#000000" stroke-width="0.2742" stroke-miterlimit="10" x1="80.95" y1="120.45" x2="77.7" y2="114.82"/>
<line fill="none" stroke="#000000" stroke-width="0.2742" stroke-miterlimit="10" x1="72.29" y1="120.45" x2="69.04" y2="114.82"/>
<line fill="none" stroke="#000000" stroke-width="0.2742" stroke-miterlimit="10" x1="119.33" y1="36.67" x2="119.33" y2="43.33"/>
<line fill="none" stroke="#000000" stroke-width="0.2742" stroke-miterlimit="10" x1="79.79" y1="44.34" x2="89.83" y2="54.17"/>
<g>
	<g>
		<g>
			<line fill="none" stroke="#000000" stroke-width="0.2742" stroke-miterlimit="10" x1="75" y1="99.92" x2="73.5" y2="99.92"/>
			
				<line fill="none" stroke="#000000" stroke-width="0.2742" stroke-miterlimit="10" stroke-dasharray="3.0488,1.0163" x1="72.48" y1="99.92" x2="32.34" y2="99.92"/>
			<line fill="none" stroke="#000000" stroke-width="0.2742" stroke-miterlimit="10" x1="31.83" y1="99.92" x2="30.33" y2="99.92"/>
		</g>
	</g>
	<g>
		<g>
			<line fill="none" stroke="#000000" stroke-width="0.2742" stroke-miterlimit="10" x1="75" y1="143.92" x2="75" y2="142.42"/>
			
				<line fill="none" stroke="#000000" stroke-width="0.2742" stroke-miterlimit="10" stroke-dasharray="3,1" x1="75" y1="141.42" x2="75" y2="101.92"/>
			<line fill="none" stroke="#000000" stroke-width="0.2742" stroke-miterlimit="10" x1="75" y1="101.42" x2="75" y2="99.92"/>
		</g>
	</g>
	<line fill="none" stroke="#000000" stroke-width="0.1939" stroke-miterlimit="10" x1="35.58" y1="98.29" x2="30.33" y2="99.92"/>
	<line fill="none" stroke="#000000" stroke-width="0.1939" stroke-miterlimit="10" x1="35.58" y1="101.54" x2="30.33" y2="99.92"/>
	<line fill="none" stroke="#000000" stroke-width="0.1939" stroke-miterlimit="10" x1="35.58" y1="98.29" x2="35.58" y2="101.54"/>
	<line fill="none" stroke="#000000" stroke-width="0.1939" stroke-miterlimit="10" x1="73.37" y1="138.67" x2="75" y2="143.92"/>
	<line fill="none" stroke="#000000" stroke-width="0.1939" stroke-miterlimit="10" x1="76.62" y1="138.67" x2="75" y2="143.92"/>
	<line fill="none" stroke="#000000" stroke-width="0.1939" stroke-miterlimit="10" x1="73.37" y1="138.67" x2="76.62" y2="138.67"/>
	<text transform="matrix(1 0 0 1 45.8299 96.6666)" font-family="'MyriadPro-Regular'" font-size="8.4928px">y</text>
	<text transform="matrix(1 0 0 1 73.3717 149.1666)" font-family="'MyriadPro-Regular'" font-size="8.4928px">z</text>
</g>
<text transform="matrix(1 0 0 1 14.5797 107.6666)" font-family="'MyriadPro-Regular'" font-size="7px">h</text>
<text transform="matrix(1 0 0 1 70.6649 18.3335)" font-family="'MyriadPro-Regular'" font-size="7px">b</text>
<text transform="matrix(1 0 0 1 126.8299 43.3332)" font-family="'MyriadPro-Regular'" font-size="7px">tf</text>
<text transform="matrix(1 0 0 1 91.1988 118.757)" font-family="'MyriadPro-Regular'" font-size="7px">tw</text>
<text transform="matrix(1 0 0 1 89.1988 62.007)" font-family="'MyriadPro-Regular'" font-size="7px">r</text>
</svg>
