<?xml version="1.0" encoding="utf-8"?>
<!-- Generator: Adobe Illustrator 21.0.2, SVG Export Plug-In . SVG Version: 6.00 Build 0)  -->
<svg version="1.1" id="Layer_1" xmlns="http://www.w3.org/2000/svg" xmlns:xlink="http://www.w3.org/1999/xlink" x="0px" y="0px"
	 viewBox="0 0 153.16 147.33" enable-background="new 0 0 153.16 147.33" xml:space="preserve">
<line fill="none" stroke="#000000" stroke-width="0.2742" stroke-miterlimit="10" x1="10.5" y1="19.93" x2="17" y2="19.93"/>
<line fill="none" stroke="#000000" stroke-width="0.2742" stroke-miterlimit="10" x1="10.5" y1="24.9" x2="17" y2="24.9"/>
<line fill="none" stroke="#000000" stroke-width="0.2742" stroke-miterlimit="10" x1="13.75" y1="19.93" x2="13.75" y2="24.9"/>
<g>
	<line fill="none" stroke="#000000" stroke-width="0.2742" stroke-miterlimit="10" x1="125.33" y1="128.67" x2="69.7" y2="128.67"/>
	<line fill="none" stroke="#000000" stroke-width="0.2742" stroke-miterlimit="10" x1="69.7" y1="125.67" x2="69.7" y2="132.17"/>
	
		<line fill="none" stroke="#000000" stroke-width="0.2742" stroke-miterlimit="10" x1="125.33" y1="125.67" x2="125.33" y2="132.17"/>
</g>
<g>
	
		<line fill="none" stroke="#000000" stroke-width="0.2742" stroke-miterlimit="10" x1="134.71" y1="19.93" x2="134.71" y2="117.06"/>
	
		<line fill="none" stroke="#000000" stroke-width="0.2742" stroke-miterlimit="10" x1="131.71" y1="117.06" x2="138.21" y2="117.06"/>
	<line fill="none" stroke="#000000" stroke-width="0.2742" stroke-miterlimit="10" x1="131.71" y1="19.93" x2="138.21" y2="19.93"/>
</g>
<g>
	<line fill="none" stroke="#000000" stroke-width="0.2742" stroke-miterlimit="10" x1="91.3" y1="19.93" x2="91.3" y2="107.77"/>
	<line fill="none" stroke="#000000" stroke-width="0.2742" stroke-miterlimit="10" x1="88.3" y1="107.77" x2="94.8" y2="107.77"/>
	<line fill="none" stroke="#000000" stroke-width="0.2742" stroke-miterlimit="10" x1="88.3" y1="19.93" x2="94.8" y2="19.93"/>
</g>
<path fill="#EF3F54" stroke="#000000" stroke-width="0.5624" stroke-miterlimit="10" d="M125.33,114.39v2H69.71V28.56
	c0-2.02-1.64-3.66-3.66-3.66H22c-1.64,0-2.97-1.33-2.97-2.97v-2h55.62v87.84c0,2.02,1.64,3.65,3.66,3.65h44.05
	C124,111.42,125.33,112.75,125.33,114.39z"/>
<g>
	<line fill="none" stroke="#000000" stroke-width="0.2742" stroke-miterlimit="10" x1="69.59" y1="54.75" x2="78.93" y2="54.75"/>
	<line fill="none" stroke="#000000" stroke-width="0.2742" stroke-miterlimit="10" x1="75.6" y1="57.31" x2="73.7" y2="51.69"/>
	<line fill="none" stroke="#000000" stroke-width="0.2742" stroke-miterlimit="10" x1="70.54" y1="57.31" x2="68.64" y2="51.69"/>
</g>
<line fill="none" stroke="#000000" stroke-width="0.2742" stroke-miterlimit="10" x1="16.38" y1="28" x2="20.2" y2="24.18"/>
<line fill="none" stroke="#000000" stroke-width="0.2742" stroke-miterlimit="10" x1="63.71" y1="29.5" x2="67.83" y2="25.38"/>
<g>
	<g>
		<g>
			<line fill="none" stroke="#000000" stroke-width="0.2742" stroke-miterlimit="10" x1="72.69" y1="65.86" x2="71.19" y2="65.86"/>
			
				<line fill="none" stroke="#000000" stroke-width="0.2742" stroke-miterlimit="10" stroke-dasharray="2.9924,0.9975" x1="70.2" y1="65.86" x2="30.8" y2="65.86"/>
			<line fill="none" stroke="#000000" stroke-width="0.2742" stroke-miterlimit="10" x1="30.3" y1="65.86" x2="28.8" y2="65.86"/>
		</g>
	</g>
	<g>
		<g>
			
				<line fill="none" stroke="#000000" stroke-width="0.2742" stroke-miterlimit="10" x1="72.69" y1="142.56" x2="72.69" y2="141.06"/>
			
				<line fill="none" stroke="#000000" stroke-width="0.2742" stroke-miterlimit="10" stroke-dasharray="3.0291,1.0097" x1="72.69" y1="140.05" x2="72.69" y2="67.86"/>
			<line fill="none" stroke="#000000" stroke-width="0.2742" stroke-miterlimit="10" x1="72.69" y1="67.36" x2="72.69" y2="65.86"/>
		</g>
	</g>
	<line fill="none" stroke="#000000" stroke-width="0.1939" stroke-miterlimit="10" x1="34.05" y1="64.23" x2="28.8" y2="65.86"/>
	<line fill="none" stroke="#000000" stroke-width="0.1939" stroke-miterlimit="10" x1="34.05" y1="67.48" x2="28.8" y2="65.86"/>
	<line fill="none" stroke="#000000" stroke-width="0.1939" stroke-miterlimit="10" x1="34.05" y1="64.23" x2="34.05" y2="67.48"/>
	<line fill="none" stroke="#000000" stroke-width="0.1939" stroke-miterlimit="10" x1="71.07" y1="137.31" x2="72.69" y2="142.56"/>
	<line fill="none" stroke="#000000" stroke-width="0.1939" stroke-miterlimit="10" x1="74.32" y1="137.31" x2="72.69" y2="142.56"/>
	<line fill="none" stroke="#000000" stroke-width="0.1939" stroke-miterlimit="10" x1="71.07" y1="137.31" x2="74.32" y2="137.31"/>
	<text transform="matrix(1 0 0 1 35.6607 72.6055)" font-family="'MyriadPro-Regular'" font-size="8.4928px">y</text>
	<text transform="matrix(1 0 0 1 77.3228 141.8128)" font-family="'MyriadPro-Regular'" font-size="8.4928px">z</text>
</g>
<g>
	<g>
		<g>
			<line fill="none" stroke="#000000" stroke-width="0.2742" stroke-miterlimit="10" x1="72.62" y1="65.86" x2="71.72" y2="67.06"/>
			
				<line fill="none" stroke="#000000" stroke-width="0.2742" stroke-miterlimit="10" stroke-dasharray="2.9924,0.9975" x1="71.13" y1="67.86" x2="47.55" y2="99.42"/>
			
				<line fill="none" stroke="#000000" stroke-width="0.2742" stroke-miterlimit="10" x1="47.25" y1="99.82" x2="46.35" y2="101.02"/>
		</g>
	</g>
	<g>
		<g>
			
				<line fill="none" stroke="#000000" stroke-width="0.2742" stroke-miterlimit="10" x1="134.07" y1="111.77" x2="132.87" y2="110.87"/>
			
				<line fill="none" stroke="#000000" stroke-width="0.2742" stroke-miterlimit="10" stroke-dasharray="3.0291,1.0097" x1="132.06" y1="110.26" x2="74.23" y2="67.06"/>
			<line fill="none" stroke="#000000" stroke-width="0.2742" stroke-miterlimit="10" x1="73.82" y1="66.75" x2="72.62" y2="65.86"/>
		</g>
	</g>
	<line fill="none" stroke="#000000" stroke-width="0.1939" stroke-miterlimit="10" x1="48.19" y1="95.84" x2="46.35" y2="101.02"/>
	<line fill="none" stroke="#000000" stroke-width="0.1939" stroke-miterlimit="10" x1="50.79" y1="97.79" x2="46.35" y2="101.02"/>
	<line fill="none" stroke="#000000" stroke-width="0.1939" stroke-miterlimit="10" x1="48.19" y1="95.84" x2="50.79" y2="97.79"/>
	
		<line fill="none" stroke="#000000" stroke-width="0.1939" stroke-miterlimit="10" x1="128.89" y1="109.93" x2="134.07" y2="111.77"/>
	
		<line fill="none" stroke="#000000" stroke-width="0.1939" stroke-miterlimit="10" x1="130.84" y1="107.32" x2="134.07" y2="111.77"/>
	
		<line fill="none" stroke="#000000" stroke-width="0.1939" stroke-miterlimit="10" x1="128.89" y1="109.93" x2="130.84" y2="107.32"/>
	<text transform="matrix(0.5985 -0.8011 0.8011 0.5985 55.8806 99.5225)" font-family="'MyriadPro-Regular'" font-size="8.4928px">η</text>
	
		<text transform="matrix(0.5985 -0.8011 0.8011 0.5985 129.5498 104.1934)" font-family="'MyriadPro-Regular'" font-size="8.4928px">ζ</text>
</g>
<text transform="matrix(1 0 0 1 94.7958 136.944)" font-family="'MyriadPro-Regular'" font-size="7px">b</text>
<text transform="matrix(1 0 0 1 3.6222 25.2219)" font-family="'MyriadPro-Regular'" font-size="7px">tf</text>
<text transform="matrix(1 0 0 1 79.4626 51.1716)" font-family="'MyriadPro-Regular'" font-size="7px">tw</text>
<text transform="matrix(1 0 0 1 94.796 62.6716)" font-family="'MyriadPro-Regular'" font-size="7px">h1</text>
<text transform="matrix(1 0 0 1 138.2127 68.4962)" font-family="'MyriadPro-Regular'" font-size="7px">h</text>
<text transform="matrix(1 0 0 1 56.8571 40.3554)" font-family="'MyriadPro-Regular'" font-size="7px">r1</text>
<text transform="matrix(1 0 0 1 13.7542 36.3553)" font-family="'MyriadPro-Regular'" font-size="7px">r2</text>
<path fill="none" stroke="#000000" stroke-width="0.2742" stroke-miterlimit="10" d="M60.88,65.86c0,3.65,1.66,6.9,4.27,9.06"/>
<text transform="matrix(1 0 0 1 56.8572 74.5404)" font-family="'MyriadPro-Regular'" font-size="6.9826px">α</text>
</svg>
