<?xml version="1.0" encoding="utf-8"?>
<!-- Generator: Adobe Illustrator 21.0.2, SVG Export Plug-In . SVG Version: 6.00 Build 0)  -->
<svg version="1.1" id="Layer_1" xmlns="http://www.w3.org/2000/svg" xmlns:xlink="http://www.w3.org/1999/xlink" x="0px" y="0px"
	 viewBox="0 0 171.3 193.33" enable-background="new 0 0 171.3 193.33" xml:space="preserve">
<g>
	<line fill="none" stroke="#000000" stroke-width="0.2742" stroke-miterlimit="10" x1="44.92" y1="20.17" x2="129.15" y2="20.17"/>
	<line fill="none" stroke="#000000" stroke-width="0.2742" stroke-miterlimit="10" x1="129.15" y1="23.17" x2="129.15" y2="16.67"/>
	<line fill="none" stroke="#000000" stroke-width="0.2742" stroke-miterlimit="10" x1="44.92" y1="23.17" x2="44.92" y2="16.67"/>
</g>
<g>
	
		<line fill="none" stroke="#000000" stroke-width="0.2742" stroke-miterlimit="10" x1="145.26" y1="180.15" x2="145.26" y2="26.67"/>
	<line fill="none" stroke="#000000" stroke-width="0.2742" stroke-miterlimit="10" x1="148.26" y1="26.67" x2="141.76" y2="26.67"/>
	
		<line fill="none" stroke="#000000" stroke-width="0.2742" stroke-miterlimit="10" x1="148.26" y1="180.15" x2="141.76" y2="180.15"/>
</g>
<line fill="none" stroke="#000000" stroke-width="0.2742" stroke-miterlimit="10" x1="58.52" y1="40.51" x2="68.56" y2="50.33"/>
<path fill="#EF3F54" stroke="#000000" stroke-width="0.9719" stroke-miterlimit="10" d="M50.16,39.24v126.63
	c0,3.4,2.76,6.16,6.16,6.16l69.27,2.54c2.02,0.17,3.57,3.55,3.57,5.57l0,0H44.92V24.68h84.23v0c0,2.02-1.55,5.69-3.57,5.86
	l-69.27,2.54C52.92,33.08,50.16,35.84,50.16,39.24z"/>
<line fill="none" stroke="#000000" stroke-width="0.2742" stroke-miterlimit="10" x1="45.41" y1="115.32" x2="61.41" y2="115.32"/>
<line fill="none" stroke="#000000" stroke-width="0.2742" stroke-miterlimit="10" x1="55.7" y1="117.88" x2="52.45" y2="112.26"/>
<line fill="none" stroke="#000000" stroke-width="0.2742" stroke-miterlimit="10" x1="47.03" y1="117.88" x2="43.78" y2="112.26"/>
<g>
	<line fill="none" stroke="#000000" stroke-width="0.2227" stroke-miterlimit="10" x1="86.15" y1="32.22" x2="86.15" y2="24.98"/>
	<line fill="none" stroke="#000000" stroke-width="0.2227" stroke-miterlimit="10" x1="88.71" y1="23.91" x2="83.08" y2="26.05"/>
	<line fill="none" stroke="#000000" stroke-width="0.2227" stroke-miterlimit="10" x1="88.71" y1="31.15" x2="83.08" y2="33.29"/>
</g>
<text transform="matrix(1 0 0 1 133.7156 110.6666)" font-family="'MyriadPro-Regular'" font-size="7px">h</text>
<text transform="matrix(1 0 0 1 77.3427 14.6665)" font-family="'MyriadPro-Regular'" font-size="7px">b</text>
<text transform="matrix(1 0 0 1 86.5476 44.5001)" font-family="'MyriadPro-Regular'" font-size="7px">tf</text>
<text transform="matrix(1 0 0 1 66.6601 116.7572)" font-family="'MyriadPro-Regular'" font-size="7px">tw</text>
<text transform="matrix(1 0 0 1 70.0831 55.1738)" font-family="'MyriadPro-Regular'" font-size="7px">r1</text>
<line fill="none" stroke="#000000" stroke-width="0.2742" stroke-miterlimit="10" x1="128.02" y1="34.51" x2="138.06" y2="44.33"/>
<text transform="matrix(1 0 0 1 129.4581 49.9238)" font-family="'MyriadPro-Regular'" font-size="7px">r2</text>
<g>
	<g>
		<g>
			<line fill="none" stroke="#000000" stroke-width="0.2742" stroke-miterlimit="10" x1="86.62" y1="99.92" x2="85.12" y2="99.92"/>
			
				<line fill="none" stroke="#000000" stroke-width="0.2742" stroke-miterlimit="10" stroke-dasharray="3.0419,1.014" x1="84.11" y1="99.92" x2="7.55" y2="99.92"/>
			<line fill="none" stroke="#000000" stroke-width="0.2742" stroke-miterlimit="10" x1="7.05" y1="99.92" x2="5.55" y2="99.92"/>
		</g>
	</g>
	<g>
		<g>
			
				<line fill="none" stroke="#000000" stroke-width="0.2742" stroke-miterlimit="10" x1="86.62" y1="143.92" x2="86.62" y2="142.42"/>
			
				<line fill="none" stroke="#000000" stroke-width="0.2742" stroke-miterlimit="10" stroke-dasharray="3,1" x1="86.62" y1="141.42" x2="86.62" y2="101.92"/>
			
				<line fill="none" stroke="#000000" stroke-width="0.2742" stroke-miterlimit="10" x1="86.62" y1="101.42" x2="86.62" y2="99.92"/>
		</g>
	</g>
	<line fill="none" stroke="#000000" stroke-width="0.1939" stroke-miterlimit="10" x1="10.8" y1="98.29" x2="5.55" y2="99.92"/>
	<line fill="none" stroke="#000000" stroke-width="0.1939" stroke-miterlimit="10" x1="10.8" y1="101.54" x2="5.55" y2="99.92"/>
	<line fill="none" stroke="#000000" stroke-width="0.1939" stroke-miterlimit="10" x1="10.8" y1="98.29" x2="10.8" y2="101.54"/>
	<line fill="none" stroke="#000000" stroke-width="0.1939" stroke-miterlimit="10" x1="85" y1="138.67" x2="86.62" y2="143.92"/>
	<line fill="none" stroke="#000000" stroke-width="0.1939" stroke-miterlimit="10" x1="88.25" y1="138.67" x2="86.62" y2="143.92"/>
	<line fill="none" stroke="#000000" stroke-width="0.1939" stroke-miterlimit="10" x1="85" y1="138.67" x2="88.25" y2="138.67"/>
	<text transform="matrix(1 0 0 1 5.5476 107.5)" font-family="'MyriadPro-Regular'" font-size="8.4928px">y</text>
	<text transform="matrix(1 0 0 1 84.999 149.1667)" font-family="'MyriadPro-Regular'" font-size="8.4928px">z</text>
</g>
<circle cx="22.13" cy="99.83" r="2.67"/>
<text transform="matrix(1 0 0 1 19.2976 94.6668)" font-family="'MyriadPro-Regular'" font-size="7px">M</text>
<text transform="matrix(1 0 0 1 27.0476 141.6667)"><tspan x="0" y="0" font-family="'MyriadPro-Regular'" font-size="7px">y </tspan><tspan x="4.78" y="4" font-family="'MyriadPro-Regular'" font-size="7px">M</tspan></text>
<g>
	<line fill="none" stroke="#000000" stroke-width="0.2382" stroke-miterlimit="10" x1="23.24" y1="136.17" x2="86.8" y2="136.17"/>
	<line fill="none" stroke="#000000" stroke-width="0.2382" stroke-miterlimit="10" x1="88.42" y1="138.73" x2="85.17" y2="133.1"/>
	<line fill="none" stroke="#000000" stroke-width="0.2382" stroke-miterlimit="10" x1="24.86" y1="138.73" x2="21.61" y2="133.1"/>
</g>
<text transform="matrix(1 0 0 1 89.7976 187.2671)"><tspan x="0" y="0" font-family="'MyriadPro-Regular'" font-size="7px">e </tspan><tspan x="4.99" y="4" font-family="'MyriadPro-Regular'" font-size="7px">z</tspan></text>
<g>
	<line fill="none" stroke="#000000" stroke-width="0.193" stroke-miterlimit="10" x1="45.61" y1="186.42" x2="87.36" y2="186.42"/>
	<line fill="none" stroke="#000000" stroke-width="0.193" stroke-miterlimit="10" x1="88.42" y1="188.98" x2="86.29" y2="183.35"/>
	<line fill="none" stroke="#000000" stroke-width="0.193" stroke-miterlimit="10" x1="46.68" y1="188.98" x2="44.55" y2="183.35"/>
</g>
</svg>
