<?xml version="1.0" encoding="utf-8"?>
<!-- Generator: Adobe Illustrator 21.0.2, SVG Export Plug-In . SVG Version: 6.00 Build 0)  -->
<svg version="1.1" id="Layer_1" xmlns="http://www.w3.org/2000/svg" xmlns:xlink="http://www.w3.org/1999/xlink" x="0px" y="0px"
	 viewBox="0 0 133.33 138" enable-background="new 0 0 133.33 138" xml:space="preserve">
<path fill="#EF3F54" stroke="#000000" stroke-miterlimit="10" d="M101.84,29.66V23H34.5v6.67h28.05c1.33,0,2.42,1.08,2.42,2.42
	v78.17c0,1.33-1.08,2.42-2.42,2.42H34.5v6.67h67.33v-6.67H73.79c-1.33,0-2.42-1.08-2.42-2.42V32.08c0-1.33,1.08-2.42,2.42-2.42
	H101.84z"/>
<line fill="none" stroke="#000000" stroke-width="0.2078" stroke-miterlimit="10" x1="109.25" y1="25.83" x2="115.75" y2="25.83"/>
<line fill="none" stroke="#000000" stroke-width="0.2742" stroke-miterlimit="10" x1="109.25" y1="29.66" x2="115.75" y2="29.66"/>
<g>
	<line fill="none" stroke="#000000" stroke-width="0.2742" stroke-miterlimit="10" x1="34.5" y1="15.67" x2="101.84" y2="15.67"/>
	<line fill="none" stroke="#000000" stroke-width="0.2742" stroke-miterlimit="10" x1="101.84" y1="18.67" x2="101.84" y2="12.17"/>
	<line fill="none" stroke="#000000" stroke-width="0.2742" stroke-miterlimit="10" x1="34.5" y1="18.67" x2="34.5" y2="12.17"/>
</g>
<g>
	<line fill="none" stroke="#000000" stroke-width="0.2826" stroke-miterlimit="10" x1="16.84" y1="119.34" x2="16.84" y2="23"/>
	<line fill="none" stroke="#000000" stroke-width="0.2826" stroke-miterlimit="10" x1="19.84" y1="23" x2="13.34" y2="23"/>
	<line fill="none" stroke="#000000" stroke-width="0.2826" stroke-miterlimit="10" x1="19.84" y1="119.34" x2="13.34" y2="119.34"/>
</g>
<line fill="none" stroke="#000000" stroke-width="0.2742" stroke-miterlimit="10" x1="63.84" y1="63.89" x2="79.84" y2="63.89"/>
<line fill="none" stroke="#000000" stroke-width="0.2742" stroke-miterlimit="10" x1="74.13" y1="66.45" x2="70.88" y2="60.82"/>
<line fill="none" stroke="#000000" stroke-width="0.2742" stroke-miterlimit="10" x1="65.46" y1="66.45" x2="62.21" y2="60.82"/>
<line fill="none" stroke="#000000" stroke-width="0.2078" stroke-miterlimit="10" x1="112.5" y1="25.83" x2="112.5" y2="29.66"/>
<line fill="none" stroke="#000000" stroke-width="0.2742" stroke-miterlimit="10" x1="71.83" y1="30.67" x2="83" y2="40.5"/>
<g>
	<g>
		<g>
			<line fill="none" stroke="#000000" stroke-width="0.2742" stroke-miterlimit="10" x1="67.81" y1="70.79" x2="66.31" y2="70.79"/>
			
				<line fill="none" stroke="#000000" stroke-width="0.2742" stroke-miterlimit="10" stroke-dasharray="3.0488,1.0163" x1="65.3" y1="70.79" x2="25.15" y2="70.79"/>
			<line fill="none" stroke="#000000" stroke-width="0.2742" stroke-miterlimit="10" x1="24.65" y1="70.79" x2="23.15" y2="70.79"/>
		</g>
	</g>
	<g>
		<g>
			
				<line fill="none" stroke="#000000" stroke-width="0.2742" stroke-miterlimit="10" x1="67.81" y1="114.79" x2="67.81" y2="113.29"/>
			
				<line fill="none" stroke="#000000" stroke-width="0.2742" stroke-miterlimit="10" stroke-dasharray="3,1" x1="67.81" y1="112.29" x2="67.81" y2="72.79"/>
			<line fill="none" stroke="#000000" stroke-width="0.2742" stroke-miterlimit="10" x1="67.81" y1="72.29" x2="67.81" y2="70.79"/>
		</g>
	</g>
	<line fill="none" stroke="#000000" stroke-width="0.1939" stroke-miterlimit="10" x1="28.4" y1="69.17" x2="23.15" y2="70.79"/>
	<line fill="none" stroke="#000000" stroke-width="0.1939" stroke-miterlimit="10" x1="28.4" y1="72.42" x2="23.15" y2="70.79"/>
	<line fill="none" stroke="#000000" stroke-width="0.1939" stroke-miterlimit="10" x1="28.4" y1="69.17" x2="28.4" y2="72.42"/>
	<line fill="none" stroke="#000000" stroke-width="0.1939" stroke-miterlimit="10" x1="66.19" y1="109.54" x2="67.81" y2="114.79"/>
	<line fill="none" stroke="#000000" stroke-width="0.1939" stroke-miterlimit="10" x1="69.44" y1="109.54" x2="67.81" y2="114.79"/>
	<line fill="none" stroke="#000000" stroke-width="0.1939" stroke-miterlimit="10" x1="66.19" y1="109.54" x2="69.44" y2="109.54"/>
	<text transform="matrix(1 0 0 1 38.6458 67.5409)" font-family="'MyriadPro-Regular'" font-size="8.4928px">y</text>
	<text transform="matrix(1 0 0 1 65.6909 103.541)" font-family="'MyriadPro-Regular'" font-size="8.4928px">z</text>
</g>
<text transform="matrix(1 0 0 1 7.2498 85.75)" font-family="'MyriadPro-Regular'" font-size="7px">h</text>
<text transform="matrix(1 0 0 1 66.1876 11.9165)" font-family="'MyriadPro-Regular'" font-size="7px">b</text>
<text transform="matrix(1 0 0 1 119.4167 28.8314)" font-family="'MyriadPro-Regular'" font-size="7px">tf</text>
<text transform="matrix(1 0 0 1 85.2855 66.6668)" font-family="'MyriadPro-Regular'" font-size="7px">tw</text>
<text transform="matrix(1 0 0 1 85.2855 46.0417)" font-family="'MyriadPro-Regular'" font-size="7px">r</text>
</svg>
