<?xml version="1.0" encoding="utf-8"?>
<!-- Generator: Adobe Illustrator 21.0.2, SVG Export Plug-In . SVG Version: 6.00 Build 0)  -->
<svg version="1.1" id="Layer_1" xmlns="http://www.w3.org/2000/svg" xmlns:xlink="http://www.w3.org/1999/xlink" x="0px" y="0px"
	 viewBox="0 0 170.55 193.33" enable-background="new 0 0 170.55 193.33" xml:space="preserve">
<g>
	<line fill="none" stroke="#000000" stroke-width="0.2742" stroke-miterlimit="10" x1="50.44" y1="20.17" x2="146.9" y2="20.17"/>
	<line fill="none" stroke="#000000" stroke-width="0.2742" stroke-miterlimit="10" x1="146.9" y1="23.17" x2="146.9" y2="16.67"/>
	<line fill="none" stroke="#000000" stroke-width="0.2742" stroke-miterlimit="10" x1="50.44" y1="23.17" x2="50.44" y2="16.67"/>
</g>
<g>
	<line fill="none" stroke="#000000" stroke-width="0.2742" stroke-miterlimit="10" x1="154.1" y1="178.45" x2="154.1" y2="26.67"/>
	<line fill="none" stroke="#000000" stroke-width="0.2742" stroke-miterlimit="10" x1="157.1" y1="26.67" x2="150.6" y2="26.67"/>
	<line fill="none" stroke="#000000" stroke-width="0.2742" stroke-miterlimit="10" x1="157.1" y1="178.45" x2="150.6" y2="178.45"/>
</g>
<g>
	<line fill="none" stroke="#000000" stroke-width="0.2742" stroke-miterlimit="10" x1="34.88" y1="35.91" x2="34.88" y2="26.67"/>
	<line fill="none" stroke="#000000" stroke-width="0.2742" stroke-miterlimit="10" x1="37.88" y1="26.67" x2="31.38" y2="26.67"/>
	<line fill="none" stroke="#000000" stroke-width="0.2742" stroke-miterlimit="10" x1="37.88" y1="35.91" x2="31.38" y2="35.91"/>
</g>
<line fill="none" stroke="#000000" stroke-width="0.2742" stroke-miterlimit="10" x1="64.04" y1="40.51" x2="74.08" y2="50.33"/>
<path fill="#EF3F54" stroke="#000000" stroke-width="0.9719" stroke-miterlimit="10" d="M56.51,42.08v120.96
	c0,3.4,2.76,6.16,6.16,6.16h84.23v9.25H50.44V26.67h96.46v9.25H62.67C59.27,35.91,56.51,38.67,56.51,42.08z"/>
<line fill="none" stroke="#000000" stroke-width="0.2742" stroke-miterlimit="10" x1="50.92" y1="115.32" x2="66.92" y2="115.32"/>
<line fill="none" stroke="#000000" stroke-width="0.2742" stroke-miterlimit="10" x1="58.13" y1="117.88" x2="54.88" y2="112.26"/>
<line fill="none" stroke="#000000" stroke-width="0.2742" stroke-miterlimit="10" x1="52.55" y1="117.88" x2="49.3" y2="112.26"/>
<g>
	<g>
		<g>
			<line fill="none" stroke="#000000" stroke-width="0.2742" stroke-miterlimit="10" x1="91.83" y1="99.92" x2="90.33" y2="99.92"/>
			
				<line fill="none" stroke="#000000" stroke-width="0.2742" stroke-miterlimit="10" stroke-dasharray="3.0419,1.014" x1="89.31" y1="99.92" x2="12.76" y2="99.92"/>
			<line fill="none" stroke="#000000" stroke-width="0.2742" stroke-miterlimit="10" x1="12.25" y1="99.92" x2="10.75" y2="99.92"/>
		</g>
	</g>
	<g>
		<g>
			
				<line fill="none" stroke="#000000" stroke-width="0.2742" stroke-miterlimit="10" x1="91.83" y1="143.92" x2="91.83" y2="142.42"/>
			
				<line fill="none" stroke="#000000" stroke-width="0.2742" stroke-miterlimit="10" stroke-dasharray="3,1" x1="91.83" y1="141.42" x2="91.83" y2="101.92"/>
			
				<line fill="none" stroke="#000000" stroke-width="0.2742" stroke-miterlimit="10" x1="91.83" y1="101.42" x2="91.83" y2="99.92"/>
		</g>
	</g>
	<line fill="none" stroke="#000000" stroke-width="0.1939" stroke-miterlimit="10" x1="16" y1="98.29" x2="10.75" y2="99.92"/>
	<line fill="none" stroke="#000000" stroke-width="0.1939" stroke-miterlimit="10" x1="16" y1="101.54" x2="10.75" y2="99.92"/>
	<line fill="none" stroke="#000000" stroke-width="0.1939" stroke-miterlimit="10" x1="16" y1="98.29" x2="16" y2="101.54"/>
	<line fill="none" stroke="#000000" stroke-width="0.1939" stroke-miterlimit="10" x1="90.2" y1="138.67" x2="91.83" y2="143.92"/>
	<line fill="none" stroke="#000000" stroke-width="0.1939" stroke-miterlimit="10" x1="93.45" y1="138.67" x2="91.83" y2="143.92"/>
	<line fill="none" stroke="#000000" stroke-width="0.1939" stroke-miterlimit="10" x1="90.2" y1="138.67" x2="93.45" y2="138.67"/>
	<text transform="matrix(1 0 0 1 10.75 107.5)" font-family="'MyriadPro-Regular'" font-size="8.4928px">y</text>
	<text transform="matrix(1 0 0 1 90.2014 149.1667)" font-family="'MyriadPro-Regular'" font-size="8.4928px">z</text>
</g>
<text transform="matrix(1 0 0 1 145.918 110.6666)" font-family="'MyriadPro-Regular'" font-size="7px">h</text>
<text transform="matrix(1 0 0 1 91.0451 16.1665)" font-family="'MyriadPro-Regular'" font-size="7px">b</text>
<text transform="matrix(1 0 0 1 39.75 32.0001)" font-family="'MyriadPro-Regular'" font-size="7px">tf</text>
<text transform="matrix(1 0 0 1 69.3625 116.7572)" font-family="'MyriadPro-Regular'" font-size="7px">tw</text>
<text transform="matrix(1 0 0 1 81.2855 50.6738)" font-family="'MyriadPro-Regular'" font-size="7px">r</text>
<circle cx="27.33" cy="99.83" r="2.67"/>
<text transform="matrix(1 0 0 1 24.5 94.6668)" font-family="'MyriadPro-Regular'" font-size="7px">M</text>
<text transform="matrix(1 0 0 1 32.25 141.6667)"><tspan x="0" y="0" font-family="'MyriadPro-Regular'" font-size="7px">y </tspan><tspan x="4.78" y="4" font-family="'MyriadPro-Regular'" font-size="7px">M</tspan></text>
<g>
	<line fill="none" stroke="#000000" stroke-width="0.2382" stroke-miterlimit="10" x1="28.44" y1="136.17" x2="92" y2="136.17"/>
	<line fill="none" stroke="#000000" stroke-width="0.2382" stroke-miterlimit="10" x1="93.63" y1="138.73" x2="90.38" y2="133.1"/>
	<line fill="none" stroke="#000000" stroke-width="0.2382" stroke-miterlimit="10" x1="30.06" y1="138.73" x2="26.81" y2="133.1"/>
</g>
<text transform="matrix(1 0 0 1 95 186.4167)"><tspan x="0" y="0" font-family="'MyriadPro-Regular'" font-size="7px">e </tspan><tspan x="4.99" y="4" font-family="'MyriadPro-Regular'" font-size="7px">z</tspan></text>
<g>
	<line fill="none" stroke="#000000" stroke-width="0.193" stroke-miterlimit="10" x1="50.82" y1="186.42" x2="92.56" y2="186.42"/>
	<line fill="none" stroke="#000000" stroke-width="0.193" stroke-miterlimit="10" x1="93.63" y1="188.98" x2="91.49" y2="183.35"/>
	<line fill="none" stroke="#000000" stroke-width="0.193" stroke-miterlimit="10" x1="51.88" y1="188.98" x2="49.75" y2="183.35"/>
</g>
</svg>
