<?xml version="1.0" encoding="utf-8"?>
<!-- Generator: Adobe Illustrator 21.0.2, SVG Export Plug-In . SVG Version: 6.00 Build 0)  -->
<svg version="1.1" id="Layer_1" xmlns="http://www.w3.org/2000/svg" xmlns:xlink="http://www.w3.org/1999/xlink" x="0px" y="0px"
	 viewBox="0 0 142.67 136.67" enable-background="new 0 0 142.67 136.67" xml:space="preserve">
<g>
	
		<line fill="none" stroke="#000000" stroke-width="0.2742" stroke-miterlimit="10" x1="116.81" y1="119.33" x2="27.43" y2="119.33"/>
	<line fill="none" stroke="#000000" stroke-width="0.2742" stroke-miterlimit="10" x1="27.43" y1="116.33" x2="27.43" y2="122.83"/>
	
		<line fill="none" stroke="#000000" stroke-width="0.2742" stroke-miterlimit="10" x1="116.81" y1="116.33" x2="116.81" y2="122.83"/>
</g>
<path fill="#EF3F54" stroke="#000000" stroke-width="0.5624" stroke-miterlimit="10" d="M72.17,16.35h-0.03
	c-12.34,0-23.5,5-31.58,13.08S27.47,48.71,27.47,61.02c0,24.66,20.01,44.67,44.67,44.67h0.03c12.31,0,23.48-5,31.56-13.08
	s13.08-19.27,13.08-31.58C116.81,36.36,96.83,16.35,72.17,16.35z M99.91,88.76c-7.09,7.09-16.91,11.49-27.74,11.49h-0.03
	c-21.66,0-39.23-17.57-39.23-39.23c0-10.83,4.4-20.64,11.49-27.74c7.09-7.09,16.91-11.49,27.74-11.49h0.03
	c21.66,0,39.23,17.57,39.23,39.23C111.4,71.85,107,81.66,99.91,88.76z"/>
<g>
	<line fill="none" stroke="#000000" stroke-width="0.2742" stroke-miterlimit="10" x1="27.62" y1="64.09" x2="36.96" y2="64.09"/>
	<line fill="none" stroke="#000000" stroke-width="0.2742" stroke-miterlimit="10" x1="33.63" y1="66.65" x2="31.73" y2="61.02"/>
	<line fill="none" stroke="#000000" stroke-width="0.2742" stroke-miterlimit="10" x1="28.57" y1="66.65" x2="26.67" y2="61.02"/>
</g>
<g>
	<g>
		<g>
			<line fill="none" stroke="#000000" stroke-width="0.2742" stroke-miterlimit="10" x1="75.81" y1="56.79" x2="74.31" y2="56.79"/>
			
				<line fill="none" stroke="#000000" stroke-width="0.2742" stroke-miterlimit="10" stroke-dasharray="2.9591,0.9864" x1="73.33" y1="56.79" x2="50.15" y2="56.79"/>
			<line fill="none" stroke="#000000" stroke-width="0.2742" stroke-miterlimit="10" x1="49.65" y1="56.79" x2="48.15" y2="56.79"/>
		</g>
	</g>
	<g>
		<g>
			<line fill="none" stroke="#000000" stroke-width="0.2742" stroke-miterlimit="10" x1="75.81" y1="86.62" x2="75.81" y2="85.12"/>
			
				<line fill="none" stroke="#000000" stroke-width="0.2742" stroke-miterlimit="10" stroke-dasharray="3.2192,1.0731" x1="75.81" y1="84.04" x2="75.81" y2="58.83"/>
			<line fill="none" stroke="#000000" stroke-width="0.2742" stroke-miterlimit="10" x1="75.81" y1="58.29" x2="75.81" y2="56.79"/>
		</g>
	</g>
	<line fill="none" stroke="#000000" stroke-width="0.1939" stroke-miterlimit="10" x1="53.4" y1="55.17" x2="48.15" y2="56.79"/>
	<line fill="none" stroke="#000000" stroke-width="0.1939" stroke-miterlimit="10" x1="53.4" y1="58.42" x2="48.15" y2="56.79"/>
	<line fill="none" stroke="#000000" stroke-width="0.1939" stroke-miterlimit="10" x1="53.4" y1="55.17" x2="53.4" y2="58.42"/>
	<line fill="none" stroke="#000000" stroke-width="0.1939" stroke-miterlimit="10" x1="74.19" y1="81.37" x2="75.81" y2="86.62"/>
	<line fill="none" stroke="#000000" stroke-width="0.1939" stroke-miterlimit="10" x1="77.44" y1="81.37" x2="75.81" y2="86.62"/>
	<line fill="none" stroke="#000000" stroke-width="0.1939" stroke-miterlimit="10" x1="74.19" y1="81.37" x2="77.44" y2="81.37"/>
	<text transform="matrix(1 0 0 1 63.6538 53.5409)" font-family="'MyriadPro-Regular'" font-size="8.4928px">y</text>
	<text transform="matrix(1 0 0 1 80.4409 85.8677)" font-family="'MyriadPro-Regular'" font-size="8.4928px">z</text>
</g>
<text transform="matrix(1 0 0 1 67.8332 127.0003)" font-family="'MyriadPro-Regular'" font-size="7px">D</text>
<text transform="matrix(1 0 0 1 38.9167 66.6663)" font-family="'MyriadPro-Regular'" font-size="7px">T</text>
</svg>
