<?xml version="1.0" encoding="utf-8"?>
<!-- Generator: Adobe Illustrator 21.0.2, SVG Export Plug-In . SVG Version: 6.00 Build 0)  -->
<svg version="1.1" id="Layer_1" xmlns="http://www.w3.org/2000/svg" xmlns:xlink="http://www.w3.org/1999/xlink" x="0px" y="0px"
	 viewBox="0 0 244.15 127.4" enable-background="new 0 0 244.15 127.4" xml:space="preserve">
<g>
	<line fill="none" stroke="#000000" stroke-width="0.2742" stroke-miterlimit="10" x1="77.95" y1="108.74" x2="22.33" y2="108.74"/>
	<line fill="none" stroke="#000000" stroke-width="0.2742" stroke-miterlimit="10" x1="22.33" y1="105.74" x2="22.33" y2="112.24"/>
	<line fill="none" stroke="#000000" stroke-width="0.2742" stroke-miterlimit="10" x1="77.95" y1="105.74" x2="77.95" y2="112.24"/>
</g>
<g>
	<line fill="none" stroke="#000000" stroke-width="0.2742" stroke-miterlimit="10" x1="13.47" y1="41.51" x2="13.47" y2="97.13"/>
	<line fill="none" stroke="#000000" stroke-width="0.2742" stroke-miterlimit="10" x1="10.47" y1="97.13" x2="16.97" y2="97.13"/>
	<line fill="none" stroke="#000000" stroke-width="0.2742" stroke-miterlimit="10" x1="10.47" y1="41.51" x2="16.97" y2="41.51"/>
</g>
<g>
	<line fill="none" stroke="#000000" stroke-width="0.1741" stroke-miterlimit="10" x1="152.27" y1="74.7" x2="152.27" y2="97.13"/>
	<line fill="none" stroke="#000000" stroke-width="0.1741" stroke-miterlimit="10" x1="149.7" y1="98.76" x2="155.33" y2="95.51"/>
	<line fill="none" stroke="#000000" stroke-width="0.1741" stroke-miterlimit="10" x1="149.7" y1="76.32" x2="155.33" y2="73.07"/>
</g>
<g>
	
		<line fill="none" stroke="#000000" stroke-width="0.1741" stroke-miterlimit="10" x1="159.02" y1="100.71" x2="181.46" y2="100.71"/>
	
		<line fill="none" stroke="#000000" stroke-width="0.1741" stroke-miterlimit="10" x1="183.09" y1="103.27" x2="179.84" y2="97.64"/>
	<line fill="none" stroke="#000000" stroke-width="0.1741" stroke-miterlimit="10" x1="160.65" y1="103.27" x2="157.4" y2="97.64"/>
</g>
<path fill="#EF3F54" stroke="#000000" stroke-width="0.5624" stroke-miterlimit="10" d="M77.95,94.46v2H22.33V42.29h1.97
	c1.64,0,2.97,1.33,2.97,2.97v42.58c0,2.02,1.64,3.66,3.66,3.66h44.05C76.62,91.49,77.95,92.82,77.95,94.46z"/>
<path fill="none" stroke="#EF3F54" stroke-width="0.5624" stroke-miterlimit="10" d="M215.43,94.46v2h-55.62V42.29h1.97
	c1.64,0,2.97,1.33,2.97,2.97v42.58c0,2.02,1.64,3.66,3.66,3.66h44.05C214.1,91.49,215.43,92.82,215.43,94.46z"/>
<g>
	<line fill="none" stroke="#000000" stroke-width="0.2742" stroke-miterlimit="10" x1="22.55" y1="74.32" x2="31.89" y2="74.32"/>
	<line fill="none" stroke="#000000" stroke-width="0.2742" stroke-miterlimit="10" x1="28.56" y1="76.89" x2="26.66" y2="71.26"/>
	<line fill="none" stroke="#000000" stroke-width="0.2742" stroke-miterlimit="10" x1="23.5" y1="76.89" x2="21.6" y2="71.26"/>
</g>
<line fill="none" stroke="#000000" stroke-width="0.2742" stroke-miterlimit="10" x1="26.17" y1="42.29" x2="30.69" y2="37.76"/>
<line fill="none" stroke="#000000" stroke-width="0.2742" stroke-miterlimit="10" x1="28.43" y1="89.74" x2="33.05" y2="85.12"/>
<g>
	<g>
		<g>
			<line fill="none" stroke="#000000" stroke-width="0.2742" stroke-miterlimit="10" x1="181.19" y1="74.7" x2="179.69" y2="74.7"/>
			
				<line fill="none" stroke="#000000" stroke-width="0.2742" stroke-miterlimit="10" stroke-dasharray="3.0764,1.0255" x1="178.67" y1="74.7" x2="134.06" y2="74.7"/>
			<line fill="none" stroke="#000000" stroke-width="0.2742" stroke-miterlimit="10" x1="133.55" y1="74.7" x2="132.05" y2="74.7"/>
		</g>
	</g>
	<g>
		<g>
			
				<line fill="none" stroke="#000000" stroke-width="0.2742" stroke-miterlimit="10" x1="181.19" y1="126.22" x2="181.19" y2="124.72"/>
			
				<line fill="none" stroke="#000000" stroke-width="0.2742" stroke-miterlimit="10" stroke-dasharray="2.971,0.9903" x1="181.19" y1="123.73" x2="181.19" y2="76.69"/>
			<line fill="none" stroke="#000000" stroke-width="0.2742" stroke-miterlimit="10" x1="181.19" y1="76.2" x2="181.19" y2="74.7"/>
		</g>
	</g>
	<line fill="none" stroke="#000000" stroke-width="0.1939" stroke-miterlimit="10" x1="137.3" y1="73.07" x2="132.05" y2="74.7"/>
	<line fill="none" stroke="#000000" stroke-width="0.1939" stroke-miterlimit="10" x1="137.3" y1="76.32" x2="132.05" y2="74.7"/>
	<line fill="none" stroke="#000000" stroke-width="0.1939" stroke-miterlimit="10" x1="137.3" y1="73.07" x2="137.3" y2="76.32"/>
	
		<line fill="none" stroke="#000000" stroke-width="0.1939" stroke-miterlimit="10" x1="179.57" y1="120.97" x2="181.19" y2="126.22"/>
	
		<line fill="none" stroke="#000000" stroke-width="0.1939" stroke-miterlimit="10" x1="182.82" y1="120.97" x2="181.19" y2="126.22"/>
	
		<line fill="none" stroke="#000000" stroke-width="0.1939" stroke-miterlimit="10" x1="179.57" y1="120.97" x2="182.82" y2="120.97"/>
	<text transform="matrix(1 0 0 1 130.5696 81.4454)" font-family="'MyriadPro-Regular'" font-size="8.4928px">y</text>
	<text transform="matrix(1 0 0 1 185.8203 125.4716)" font-family="'MyriadPro-Regular'" font-size="8.4928px">z</text>
</g>
<g>
	<g>
		<g>
			
				<line fill="none" stroke="#000000" stroke-width="0.2742" stroke-miterlimit="10" x1="180.86" y1="74.73" x2="179.82" y2="75.8"/>
			
				<line fill="none" stroke="#000000" stroke-width="0.2742" stroke-miterlimit="10" stroke-dasharray="2.9924,0.9975" x1="179.12" y1="76.52" x2="151.67" y2="104.78"/>
			
				<line fill="none" stroke="#000000" stroke-width="0.2742" stroke-miterlimit="10" x1="151.32" y1="105.13" x2="150.28" y2="106.21"/>
		</g>
	</g>
	<g>
		<g>
			
				<line fill="none" stroke="#000000" stroke-width="0.2742" stroke-miterlimit="10" x1="224.77" y1="117.39" x2="223.69" y2="116.34"/>
			
				<line fill="none" stroke="#000000" stroke-width="0.2742" stroke-miterlimit="10" stroke-dasharray="3.0641,1.0214" x1="222.96" y1="115.63" x2="182.31" y2="76.13"/>
			
				<line fill="none" stroke="#000000" stroke-width="0.2742" stroke-miterlimit="10" x1="181.94" y1="75.77" x2="180.86" y2="74.73"/>
		</g>
	</g>
	
		<line fill="none" stroke="#000000" stroke-width="0.1939" stroke-miterlimit="10" x1="152.77" y1="101.31" x2="150.28" y2="106.21"/>
	
		<line fill="none" stroke="#000000" stroke-width="0.1939" stroke-miterlimit="10" x1="155.1" y1="103.58" x2="150.28" y2="106.21"/>
	
		<line fill="none" stroke="#000000" stroke-width="0.1939" stroke-miterlimit="10" x1="152.77" y1="101.31" x2="155.1" y2="103.58"/>
	
		<line fill="none" stroke="#000000" stroke-width="0.1939" stroke-miterlimit="10" x1="219.87" y1="114.9" x2="224.77" y2="117.39"/>
	
		<line fill="none" stroke="#000000" stroke-width="0.1939" stroke-miterlimit="10" x1="222.14" y1="112.57" x2="224.77" y2="117.39"/>
	
		<line fill="none" stroke="#000000" stroke-width="0.1939" stroke-miterlimit="10" x1="219.87" y1="114.9" x2="222.14" y2="112.57"/>
	
		<text transform="matrix(0.6969 -0.7172 0.7172 0.6969 145.9965 111.2774)" font-family="'MyriadPro-Regular'" font-size="8.4928px">η</text>
	
		<text transform="matrix(0.6969 -0.7172 0.7172 0.6969 221.2572 109.3682)" font-family="'MyriadPro-Regular'" font-size="8.4928px">ζ</text>
</g>
<text transform="matrix(0.9166 0 0 1 33.8647 75.6345)" font-family="'MyriadPro-Regular'" font-size="7px">t</text>
<text transform="matrix(1 0 0 1 37.56 84.6044)" font-family="'MyriadPro-Regular'" font-size="7px">r1</text>
<text transform="matrix(1 0 0 1 49.1041 66.3684)" font-family="'MyriadPro-Regular'" font-size="7px">r2 = r1  /2</text>
<text transform="matrix(1 0 0 1 31.8932 38.5698)" font-family="'MyriadPro-Regular'" font-size="7px">r2</text>
<text transform="matrix(1 0 0 1 3.3932 74.5698)" font-family="'MyriadPro-Regular'" font-size="7px">a</text>
<text transform="matrix(1 0 0 1 46.8556 116.2365)" font-family="'MyriadPro-Regular'" font-size="7px">a</text>
<text transform="matrix(1 0 0 1 144.0696 87.1954)" font-family="'MyriadPro-Regular'" font-size="8.4928px">e</text>
<text transform="matrix(1 0 0 1 167.3196 108.6233)" font-family="'MyriadPro-Regular'" font-size="8.4928px">e</text>
<g>
	<g>
		
			<line fill="none" stroke="#000000" stroke-width="0.2742" stroke-miterlimit="10" x1="208.86" y1="45.78" x2="207.82" y2="46.86"/>
		
			<line fill="none" stroke="#000000" stroke-width="0.2742" stroke-miterlimit="10" stroke-dasharray="2.9924,0.9975" x1="207.12" y1="47.57" x2="179.67" y2="75.83"/>
		
			<line fill="none" stroke="#000000" stroke-width="0.2742" stroke-miterlimit="10" x1="179.32" y1="76.19" x2="178.27" y2="77.26"/>
	</g>
</g>
<line fill="none" stroke="#000000" stroke-width="0.1741" stroke-miterlimit="10" x1="169.76" y1="27.82" x2="162.94" y2="34.85"/>
<line fill="none" stroke="#000000" stroke-width="0.1741" stroke-miterlimit="10" x1="152.02" y1="35.07" x2="144.81" y2="28.44"/>
<line fill="none" stroke="#000000" stroke-width="0.1741" stroke-miterlimit="10" x1="119.28" y1="68.13" x2="112.07" y2="61.49"/>
<line fill="none" stroke="#000000" stroke-width="0.1741" stroke-miterlimit="10" x1="224.49" y1="83.85" x2="217.67" y2="90.88"/>
<g>
	<g>
		<line fill="none" stroke="#000000" stroke-width="0.3676" stroke-miterlimit="10" x1="164.51" y1="31.5" x2="165.95" y2="32.9"/>
		
			<line fill="none" stroke="#000000" stroke-width="0.3676" stroke-miterlimit="10" stroke-dasharray="3.9413,1.3138" x1="166.89" y1="33.81" x2="219.21" y2="84.59"/>
		
			<line fill="none" stroke="#000000" stroke-width="0.3676" stroke-miterlimit="10" x1="219.69" y1="85.05" x2="221.13" y2="86.45"/>
	</g>
</g>
<text transform="matrix(1 0 0 1 181.1017 45.6522)" font-family="'MyriadPro-Regular'" font-size="8.4928px">w</text>
<text transform="matrix(0.9948 0.1015 -0.1015 0.9948 134.4634 30.3608)" font-family="'MyriadPro-Regular'" font-size="8.4928px">v2</text>
<text transform="matrix(0.9948 0.1015 -0.1015 0.9948 114.9407 51.991)" font-family="'MyriadPro-Regular'" font-size="8.4928px">v1</text>
<text transform="matrix(1 0 0 1 207.4387 65.424)" font-family="'MyriadPro-Regular'" font-size="8.4928px">w</text>
<g>
	<g>
		
			<line fill="none" stroke="#000000" stroke-width="0.2742" stroke-miterlimit="10" x1="185.79" y1="79.51" x2="184.71" y2="78.47"/>
		
			<line fill="none" stroke="#000000" stroke-width="0.2742" stroke-miterlimit="10" stroke-dasharray="3.0291,1.0097" x1="183.99" y1="77.76" x2="132.21" y2="27.45"/>
		<line fill="none" stroke="#000000" stroke-width="0.2742" stroke-miterlimit="10" x1="131.85" y1="27.1" x2="130.77" y2="26.06"/>
	</g>
</g>
<g>
	<g>
		
			<line fill="none" stroke="#000000" stroke-width="0.2742" stroke-miterlimit="10" x1="147.14" y1="30.58" x2="146.12" y2="31.69"/>
		
			<line fill="none" stroke="#000000" stroke-width="0.2742" stroke-miterlimit="10" stroke-dasharray="2.8992,0.9664" x1="145.47" y1="32.4" x2="117.02" y2="63.35"/>
		
			<line fill="none" stroke="#000000" stroke-width="0.2742" stroke-miterlimit="10" x1="116.69" y1="63.71" x2="115.68" y2="64.81"/>
	</g>
</g>
</svg>
