
<?xml version="1.0" encoding="utf-8"?>
<!-- Generator: Adobe Illustrator 21.0.2, SVG Export Plug-In . SVG Version: 6.00 Build 0)  -->
<svg version="1.1" id="Layer_1" xmlns="http://www.w3.org/2000/svg" xmlns:xlink="http://www.w3.org/1999/xlink" x="0px" y="0px"
	 viewBox="0 0 244.15 127.4" enable-background="new 0 0 244.15 127.4" xml:space="preserve">
<path fill="none" stroke="#000000" stroke-width="0.1802" stroke-miterlimit="10" d="M182.74,68.8c0-2.4-1.09-4.54-2.8-5.95"/>
<text transform="matrix(1 0 0 1 184.233 66.1851)" font-family="'MyriadPro-Regular'" font-size="6.9826px">α</text>
<g>
	<line fill="none" stroke="#000000" stroke-width="0.2742" stroke-miterlimit="10" x1="77.95" y1="108.74" x2="22.33" y2="108.74"/>
	<line fill="none" stroke="#000000" stroke-width="0.2742" stroke-miterlimit="10" x1="22.33" y1="105.74" x2="22.33" y2="112.24"/>
	<line fill="none" stroke="#000000" stroke-width="0.2742" stroke-miterlimit="10" x1="77.95" y1="105.74" x2="77.95" y2="112.24"/>
</g>
<g>
	<line fill="none" stroke="#000000" stroke-width="0.2742" stroke-miterlimit="10" x1="13.47" y1="26.58" x2="13.47" y2="97.13"/>
	<line fill="none" stroke="#000000" stroke-width="0.2742" stroke-miterlimit="10" x1="10.47" y1="97.13" x2="16.97" y2="97.13"/>
	<line fill="none" stroke="#000000" stroke-width="0.2742" stroke-miterlimit="10" x1="10.47" y1="26.58" x2="16.97" y2="26.58"/>
</g>
<g>
	<line fill="none" stroke="#000000" stroke-width="0.1933" stroke-miterlimit="10" x1="152.27" y1="69.11" x2="152.27" y2="96.76"/>
	<line fill="none" stroke="#000000" stroke-width="0.1933" stroke-miterlimit="10" x1="149.7" y1="98.76" x2="155.33" y2="94.75"/>
	<line fill="none" stroke="#000000" stroke-width="0.1933" stroke-miterlimit="10" x1="149.7" y1="71.11" x2="155.33" y2="67.11"/>
</g>
<g>
	
		<line fill="none" stroke="#000000" stroke-width="0.1484" stroke-miterlimit="10" x1="158.58" y1="100.71" x2="174.88" y2="100.71"/>
	<line fill="none" stroke="#000000" stroke-width="0.1484" stroke-miterlimit="10" x1="176.06" y1="103.27" x2="173.7" y2="97.64"/>
	<line fill="none" stroke="#000000" stroke-width="0.1484" stroke-miterlimit="10" x1="159.76" y1="103.27" x2="157.4" y2="97.64"/>
</g>
<path fill="#EF3F54" stroke="#000000" stroke-width="0.5624" stroke-miterlimit="10" d="M77.95,94.46v2H22.33V27.36h1.97
	c1.64,0,2.97,1.33,2.97,2.97v57.5c0,2.02,1.64,3.66,3.66,3.66h44.05C76.62,91.49,77.95,92.82,77.95,94.46z"/>
<path fill="none" stroke="#EF3F54" stroke-width="0.5624" stroke-miterlimit="10" d="M215.43,94.46v2h-55.62V25.1h1.97
	c1.64,0,2.97,1.33,2.97,2.97v59.77c0,2.02,1.64,3.66,3.66,3.66h44.05C214.1,91.49,215.43,92.82,215.43,94.46z"/>
<g>
	<line fill="none" stroke="#000000" stroke-width="0.2742" stroke-miterlimit="10" x1="22.55" y1="74.32" x2="31.89" y2="74.32"/>
	<line fill="none" stroke="#000000" stroke-width="0.2742" stroke-miterlimit="10" x1="28.56" y1="76.89" x2="26.66" y2="71.26"/>
	<line fill="none" stroke="#000000" stroke-width="0.2742" stroke-miterlimit="10" x1="23.5" y1="76.89" x2="21.6" y2="71.26"/>
</g>
<line fill="none" stroke="#000000" stroke-width="0.2742" stroke-miterlimit="10" x1="26.17" y1="27.36" x2="30.69" y2="22.84"/>
<line fill="none" stroke="#000000" stroke-width="0.2742" stroke-miterlimit="10" x1="28.43" y1="89.74" x2="33.05" y2="85.12"/>
<g>
	<g>
		<g>
			
				<line fill="none" stroke="#000000" stroke-width="0.2742" stroke-miterlimit="10" x1="174.44" y1="68.74" x2="172.94" y2="68.74"/>
			
				<line fill="none" stroke="#000000" stroke-width="0.2742" stroke-miterlimit="10" stroke-dasharray="3.0764,1.0255" x1="171.91" y1="68.74" x2="127.31" y2="68.74"/>
			
				<line fill="none" stroke="#000000" stroke-width="0.2742" stroke-miterlimit="10" x1="126.79" y1="68.74" x2="125.29" y2="68.74"/>
		</g>
	</g>
	<g>
		<g>
			
				<line fill="none" stroke="#000000" stroke-width="0.2742" stroke-miterlimit="10" x1="174.44" y1="120.26" x2="174.44" y2="118.76"/>
			
				<line fill="none" stroke="#000000" stroke-width="0.2742" stroke-miterlimit="10" stroke-dasharray="2.971,0.9903" x1="174.44" y1="117.77" x2="174.44" y2="70.73"/>
			
				<line fill="none" stroke="#000000" stroke-width="0.2742" stroke-miterlimit="10" x1="174.44" y1="70.24" x2="174.44" y2="68.74"/>
		</g>
	</g>
	<line fill="none" stroke="#000000" stroke-width="0.1939" stroke-miterlimit="10" x1="130.54" y1="67.11" x2="125.29" y2="68.74"/>
	<line fill="none" stroke="#000000" stroke-width="0.1939" stroke-miterlimit="10" x1="130.54" y1="70.36" x2="125.29" y2="68.74"/>
	<line fill="none" stroke="#000000" stroke-width="0.1939" stroke-miterlimit="10" x1="130.54" y1="67.11" x2="130.54" y2="70.36"/>
	
		<line fill="none" stroke="#000000" stroke-width="0.1939" stroke-miterlimit="10" x1="172.81" y1="115.01" x2="174.44" y2="120.26"/>
	
		<line fill="none" stroke="#000000" stroke-width="0.1939" stroke-miterlimit="10" x1="176.06" y1="115.01" x2="174.44" y2="120.26"/>
	
		<line fill="none" stroke="#000000" stroke-width="0.1939" stroke-miterlimit="10" x1="172.81" y1="115.01" x2="176.06" y2="115.01"/>
	<text transform="matrix(1 0 0 1 123.8159 75.4856)" font-family="'MyriadPro-Regular'" font-size="8.4928px">y</text>
	<text transform="matrix(1 0 0 1 179.0665 119.5118)" font-family="'MyriadPro-Regular'" font-size="8.4928px">z</text>
</g>
<g>
	<g>
		<g>
			
				<line fill="none" stroke="#000000" stroke-width="0.2742" stroke-miterlimit="10" x1="174.32" y1="68.81" x2="173.27" y2="69.88"/>
			
				<line fill="none" stroke="#000000" stroke-width="0.2742" stroke-miterlimit="10" stroke-dasharray="2.9924,0.9975" x1="172.57" y1="70.59" x2="145.01" y2="98.75"/>
			
				<line fill="none" stroke="#000000" stroke-width="0.2742" stroke-miterlimit="10" x1="144.67" y1="99.11" x2="143.62" y2="100.18"/>
		</g>
	</g>
	<g>
		<g>
			
				<line fill="none" stroke="#000000" stroke-width="0.2742" stroke-miterlimit="10" x1="218.07" y1="111.63" x2="217" y2="110.58"/>
			
				<line fill="none" stroke="#000000" stroke-width="0.2742" stroke-miterlimit="10" stroke-dasharray="3.0641,1.0214" x1="216.27" y1="109.87" x2="175.76" y2="70.22"/>
			
				<line fill="none" stroke="#000000" stroke-width="0.2742" stroke-miterlimit="10" x1="175.39" y1="69.86" x2="174.32" y2="68.81"/>
		</g>
	</g>
	
		<line fill="none" stroke="#000000" stroke-width="0.1939" stroke-miterlimit="10" x1="146.13" y1="95.29" x2="143.62" y2="100.18"/>
	
		<line fill="none" stroke="#000000" stroke-width="0.1939" stroke-miterlimit="10" x1="148.45" y1="97.56" x2="143.62" y2="100.18"/>
	<line fill="none" stroke="#000000" stroke-width="0.1939" stroke-miterlimit="10" x1="146.13" y1="95.29" x2="148.45" y2="97.56"/>
	
		<line fill="none" stroke="#000000" stroke-width="0.1939" stroke-miterlimit="10" x1="213.18" y1="109.12" x2="218.07" y2="111.63"/>
	
		<line fill="none" stroke="#000000" stroke-width="0.1939" stroke-miterlimit="10" x1="215.45" y1="106.8" x2="218.07" y2="111.63"/>
	
		<line fill="none" stroke="#000000" stroke-width="0.1939" stroke-miterlimit="10" x1="213.18" y1="109.12" x2="215.45" y2="106.8"/>
	
		<text transform="matrix(0.6995 -0.7146 0.7146 0.6995 139.3554 105.2059)" font-family="'MyriadPro-Regular'" font-size="8.4928px">η</text>
	<text transform="matrix(0.6995 -0.7146 0.7146 0.6995 214.6227 103.574)" font-family="'MyriadPro-Regular'" font-size="8.4928px">ζ</text>
</g>
<text transform="matrix(0.9166 0 0 1 33.8647 75.6345)" font-family="'MyriadPro-Regular'" font-size="7px">t</text>
<text transform="matrix(1 0 0 1 37.56 84.6044)" font-family="'MyriadPro-Regular'" font-size="7px">r1</text>
<text transform="matrix(1 0 0 1 31.8932 23.6425)" font-family="'MyriadPro-Regular'" font-size="7px">r2</text>
<text transform="matrix(1 0 0 1 3.3932 74.5698)" font-family="'MyriadPro-Regular'" font-size="7px">a</text>
<text transform="matrix(1 0 0 1 46.8556 116.2365)" font-family="'MyriadPro-Regular'" font-size="7px">b</text>
<text transform="matrix(0.8963 0 0 1 140.0696 84.2136)" font-family="'MyriadPro-Regular'" font-size="10.0211px">ey</text>
<text transform="matrix(1 0 0 1 163.5696 108.2483)" font-family="'MyriadPro-Regular'" font-size="8.4928px">ez</text>
<line fill="none" stroke="#000000" stroke-width="0.1741" stroke-miterlimit="10" x1="163.39" y1="21.86" x2="156.54" y2="28.87"/>
<line fill="none" stroke="#000000" stroke-width="0.1741" stroke-miterlimit="10" x1="156.97" y1="17.17" x2="149.78" y2="10.51"/>
<line fill="none" stroke="#000000" stroke-width="0.1741" stroke-miterlimit="10" x1="232.67" y1="112.3" x2="225.48" y2="105.64"/>
<line fill="none" stroke="#000000" stroke-width="0.1741" stroke-miterlimit="10" x1="226.09" y1="119.4" x2="218.91" y2="112.74"/>
<line fill="none" stroke="#000000" stroke-width="0.1741" stroke-miterlimit="10" x1="119.6" y1="54.19" x2="112.21" y2="47.76"/>
<line fill="none" stroke="#000000" stroke-width="0.1741" stroke-miterlimit="10" x1="227.61" y1="87.57" x2="220.76" y2="94.57"/>
<g>
	<g>
		
			<line fill="none" stroke="#000000" stroke-width="0.3676" stroke-miterlimit="10" x1="158.12" y1="25.52" x2="159.56" y2="26.92"/>
		
			<line fill="none" stroke="#000000" stroke-width="0.3676" stroke-miterlimit="10" stroke-dasharray="4.0816,1.3605" x1="160.53" y1="27.88" x2="222.31" y2="88.28"/>
		
			<line fill="none" stroke="#000000" stroke-width="0.3676" stroke-miterlimit="10" x1="222.79" y1="88.75" x2="224.23" y2="90.16"/>
	</g>
</g>
<text transform="matrix(1 3.690000e-03 -3.690000e-03 1 176.8359 41.4337)" font-family="'MyriadPro-Regular'" font-size="8.4928px">w1</text>
<text transform="matrix(0.9945 0.1052 -0.1052 0.9945 134.2662 18.6725)" font-family="'MyriadPro-Regular'" font-size="8.4928px">v3</text>
<text transform="matrix(0.9945 0.1052 -0.1052 0.9945 226.6678 118.657)" font-family="'MyriadPro-Regular'" font-size="8.4928px">v2</text>
<text transform="matrix(0.9945 0.1052 -0.1052 0.9945 108.3997 45.7767)" font-family="'MyriadPro-Regular'" font-size="8.4928px">v1</text>
<text transform="matrix(1 3.690000e-03 -3.690000e-03 1 207.3842 69.1077)" font-family="'MyriadPro-Regular'" font-size="8.4928px">w2</text>
<g>
	<g>
		
			<line fill="none" stroke="#000000" stroke-width="0.2742" stroke-miterlimit="10" x1="179.23" y1="73.61" x2="178.15" y2="72.56"/>
		
			<line fill="none" stroke="#000000" stroke-width="0.2742" stroke-miterlimit="10" stroke-dasharray="3.0291,1.0097" x1="177.43" y1="71.85" x2="125.84" y2="21.36"/>
		<line fill="none" stroke="#000000" stroke-width="0.2742" stroke-miterlimit="10" x1="125.48" y1="21" x2="124.41" y2="19.95"/>
	</g>
</g>
<g>
	<g>
		
			<line fill="none" stroke="#000000" stroke-width="0.2742" stroke-miterlimit="10" x1="152.11" y1="12.66" x2="151.08" y2="13.76"/>
		
			<line fill="none" stroke="#000000" stroke-width="0.2742" stroke-miterlimit="10" stroke-dasharray="2.9466,0.9822" x1="150.41" y1="14.48" x2="110.53" y2="57.2"/>
		<line fill="none" stroke="#000000" stroke-width="0.2742" stroke-miterlimit="10" x1="110.2" y1="57.55" x2="109.17" y2="58.65"/>
	</g>
</g>
<g>
	<g>
		
			<line fill="none" stroke="#000000" stroke-width="0.2742" stroke-miterlimit="10" x1="232.86" y1="105.07" x2="231.84" y2="106.17"/>
		
			<line fill="none" stroke="#000000" stroke-width="0.2742" stroke-miterlimit="10" stroke-dasharray="2.651,0.8837" x1="231.24" y1="106.81" x2="221.89" y2="116.83"/>
		
			<line fill="none" stroke="#000000" stroke-width="0.2742" stroke-miterlimit="10" x1="221.59" y1="117.15" x2="220.56" y2="118.24"/>
	</g>
</g>
<g>
	<g>
		
			<line fill="none" stroke="#000000" stroke-width="0.2742" stroke-miterlimit="10" x1="193.24" y1="68.74" x2="191.74" y2="68.74"/>
		
			<line fill="none" stroke="#000000" stroke-width="0.2742" stroke-miterlimit="10" stroke-dasharray="3.0764,1.0255" x1="190.71" y1="68.74" x2="146.11" y2="68.74"/>
		
			<line fill="none" stroke="#000000" stroke-width="0.2742" stroke-miterlimit="10" x1="145.59" y1="68.74" x2="144.09" y2="68.74"/>
	</g>
</g>
<g>
	<g>
		<line fill="none" stroke="#000000" stroke-width="0.2742" stroke-miterlimit="10" x1="196.44" y1="46.21" x2="195.4" y2="47.28"/>
		
			<line fill="none" stroke="#000000" stroke-width="0.2742" stroke-miterlimit="10" stroke-dasharray="2.9924,0.9975" x1="194.7" y1="47.99" x2="167.14" y2="76.15"/>
		
			<line fill="none" stroke="#000000" stroke-width="0.2742" stroke-miterlimit="10" x1="166.79" y1="76.51" x2="165.74" y2="77.58"/>
	</g>
</g>
</svg>
