<?xml version="1.0" encoding="utf-8"?>
<!-- Generator: Adobe Illustrator 21.0.2, SVG Export Plug-In . SVG Version: 6.00 Build 0)  -->
<svg version="1.1" id="Layer_1" xmlns="http://www.w3.org/2000/svg" xmlns:xlink="http://www.w3.org/1999/xlink" x="0px" y="0px"
	 viewBox="0 0 133.33 138" enable-background="new 0 0 133.33 138" xml:space="preserve">
<path fill="#EF3F54" stroke="#000000" stroke-width="0.6664" stroke-miterlimit="10" d="M108.39,33.85v-6.67H41.05v6.67h28.05
	c1.33,0,2.42,1.08,2.42,2.42v78.17c0,1.33-1.08,2.42-2.42,2.42H41.05v6.67h67.33v-6.67H80.34c-1.33,0-2.42-1.08-2.42-2.42V36.27
	c0-1.33,1.08-2.42,2.42-2.42H108.39z"/>
<line fill="none" stroke="#000000" stroke-width="0.2742" stroke-miterlimit="10" x1="115.8" y1="27.19" x2="122.3" y2="27.19"/>
<line fill="none" stroke="#000000" stroke-width="0.2742" stroke-miterlimit="10" x1="115.8" y1="33.85" x2="122.3" y2="33.85"/>
<g>
	<line fill="none" stroke="#000000" stroke-width="0.2742" stroke-miterlimit="10" x1="41.05" y1="19.86" x2="108.39" y2="19.86"/>
	<line fill="none" stroke="#000000" stroke-width="0.2742" stroke-miterlimit="10" x1="108.39" y1="22.86" x2="108.39" y2="16.36"/>
	<line fill="none" stroke="#000000" stroke-width="0.2742" stroke-miterlimit="10" x1="41.05" y1="22.86" x2="41.05" y2="16.36"/>
</g>
<g>
	<line fill="none" stroke="#000000" stroke-width="0.2826" stroke-miterlimit="10" x1="23.39" y1="123.53" x2="23.39" y2="27.19"/>
	<line fill="none" stroke="#000000" stroke-width="0.2826" stroke-miterlimit="10" x1="26.39" y1="27.19" x2="19.89" y2="27.19"/>
	<line fill="none" stroke="#000000" stroke-width="0.2826" stroke-miterlimit="10" x1="26.39" y1="123.53" x2="19.89" y2="123.53"/>
</g>
<line fill="none" stroke="#000000" stroke-width="0.2742" stroke-miterlimit="10" x1="70.39" y1="89.73" x2="86.39" y2="89.73"/>
<line fill="none" stroke="#000000" stroke-width="0.2742" stroke-miterlimit="10" x1="79.57" y1="92.3" x2="76.32" y2="86.67"/>
<line fill="none" stroke="#000000" stroke-width="0.2742" stroke-miterlimit="10" x1="73.16" y1="92.55" x2="69.91" y2="86.92"/>
<line fill="none" stroke="#000000" stroke-width="0.2742" stroke-miterlimit="10" x1="119.05" y1="27.19" x2="119.05" y2="33.85"/>
<line fill="none" stroke="#000000" stroke-width="0.2742" stroke-miterlimit="10" x1="78.38" y1="34.86" x2="89.55" y2="44.69"/>
</svg>
