<?xml version="1.0" encoding="utf-8"?>
<!-- Generator: Adobe Illustrator 21.0.2, SVG Export Plug-In . SVG Version: 6.00 Build 0)  -->
<svg version="1.1" id="Layer_1" xmlns="http://www.w3.org/2000/svg" xmlns:xlink="http://www.w3.org/1999/xlink" x="0px" y="0px"
	 viewBox="0 0 93.93 93.93" enable-background="new 0 0 93.93 93.93" xml:space="preserve">
<ellipse transform="matrix(0.9998 -0.0174 0.0174 0.9998 -0.8119 0.8261)" fill="#EF3F54" cx="46.96" cy="46.96" rx="46.96" ry="46.96"/>
<path fill="#FFFFFF" d="M46.98,26.97h-0.01c-5.52,0-10.52,2.24-14.13,5.86c-3.62,3.62-5.86,8.62-5.86,14.13
	c0,11.03,8.96,19.99,19.99,19.99h0.01c5.51,0,10.51-2.24,14.12-5.86c3.62-3.62,5.86-8.62,5.86-14.13
	C66.95,35.93,58.01,26.97,46.98,26.97z M59.39,59.38c-3.17,3.17-7.57,5.14-12.41,5.14h-0.01c-9.69,0-17.55-7.86-17.55-17.55
	c0-4.85,1.97-9.24,5.14-12.41c3.17-3.17,7.57-5.14,12.41-5.14h0.01c9.69,0,17.55,7.86,17.55,17.55
	C64.53,51.81,62.56,56.2,59.39,59.38z"/>
</svg>
