<?xml version="1.0" encoding="utf-8"?>
<!-- Generator: Adobe Illustrator 21.0.2, SVG Export Plug-In . SVG Version: 6.00 Build 0)  -->
<svg version="1.1" id="Layer_1" xmlns="http://www.w3.org/2000/svg" xmlns:xlink="http://www.w3.org/1999/xlink" x="0px" y="0px"
	 viewBox="0 0 93.93 93.93" enable-background="new 0 0 93.93 93.93" xml:space="preserve">
<ellipse transform="matrix(0.9998 -0.0174 0.0174 0.9998 -0.8119 0.8261)" fill="#FFFFFF" cx="46.96" cy="46.96" rx="46.96" ry="46.96"/>
<path fill="#EF3F54" d="M25.32,27.51l0.69,39.65c0.01,0.81,0.68,1.46,1.5,1.44l39.65-0.69c0.81-0.01,1.46-0.68,1.44-1.5l-0.69-39.65
	c-0.01-0.81-0.68-1.46-1.5-1.44l-39.65,0.69C25.96,26.03,25.31,26.7,25.32,27.51z M64.52,65.36l-34.47,0.6
	c-0.81,0.01-1.48-0.63-1.5-1.44l-0.6-34.46c-0.01-0.81,0.63-1.48,1.44-1.5l34.47-0.6c0.81-0.01,1.48,0.63,1.5,1.44l0.6,34.46
	C65.98,64.68,65.33,65.35,64.52,65.36z"/>
</svg>
