<?xml version="1.0" encoding="utf-8"?>
<!-- Generator: Adobe Illustrator 21.0.2, SVG Export Plug-In . SVG Version: 6.00 Build 0)  -->
<svg version="1.1" id="Layer_1" xmlns="http://www.w3.org/2000/svg" xmlns:xlink="http://www.w3.org/1999/xlink" x="0px" y="0px"
	 viewBox="0 0 93.93 93.93" enable-background="new 0 0 93.93 93.93" xml:space="preserve">
<circle fill="#EF3F54" cx="46.96" cy="46.96" r="46.96"/>
<path fill="#FFFFFF" d="M56.41,28.98v-1.19H37.52v1.19c0,0.37,0.3,0.68,0.68,0.68h6.88c0.37,0,0.68,0.3,0.68,0.68v33.25
	c0,0.37-0.3,0.68-0.68,0.68h-6.88c-0.37,0-0.68,0.3-0.68,0.68v1.19h18.89v-1.19c0-0.37-0.3-0.68-0.68-0.68h-6.88
	c-0.37,0-0.68-0.3-0.68-0.68V30.34c0-0.37,0.3-0.68,0.68-0.68h6.88C56.11,29.66,56.41,29.36,56.41,28.98z"/>
</svg>
