<?xml version="1.0" encoding="utf-8"?>
<!-- Generator: Adobe Illustrator 21.0.2, SVG Export Plug-In . SVG Version: 6.00 Build 0)  -->
<svg version="1.1" id="Layer_1" xmlns="http://www.w3.org/2000/svg" xmlns:xlink="http://www.w3.org/1999/xlink" x="0px" y="0px"
	 viewBox="0 0 141.33 193.33" enable-background="new 0 0 141.33 193.33" xml:space="preserve">
<path fill="#EF3F54" stroke="#000000" stroke-miterlimit="10" d="M108.66,40.92v-4.25H38.5v4.25c0,1.33,1.08,2.42,2.42,2.42h27.33
	c1.33,0,2.42,1.08,2.42,2.42v118.5c0,1.33-1.08,2.42-2.42,2.42H40.91c-1.33,0-2.42,1.08-2.42,2.42v4.25h70.17v-4.25
	c0-1.33-1.08-2.42-2.42-2.42H78.91c-1.33,0-2.42-1.08-2.42-2.42V45.75c0-1.33,1.08-2.42,2.42-2.42h27.33
	C107.58,43.33,108.66,42.25,108.66,40.92z"/>
<line fill="none" stroke="#000000" stroke-width="0.2742" stroke-miterlimit="10" x1="116.08" y1="36.67" x2="122.58" y2="36.67"/>
<line fill="none" stroke="#000000" stroke-width="0.2742" stroke-miterlimit="10" x1="116.08" y1="43.33" x2="122.58" y2="43.33"/>
<g>
	<line fill="none" stroke="#000000" stroke-width="0.2742" stroke-miterlimit="10" x1="36.16" y1="20.17" x2="108.66" y2="20.17"/>
	<line fill="none" stroke="#000000" stroke-width="0.2742" stroke-miterlimit="10" x1="108.66" y1="23.17" x2="108.66" y2="16.67"/>
	<line fill="none" stroke="#000000" stroke-width="0.2742" stroke-miterlimit="10" x1="36.16" y1="23.17" x2="36.16" y2="16.67"/>
</g>
<g>
	<line fill="none" stroke="#000000" stroke-width="0.2742" stroke-miterlimit="10" x1="23.66" y1="173.33" x2="23.66" y2="36.67"/>
	<line fill="none" stroke="#000000" stroke-width="0.2742" stroke-miterlimit="10" x1="26.66" y1="36.67" x2="20.16" y2="36.67"/>
	<line fill="none" stroke="#000000" stroke-width="0.2742" stroke-miterlimit="10" x1="26.66" y1="173.33" x2="20.16" y2="173.33"/>
</g>
<line fill="none" stroke="#000000" stroke-width="0.2742" stroke-miterlimit="10" x1="70.66" y1="117.88" x2="83.83" y2="117.88"/>
<line fill="none" stroke="#000000" stroke-width="0.2742" stroke-miterlimit="10" x1="78.12" y1="120.45" x2="74.87" y2="114.82"/>
<line fill="none" stroke="#000000" stroke-width="0.2742" stroke-miterlimit="10" x1="72.29" y1="120.45" x2="69.04" y2="114.82"/>
<line fill="none" stroke="#000000" stroke-width="0.2742" stroke-miterlimit="10" x1="119.33" y1="36.67" x2="119.33" y2="43.33"/>
<line fill="none" stroke="#000000" stroke-width="0.2742" stroke-miterlimit="10" x1="76.96" y1="44.34" x2="87" y2="54.17"/>
</svg>
