<?xml version="1.0" encoding="utf-8"?>
<!-- Generator: Adobe Illustrator 21.0.2, SVG Export Plug-In . SVG Version: 6.00 Build 0)  -->
<svg version="1.1" id="Layer_1" xmlns="http://www.w3.org/2000/svg" xmlns:xlink="http://www.w3.org/1999/xlink" x="0px" y="0px"
	 viewBox="0 0 109.23 124.74" enable-background="new 0 0 109.23 124.74" xml:space="preserve">
<g>
	<line fill="none" stroke="#000000" stroke-width="0.2742" stroke-miterlimit="10" x1="83.52" y1="108.74" x2="27.9" y2="108.74"/>
	<line fill="none" stroke="#000000" stroke-width="0.2742" stroke-miterlimit="10" x1="27.9" y1="105.74" x2="27.9" y2="112.24"/>
	<line fill="none" stroke="#000000" stroke-width="0.2742" stroke-miterlimit="10" x1="83.52" y1="105.74" x2="83.52" y2="112.24"/>
</g>
<g>
	<line fill="none" stroke="#000000" stroke-width="0.2742" stroke-miterlimit="10" x1="15.23" y1="22.07" x2="15.23" y2="95.93"/>
	<line fill="none" stroke="#000000" stroke-width="0.2742" stroke-miterlimit="10" x1="12.23" y1="95.93" x2="18.73" y2="95.93"/>
	<line fill="none" stroke="#000000" stroke-width="0.2742" stroke-miterlimit="10" x1="12.23" y1="22.07" x2="18.73" y2="22.07"/>
</g>
<path fill="#EF3F54" stroke="#000000" stroke-width="0.5624" stroke-miterlimit="10" d="M83.52,94.46v2H27.9V22.07h1.97
	c1.64,0,2.97,1.33,2.97,2.97v62.79c0,2.02,1.64,3.66,3.66,3.66h44.05C82.19,91.49,83.52,92.82,83.52,94.46z"/>
<g>
	<line fill="none" stroke="#000000" stroke-width="0.2742" stroke-miterlimit="10" x1="27.78" y1="71.19" x2="37.13" y2="71.19"/>
	<line fill="none" stroke="#000000" stroke-width="0.2742" stroke-miterlimit="10" x1="33.79" y1="73.75" x2="31.89" y2="68.12"/>
	<line fill="none" stroke="#000000" stroke-width="0.2742" stroke-miterlimit="10" x1="28.73" y1="73.75" x2="26.83" y2="68.12"/>
</g>
<line fill="none" stroke="#000000" stroke-width="0.2742" stroke-miterlimit="10" x1="32.45" y1="24.33" x2="36.98" y2="19.81"/>
<line fill="none" stroke="#000000" stroke-width="0.2742" stroke-miterlimit="10" x1="34.23" y1="90.32" x2="38.85" y2="85.7"/>
</svg>
