<?xml version="1.0" encoding="utf-8"?>
<!-- Generator: Adobe Illustrator 21.0.2, SVG Export Plug-In . SVG Version: 6.00 Build 0)  -->
<svg version="1.1" id="Layer_1" xmlns="http://www.w3.org/2000/svg" xmlns:xlink="http://www.w3.org/1999/xlink" x="0px" y="0px"
	 viewBox="0 0 103.44 127.4" enable-background="new 0 0 103.44 127.4" xml:space="preserve">
<g>
	<line fill="none" stroke="#000000" stroke-width="0.2742" stroke-miterlimit="10" x1="77.95" y1="108.74" x2="22.33" y2="108.74"/>
	<line fill="none" stroke="#000000" stroke-width="0.2742" stroke-miterlimit="10" x1="22.33" y1="105.74" x2="22.33" y2="112.24"/>
	<line fill="none" stroke="#000000" stroke-width="0.2742" stroke-miterlimit="10" x1="77.95" y1="105.74" x2="77.95" y2="112.24"/>
</g>
<g>
	<line fill="none" stroke="#000000" stroke-width="0.2742" stroke-miterlimit="10" x1="13.47" y1="41.51" x2="13.47" y2="97.13"/>
	<line fill="none" stroke="#000000" stroke-width="0.2742" stroke-miterlimit="10" x1="10.47" y1="97.13" x2="16.97" y2="97.13"/>
	<line fill="none" stroke="#000000" stroke-width="0.2742" stroke-miterlimit="10" x1="10.47" y1="41.51" x2="16.97" y2="41.51"/>
</g>
<path fill="#EF3F54" stroke="#000000" stroke-width="0.5624" stroke-miterlimit="10" d="M77.95,94.46v2H22.33V42.29h1.97
	c1.64,0,2.97,1.33,2.97,2.97v42.58c0,2.02,1.64,3.66,3.66,3.66h44.05C76.62,91.49,77.95,92.82,77.95,94.46z"/>
<g>
	<line fill="none" stroke="#000000" stroke-width="0.2742" stroke-miterlimit="10" x1="22.55" y1="74.32" x2="31.89" y2="74.32"/>
	<line fill="none" stroke="#000000" stroke-width="0.2742" stroke-miterlimit="10" x1="28.56" y1="76.89" x2="26.66" y2="71.26"/>
	<line fill="none" stroke="#000000" stroke-width="0.2742" stroke-miterlimit="10" x1="23.5" y1="76.89" x2="21.6" y2="71.26"/>
</g>
<line fill="none" stroke="#000000" stroke-width="0.2742" stroke-miterlimit="10" x1="26.17" y1="42.29" x2="30.69" y2="37.76"/>
<line fill="none" stroke="#000000" stroke-width="0.2742" stroke-miterlimit="10" x1="28.43" y1="89.74" x2="33.05" y2="85.12"/>
</svg>
