<?xml version="1.0" encoding="utf-8"?>
<!-- Generator: Adobe Illustrator 21.0.2, SVG Export Plug-In . SVG Version: 6.00 Build 0)  -->
<svg version="1.1" id="Layer_1" xmlns="http://www.w3.org/2000/svg" xmlns:xlink="http://www.w3.org/1999/xlink" x="0px" y="0px"
	 viewBox="0 0 113.33 133.33" enable-background="new 0 0 113.33 133.33" xml:space="preserve">
<g>
	<line fill="none" stroke="#000000" stroke-width="0.2742" stroke-miterlimit="10" x1="19.18" y1="115.21" x2="19.18" y2="25.83"/>
	<line fill="none" stroke="#000000" stroke-width="0.2742" stroke-miterlimit="10" x1="22.18" y1="25.83" x2="15.68" y2="25.83"/>
	<line fill="none" stroke="#000000" stroke-width="0.2742" stroke-miterlimit="10" x1="22.18" y1="115.21" x2="15.68" y2="115.21"/>
</g>
<g>
	<line fill="none" stroke="#000000" stroke-width="0.2742" stroke-miterlimit="10" x1="80.75" y1="14.92" x2="29.14" y2="14.92"/>
	<line fill="none" stroke="#000000" stroke-width="0.2742" stroke-miterlimit="10" x1="29.14" y1="11.92" x2="29.14" y2="18.42"/>
	<line fill="none" stroke="#000000" stroke-width="0.2742" stroke-miterlimit="10" x1="80.75" y1="11.92" x2="80.75" y2="18.42"/>
</g>
<line fill="none" stroke="#000000" stroke-width="0.2742" stroke-miterlimit="10" x1="35.02" y1="30.74" x2="45.06" y2="40.57"/>
<line fill="none" stroke="#000000" stroke-width="0.2742" stroke-miterlimit="10" x1="80.75" y1="25.83" x2="90.79" y2="35.66"/>
<path fill="#EF3F54" stroke="#000000" stroke-width="0.6664" stroke-miterlimit="10" d="M28.44,27.56v84.52
	c0,1.73,1.4,3.13,3.13,3.13h46.75c1.73,0,3.13-1.4,3.13-3.13V27.56c0-1.73-1.4-3.13-3.13-3.13H31.57
	C29.84,24.42,28.44,25.83,28.44,27.56z M72.79,109.68H37.07c-1.73,0-3.13-1.4-3.13-3.13V33.09c0-1.73,1.4-3.13,3.13-3.13h35.71
	c1.73,0,3.13,1.4,3.13,3.13v73.46C75.92,108.27,74.52,109.68,72.79,109.68z"/>
<line fill="none" stroke="#000000" stroke-width="0.2742" stroke-miterlimit="10" x1="28.46" y1="86" x2="37.8" y2="86"/>
<line fill="none" stroke="#000000" stroke-width="0.2742" stroke-miterlimit="10" x1="34.47" y1="88.56" x2="32.57" y2="82.94"/>
<line fill="none" stroke="#000000" stroke-width="0.2742" stroke-miterlimit="10" x1="29.41" y1="88.56" x2="27.51" y2="82.94"/>
</svg>
