<?xml version="1.0" encoding="utf-8"?>
<!-- Generator: Adobe Illustrator 21.0.2, SVG Export Plug-In . SVG Version: 6.00 Build 0)  -->
<svg version="1.1" id="Layer_1" xmlns="http://www.w3.org/2000/svg" xmlns:xlink="http://www.w3.org/1999/xlink" x="0px" y="0px"
	 viewBox="0 0 124.58 96" enable-background="new 0 0 124.58 96" xml:space="preserve">
<path fill="#EF3F54" stroke="#000000" stroke-miterlimit="10" d="M98.87,22.75v6.66H70.25c-1.33,0-2.42,1.08-2.42,2.42v49.5h-5.26
	v-49.5c0-1.34-1.08-2.42-2.42-2.42H31.53v-6.66H98.87z"/>
<line fill="none" stroke="#000000" stroke-width="0.2742" stroke-miterlimit="10" x1="106.29" y1="22.75" x2="112.79" y2="22.75"/>
<line fill="none" stroke="#000000" stroke-width="0.2742" stroke-miterlimit="10" x1="106.29" y1="29.41" x2="112.79" y2="29.41"/>
<g>
	<line fill="none" stroke="#000000" stroke-width="0.2742" stroke-miterlimit="10" x1="31.54" y1="15.42" x2="98.87" y2="15.42"/>
	<line fill="none" stroke="#000000" stroke-width="0.2742" stroke-miterlimit="10" x1="98.87" y1="18.42" x2="98.87" y2="11.92"/>
	<line fill="none" stroke="#000000" stroke-width="0.2742" stroke-miterlimit="10" x1="31.54" y1="18.42" x2="31.54" y2="11.92"/>
</g>
<g>
	<line fill="none" stroke="#000000" stroke-width="0.2742" stroke-miterlimit="10" x1="13.87" y1="83" x2="13.87" y2="25.58"/>
	<line fill="none" stroke="#000000" stroke-width="0.2742" stroke-miterlimit="10" x1="16.87" y1="25.58" x2="10.37" y2="25.58"/>
	<line fill="none" stroke="#000000" stroke-width="0.2742" stroke-miterlimit="10" x1="16.87" y1="83" x2="10.37" y2="83"/>
</g>
<line fill="none" stroke="#000000" stroke-width="0.2742" stroke-miterlimit="10" x1="60.87" y1="63.64" x2="75.17" y2="63.64"/>
<line fill="none" stroke="#000000" stroke-width="0.2742" stroke-miterlimit="10" x1="69.46" y1="66.2" x2="66.21" y2="60.57"/>
<line fill="none" stroke="#000000" stroke-width="0.2742" stroke-miterlimit="10" x1="64.2" y1="66.2" x2="60.95" y2="60.57"/>
<line fill="none" stroke="#000000" stroke-width="0.2742" stroke-miterlimit="10" x1="109.54" y1="22.75" x2="109.54" y2="29.41"/>
<line fill="none" stroke="#000000" stroke-width="0.2742" stroke-miterlimit="10" x1="68.3" y1="30.42" x2="80.04" y2="40.25"/>
</svg>
