<?xml version="1.0" encoding="utf-8"?>
<!-- Generator: Adobe Illustrator 21.0.2, SVG Export Plug-In . SVG Version: 6.00 Build 0)  -->
<svg version="1.1" id="Layer_1" xmlns="http://www.w3.org/2000/svg" xmlns:xlink="http://www.w3.org/1999/xlink" x="0px" y="0px"
	 viewBox="0 0 126.43 101.33" enable-background="new 0 0 126.43 101.33" xml:space="preserve">
<path fill="#EF3F54" stroke="#000000" stroke-miterlimit="10" d="M100.14,22.75v2.27c0,2.42-1.97,4.39-4.39,4.39h-23.1
	c-1.33,0-2.42,1.08-2.42,2.42L68.3,79.9c-0.03,0.8-0.69,1.43-1.49,1.43h-0.7c-0.8,0-1.46-0.63-1.49-1.43l-1.93-48.07
	c0-1.34-1.08-2.42-2.42-2.42h-23.1c-2.42,0-4.39-1.97-4.39-4.39v-2.27H100.14z"/>
<line fill="none" stroke="#000000" stroke-width="0.2742" stroke-miterlimit="10" x1="107.55" y1="22.75" x2="114.05" y2="22.75"/>
<line fill="none" stroke="#000000" stroke-width="0.2742" stroke-miterlimit="10" x1="107.55" y1="29.41" x2="114.05" y2="29.41"/>
<g>
	<line fill="none" stroke="#000000" stroke-width="0.2742" stroke-miterlimit="10" x1="32.8" y1="15.42" x2="100.14" y2="15.42"/>
	<line fill="none" stroke="#000000" stroke-width="0.2742" stroke-miterlimit="10" x1="100.14" y1="18.42" x2="100.14" y2="11.92"/>
	<line fill="none" stroke="#000000" stroke-width="0.2742" stroke-miterlimit="10" x1="32.8" y1="18.42" x2="32.8" y2="11.92"/>
</g>
<g>
	<line fill="none" stroke="#000000" stroke-width="0.2742" stroke-miterlimit="10" x1="15.14" y1="83" x2="15.14" y2="25.58"/>
	<line fill="none" stroke="#000000" stroke-width="0.2742" stroke-miterlimit="10" x1="18.14" y1="25.58" x2="11.64" y2="25.58"/>
	<line fill="none" stroke="#000000" stroke-width="0.2742" stroke-miterlimit="10" x1="18.14" y1="83" x2="11.64" y2="83"/>
</g>
<line fill="none" stroke="#000000" stroke-width="0.2742" stroke-miterlimit="10" x1="61" y1="63.64" x2="77.57" y2="63.64"/>
<line fill="none" stroke="#000000" stroke-width="0.2742" stroke-miterlimit="10" x1="71.86" y1="66.2" x2="68.61" y2="60.57"/>
<line fill="none" stroke="#000000" stroke-width="0.2742" stroke-miterlimit="10" x1="64.33" y1="66.2" x2="61.08" y2="60.57"/>
<line fill="none" stroke="#000000" stroke-width="0.2742" stroke-miterlimit="10" x1="110.8" y1="22.75" x2="110.8" y2="29.41"/>
<line fill="none" stroke="#000000" stroke-width="0.2742" stroke-miterlimit="10" x1="70.7" y1="30.42" x2="81.3" y2="40.25"/>
</svg>
