<?xml version="1.0" encoding="utf-8"?>
<!-- Generator: Adobe Illustrator 21.0.2, SVG Export Plug-In . SVG Version: 6.00 Build 0)  -->
<svg version="1.1" id="Layer_1" xmlns="http://www.w3.org/2000/svg" xmlns:xlink="http://www.w3.org/1999/xlink" x="0px" y="0px"
	 viewBox="0 0 164.67 193.33" enable-background="new 0 0 164.67 193.33" xml:space="preserve">
<g>
	<line fill="none" stroke="#000000" stroke-width="0.2742" stroke-miterlimit="10" x1="47.62" y1="14.26" x2="144.08" y2="14.26"/>
	<line fill="none" stroke="#000000" stroke-width="0.2742" stroke-miterlimit="10" x1="144.08" y1="17.26" x2="144.08" y2="10.76"/>
	<line fill="none" stroke="#000000" stroke-width="0.2742" stroke-miterlimit="10" x1="47.62" y1="17.26" x2="47.62" y2="10.76"/>
</g>
<g>
	
		<line fill="none" stroke="#000000" stroke-width="0.2742" stroke-miterlimit="10" x1="151.29" y1="172.54" x2="151.29" y2="20.76"/>
	<line fill="none" stroke="#000000" stroke-width="0.2742" stroke-miterlimit="10" x1="154.29" y1="20.76" x2="147.79" y2="20.76"/>
	
		<line fill="none" stroke="#000000" stroke-width="0.2742" stroke-miterlimit="10" x1="154.29" y1="172.54" x2="147.79" y2="172.54"/>
</g>
<g>
	<line fill="none" stroke="#000000" stroke-width="0.2742" stroke-miterlimit="10" x1="32.06" y1="30.01" x2="32.06" y2="20.76"/>
	<line fill="none" stroke="#000000" stroke-width="0.2742" stroke-miterlimit="10" x1="35.06" y1="20.76" x2="28.56" y2="20.76"/>
	<line fill="none" stroke="#000000" stroke-width="0.2742" stroke-miterlimit="10" x1="35.06" y1="30.01" x2="28.56" y2="30.01"/>
</g>
<line fill="none" stroke="#000000" stroke-width="0.2742" stroke-miterlimit="10" x1="56.02" y1="31.75" x2="66.06" y2="41.58"/>
<path fill="#EF3F54" stroke="#000000" stroke-width="0.9719" stroke-miterlimit="10" d="M53.69,36.17v120.96
	c0,3.4,2.76,6.16,6.16,6.16h84.23v9.25H47.62V20.76h96.46v9.25H59.85C56.45,30.01,53.69,32.77,53.69,36.17z"/>
<line fill="none" stroke="#000000" stroke-width="0.2742" stroke-miterlimit="10" x1="48.1" y1="109.41" x2="64.1" y2="109.41"/>
<line fill="none" stroke="#000000" stroke-width="0.2742" stroke-miterlimit="10" x1="55.31" y1="111.98" x2="52.06" y2="106.35"/>
<line fill="none" stroke="#000000" stroke-width="0.2742" stroke-miterlimit="10" x1="49.73" y1="111.98" x2="46.48" y2="106.35"/>
</svg>
