<?xml version="1.0" encoding="utf-8"?>
<!-- Generator: Adobe Illustrator 21.0.2, SVG Export Plug-In . SVG Version: 6.00 Build 0)  -->
<svg version="1.1" id="Layer_1" xmlns="http://www.w3.org/2000/svg" xmlns:xlink="http://www.w3.org/1999/xlink" x="0px" y="0px"
	 viewBox="0 0 127.3 193.33" enable-background="new 0 0 127.3 193.33" xml:space="preserve">
<g>
	<line fill="none" stroke="#000000" stroke-width="0.2742" stroke-miterlimit="10" x1="12.22" y1="14.71" x2="96.45" y2="14.71"/>
	<line fill="none" stroke="#000000" stroke-width="0.2742" stroke-miterlimit="10" x1="96.45" y1="17.71" x2="96.45" y2="11.21"/>
	<line fill="none" stroke="#000000" stroke-width="0.2742" stroke-miterlimit="10" x1="12.22" y1="17.71" x2="12.22" y2="11.21"/>
</g>
<g>
	<line fill="none" stroke="#000000" stroke-width="0.2742" stroke-miterlimit="10" x1="112.55" y1="174.7" x2="112.55" y2="21.21"/>
	<line fill="none" stroke="#000000" stroke-width="0.2742" stroke-miterlimit="10" x1="115.55" y1="21.21" x2="109.05" y2="21.21"/>
	<line fill="none" stroke="#000000" stroke-width="0.2742" stroke-miterlimit="10" x1="115.55" y1="174.7" x2="109.05" y2="174.7"/>
</g>
<line fill="none" stroke="#000000" stroke-width="0.2742" stroke-miterlimit="10" x1="19.47" y1="30.14" x2="29.51" y2="39.97"/>
<path fill="#EF3F54" stroke="#000000" stroke-width="0.9719" stroke-miterlimit="10" d="M17.45,33.79v126.63
	c0,3.4,2.76,6.16,6.16,6.16l69.27,2.54c2.02,0.17,3.57,3.55,3.57,5.57l0,0H12.22V19.23h84.23v0c0,2.02-1.55,5.69-3.57,5.86
	l-69.27,2.54C20.21,27.62,17.45,30.38,17.45,33.79z"/>
<line fill="none" stroke="#000000" stroke-width="0.2742" stroke-miterlimit="10" x1="12.46" y1="109.86" x2="24.84" y2="109.86"/>
<line fill="none" stroke="#000000" stroke-width="0.2742" stroke-miterlimit="10" x1="19.13" y1="112.43" x2="15.88" y2="106.8"/>
<line fill="none" stroke="#000000" stroke-width="0.2742" stroke-miterlimit="10" x1="14.33" y1="112.43" x2="11.08" y2="106.8"/>
<g>
	<line fill="none" stroke="#000000" stroke-width="0.2227" stroke-miterlimit="10" x1="53.45" y1="26.76" x2="53.45" y2="19.53"/>
	<line fill="none" stroke="#000000" stroke-width="0.2227" stroke-miterlimit="10" x1="56.01" y1="18.45" x2="50.38" y2="20.6"/>
	<line fill="none" stroke="#000000" stroke-width="0.2227" stroke-miterlimit="10" x1="56.01" y1="25.69" x2="50.38" y2="27.84"/>
</g>
<line fill="none" stroke="#000000" stroke-width="0.2742" stroke-miterlimit="10" x1="92.95" y1="25.23" x2="102.99" y2="35.05"/>
</svg>
