<?xml version="1.0" encoding="utf-8"?>
<!-- Generator: Adobe Illustrator 21.0.2, SVG Export Plug-In . SVG Version: 6.00 Build 0)  -->
<svg version="1.1" id="Layer_1" xmlns="http://www.w3.org/2000/svg" xmlns:xlink="http://www.w3.org/1999/xlink" x="0px" y="0px"
	 viewBox="0 0 153.16 147.33" enable-background="new 0 0 153.16 147.33" xml:space="preserve">
<g>
	<line fill="none" stroke="#000000" stroke-width="0.2742" stroke-miterlimit="10" x1="125.33" y1="128.67" x2="69.7" y2="128.67"/>
	<line fill="none" stroke="#000000" stroke-width="0.2742" stroke-miterlimit="10" x1="69.7" y1="125.67" x2="69.7" y2="132.17"/>
	
		<line fill="none" stroke="#000000" stroke-width="0.2742" stroke-miterlimit="10" x1="125.33" y1="125.67" x2="125.33" y2="132.17"/>
</g>
<g>
	
		<line fill="none" stroke="#000000" stroke-width="0.2742" stroke-miterlimit="10" x1="134.71" y1="19.93" x2="134.71" y2="117.06"/>
	
		<line fill="none" stroke="#000000" stroke-width="0.2742" stroke-miterlimit="10" x1="131.71" y1="117.06" x2="138.21" y2="117.06"/>
	<line fill="none" stroke="#000000" stroke-width="0.2742" stroke-miterlimit="10" x1="131.71" y1="19.93" x2="138.21" y2="19.93"/>
</g>
<g>
	<line fill="none" stroke="#000000" stroke-width="0.2742" stroke-miterlimit="10" x1="91.3" y1="19.93" x2="91.3" y2="107.77"/>
	<line fill="none" stroke="#000000" stroke-width="0.2742" stroke-miterlimit="10" x1="88.3" y1="107.77" x2="94.8" y2="107.77"/>
	<line fill="none" stroke="#000000" stroke-width="0.2742" stroke-miterlimit="10" x1="88.3" y1="19.93" x2="94.8" y2="19.93"/>
</g>
<path fill="#EF3F54" stroke="#000000" stroke-width="0.5624" stroke-miterlimit="10" d="M125.33,114.39v2H69.71V28.56
	c0-2.02-1.64-3.66-3.66-3.66H22c-1.64,0-2.97-1.33-2.97-2.97v-2h55.62v87.84c0,2.02,1.64,3.65,3.66,3.65h44.05
	C124,111.42,125.33,112.75,125.33,114.39z"/>
<g>
	<line fill="none" stroke="#000000" stroke-width="0.2742" stroke-miterlimit="10" x1="69.59" y1="68.16" x2="78.93" y2="68.16"/>
	<line fill="none" stroke="#000000" stroke-width="0.2742" stroke-miterlimit="10" x1="75.6" y1="70.72" x2="73.7" y2="65.09"/>
	<line fill="none" stroke="#000000" stroke-width="0.2742" stroke-miterlimit="10" x1="70.54" y1="70.72" x2="68.64" y2="65.09"/>
</g>
<line fill="none" stroke="#000000" stroke-width="0.2742" stroke-miterlimit="10" x1="16.38" y1="28" x2="20.2" y2="24.18"/>
<line fill="none" stroke="#000000" stroke-width="0.2742" stroke-miterlimit="10" x1="63.71" y1="29.5" x2="67.83" y2="25.38"/>
</svg>
