<?xml version="1.0" encoding="utf-8"?>
<!-- Generator: Adobe Illustrator 21.0.2, SVG Export Plug-In . SVG Version: 6.00 Build 0)  -->
<svg version="1.1" id="Layer_1" xmlns="http://www.w3.org/2000/svg" xmlns:xlink="http://www.w3.org/1999/xlink" x="0px" y="0px"
	 viewBox="0 0 141.33 193.33" enable-background="new 0 0 141.33 193.33" xml:space="preserve">
<rect x="41.33" y="36.67" fill="#EF3F54" stroke="#000000" stroke-miterlimit="10" width="67.34" height="6.66"/>
<rect x="72.41" y="43.33" fill="#EF3F54" stroke="#000000" stroke-width="0.7887" stroke-miterlimit="10" width="5.17" height="123.33"/>
<path fill="#EF3F54" stroke="#000000" stroke-miterlimit="10" d="M108.67,166.67v6.66H41.33v-6.66h26.92c0.08,0,0.16,0,0.24-0.01
	h13.02c0.08,0.01,0.16,0.01,0.24,0.01H108.67z"/>
<line fill="none" stroke="#000000" stroke-width="0.2742" stroke-miterlimit="10" x1="116.08" y1="36.67" x2="122.58" y2="36.67"/>
<line fill="none" stroke="#000000" stroke-width="0.2742" stroke-miterlimit="10" x1="116.08" y1="43.33" x2="122.58" y2="43.33"/>
<g>
	<line fill="none" stroke="#000000" stroke-width="0.2695" stroke-miterlimit="10" x1="41.33" y1="20.17" x2="108.66" y2="20.17"/>
	<line fill="none" stroke="#000000" stroke-width="0.2695" stroke-miterlimit="10" x1="108.66" y1="23.17" x2="108.66" y2="16.67"/>
	<line fill="none" stroke="#000000" stroke-width="0.2695" stroke-miterlimit="10" x1="41.33" y1="23.17" x2="41.33" y2="16.67"/>
</g>
<g>
	<line fill="none" stroke="#000000" stroke-width="0.2742" stroke-miterlimit="10" x1="23.66" y1="173.33" x2="23.66" y2="36.67"/>
	<line fill="none" stroke="#000000" stroke-width="0.2742" stroke-miterlimit="10" x1="26.66" y1="36.67" x2="20.16" y2="36.67"/>
	<line fill="none" stroke="#000000" stroke-width="0.2742" stroke-miterlimit="10" x1="26.66" y1="173.33" x2="20.16" y2="173.33"/>
</g>
<g>
	
		<line fill="none" stroke="#000000" stroke-width="0.2551" stroke-miterlimit="10" x1="112.17" y1="164.14" x2="112.17" y2="45.85"/>
	<line fill="none" stroke="#000000" stroke-width="0.2551" stroke-miterlimit="10" x1="115.17" y1="45.85" x2="108.67" y2="45.85"/>
	
		<line fill="none" stroke="#000000" stroke-width="0.2551" stroke-miterlimit="10" x1="115.17" y1="164.14" x2="108.67" y2="164.14"/>
</g>
<line fill="none" stroke="#000000" stroke-width="0.2742" stroke-miterlimit="10" x1="70.66" y1="117.88" x2="86.66" y2="117.88"/>
<line fill="none" stroke="#000000" stroke-width="0.2742" stroke-miterlimit="10" x1="79.2" y1="120.45" x2="75.95" y2="114.82"/>
<line fill="none" stroke="#000000" stroke-width="0.2742" stroke-miterlimit="10" x1="73.63" y1="120.45" x2="70.38" y2="114.82"/>
<line fill="none" stroke="#000000" stroke-width="0.2742" stroke-miterlimit="10" x1="119.33" y1="36.67" x2="119.33" y2="43.33"/>
<g>
	<g>
		<g>
			<line fill="none" stroke="#000000" stroke-width="0.2742" stroke-miterlimit="10" x1="75" y1="99.92" x2="73.5" y2="99.92"/>
			
				<line fill="none" stroke="#000000" stroke-width="0.2742" stroke-miterlimit="10" stroke-dasharray="3.0488,1.0163" x1="72.48" y1="99.92" x2="32.34" y2="99.92"/>
			<line fill="none" stroke="#000000" stroke-width="0.2742" stroke-miterlimit="10" x1="31.83" y1="99.92" x2="30.33" y2="99.92"/>
		</g>
	</g>
	<g>
		<g>
			<line fill="none" stroke="#000000" stroke-width="0.2742" stroke-miterlimit="10" x1="75" y1="143.92" x2="75" y2="142.42"/>
			
				<line fill="none" stroke="#000000" stroke-width="0.2742" stroke-miterlimit="10" stroke-dasharray="3,1" x1="75" y1="141.42" x2="75" y2="101.92"/>
			<line fill="none" stroke="#000000" stroke-width="0.2742" stroke-miterlimit="10" x1="75" y1="101.42" x2="75" y2="99.92"/>
		</g>
	</g>
	<line fill="none" stroke="#000000" stroke-width="0.1939" stroke-miterlimit="10" x1="35.58" y1="98.29" x2="30.33" y2="99.92"/>
	<line fill="none" stroke="#000000" stroke-width="0.1939" stroke-miterlimit="10" x1="35.58" y1="101.54" x2="30.33" y2="99.92"/>
	<line fill="none" stroke="#000000" stroke-width="0.1939" stroke-miterlimit="10" x1="35.58" y1="98.29" x2="35.58" y2="101.54"/>
	<line fill="none" stroke="#000000" stroke-width="0.1939" stroke-miterlimit="10" x1="73.37" y1="138.67" x2="75" y2="143.92"/>
	<line fill="none" stroke="#000000" stroke-width="0.1939" stroke-miterlimit="10" x1="76.62" y1="138.67" x2="75" y2="143.92"/>
	<line fill="none" stroke="#000000" stroke-width="0.1939" stroke-miterlimit="10" x1="73.37" y1="138.67" x2="76.62" y2="138.67"/>
	<text transform="matrix(1 0 0 1 45.8301 96.6667)" font-family="'MyriadPro-Regular'" font-size="8.4928px">y</text>
	<text transform="matrix(1 0 0 1 73.3719 149.1666)" font-family="'MyriadPro-Regular'" font-size="8.4928px">z</text>
</g>
<text transform="matrix(1 0 0 1 14.5799 107.6666)" font-family="'MyriadPro-Regular'" font-size="7px">h</text>
<text transform="matrix(1 0 0 1 117.5799 104.9937)" font-family="'MyriadPro-Regular'" font-size="7px">d</text>
<text transform="matrix(1 0 0 1 70.6651 18.3336)" font-family="'MyriadPro-Regular'" font-size="7px">w</text>
<text transform="matrix(1 0 0 1 126.8301 43.3333)" font-family="'MyriadPro-Regular'" font-size="7px">tf</text>
<text transform="matrix(1 0 0 1 91.199 118.757)" font-family="'MyriadPro-Regular'" font-size="7px">tw</text>
<g>
	<path d="M77.5,162.83L77.5,162.83v3.83h3.83v0C81.32,164.55,79.61,162.83,77.5,162.83z"/>
	<path d="M72.5,162.83L72.5,162.83v3.83h-3.83v0C68.67,164.55,70.38,162.83,72.5,162.83z"/>
</g>
<g>
	<path d="M72.25,47.16L72.25,47.16v-3.83h-3.83v0C68.42,45.45,70.14,47.16,72.25,47.16z"/>
	<path d="M77.25,47.16L77.25,47.16v-3.83h3.83v0C81.08,45.45,79.36,47.16,77.25,47.16z"/>
</g>
</svg>
