<?xml version="1.0" encoding="utf-8"?>
<!-- Generator: Adobe Illustrator 21.0.2, SVG Export Plug-In . SVG Version: 6.00 Build 0)  -->
<svg version="1.1" id="Layer_1" xmlns="http://www.w3.org/2000/svg" xmlns:xlink="http://www.w3.org/1999/xlink" x="0px" y="0px"
	 viewBox="0 0 171.75 193.33" enable-background="new 0 0 171.75 193.33" xml:space="preserve">
<path fill="#EF3F54" stroke="#000000" stroke-miterlimit="10" d="M138.72,36.22H48.94c-2.53,0-4.57,1.37-4.57,3.06l-2.99,34.16H37.5
	V28.64h112.66v44.79h-3.88l-2.99-34.16C143.3,37.59,141.25,36.22,138.72,36.22z"/>
<rect x="60.16" y="36.67" fill="#EF3F54" stroke="#000000" stroke-miterlimit="10" width="67.34" height="6.66"/>
<rect x="91.25" y="43.33" fill="#EF3F54" stroke="#000000" stroke-width="0.7871" stroke-miterlimit="10" width="5.17" height="122.83"/>
<path fill="#EF3F54" stroke="#000000" stroke-width="0.8689" stroke-miterlimit="10" d="M119.25,166.67v6.66H68.41v-6.66h20.32
	c0.06,0,0.12,0,0.18-0.01h9.83c0.06,0.01,0.12,0.01,0.18,0.01H119.25z"/>
<g>
	<line fill="none" stroke="#000000" stroke-width="0.281" stroke-miterlimit="10" x1="23.66" y1="173.33" x2="23.66" y2="29.77"/>
	<line fill="none" stroke="#000000" stroke-width="0.281" stroke-miterlimit="10" x1="26.66" y1="29.77" x2="20.16" y2="29.77"/>
	<line fill="none" stroke="#000000" stroke-width="0.281" stroke-miterlimit="10" x1="26.66" y1="173.33" x2="20.16" y2="173.33"/>
</g>
<g>
	<line fill="none" stroke="#000000" stroke-width="0.2551" stroke-miterlimit="10" x1="131" y1="164.14" x2="131" y2="45.85"/>
	<line fill="none" stroke="#000000" stroke-width="0.2551" stroke-miterlimit="10" x1="134" y1="45.85" x2="127.5" y2="45.85"/>
	<line fill="none" stroke="#000000" stroke-width="0.2551" stroke-miterlimit="10" x1="134" y1="164.14" x2="127.5" y2="164.14"/>
</g>
<line fill="none" stroke="#000000" stroke-width="0.2742" stroke-miterlimit="10" x1="89.5" y1="117.88" x2="105.5" y2="117.88"/>
<line fill="none" stroke="#000000" stroke-width="0.2742" stroke-miterlimit="10" x1="98.04" y1="120.45" x2="94.79" y2="114.82"/>
<line fill="none" stroke="#000000" stroke-width="0.2742" stroke-miterlimit="10" x1="92.46" y1="120.45" x2="89.21" y2="114.82"/>
<g>
	<line fill="none" stroke="#000000" stroke-width="0.2742" stroke-miterlimit="10" x1="153" y1="36.67" x2="159.5" y2="36.67"/>
	<line fill="none" stroke="#000000" stroke-width="0.2742" stroke-miterlimit="10" x1="153" y1="43.33" x2="159.5" y2="43.33"/>
	<line fill="none" stroke="#000000" stroke-width="0.2742" stroke-miterlimit="10" x1="156.25" y1="36.67" x2="156.25" y2="43.33"/>
</g>
<g>
	<g>
		<g>
			<line fill="none" stroke="#000000" stroke-width="0.2742" stroke-miterlimit="10" x1="93.83" y1="84.67" x2="92.33" y2="84.67"/>
			
				<line fill="none" stroke="#000000" stroke-width="0.2742" stroke-miterlimit="10" stroke-dasharray="3.0488,1.0163" x1="91.31" y1="84.67" x2="51.17" y2="84.67"/>
			<line fill="none" stroke="#000000" stroke-width="0.2742" stroke-miterlimit="10" x1="50.66" y1="84.67" x2="49.16" y2="84.67"/>
		</g>
	</g>
	<g>
		<g>
			
				<line fill="none" stroke="#000000" stroke-width="0.2742" stroke-miterlimit="10" x1="93.83" y1="128.67" x2="93.83" y2="127.17"/>
			
				<line fill="none" stroke="#000000" stroke-width="0.2742" stroke-miterlimit="10" stroke-dasharray="3,1" x1="93.83" y1="126.17" x2="93.83" y2="86.67"/>
			<line fill="none" stroke="#000000" stroke-width="0.2742" stroke-miterlimit="10" x1="93.83" y1="86.17" x2="93.83" y2="84.67"/>
		</g>
	</g>
	<line fill="none" stroke="#000000" stroke-width="0.1939" stroke-miterlimit="10" x1="54.41" y1="83.04" x2="49.16" y2="84.67"/>
	<line fill="none" stroke="#000000" stroke-width="0.1939" stroke-miterlimit="10" x1="54.41" y1="86.29" x2="49.16" y2="84.67"/>
	<line fill="none" stroke="#000000" stroke-width="0.1939" stroke-miterlimit="10" x1="54.41" y1="83.04" x2="54.41" y2="86.29"/>
	<line fill="none" stroke="#000000" stroke-width="0.1939" stroke-miterlimit="10" x1="92.2" y1="123.42" x2="93.83" y2="128.67"/>
	<line fill="none" stroke="#000000" stroke-width="0.1939" stroke-miterlimit="10" x1="95.45" y1="123.42" x2="93.83" y2="128.67"/>
	<line fill="none" stroke="#000000" stroke-width="0.1939" stroke-miterlimit="10" x1="92.2" y1="123.42" x2="95.45" y2="123.42"/>
	<text transform="matrix(1 0 0 1 64.6626 81.4167)" font-family="'MyriadPro-Regular'" font-size="8.4928px">y</text>
	<text transform="matrix(1 0 0 1 92.2044 133.9167)" font-family="'MyriadPro-Regular'" font-size="8.4928px">z</text>
</g>
<text transform="matrix(1 0 0 1 14.5796 107.6665)" font-family="'MyriadPro-Regular'" font-size="7px">h</text>
<text transform="matrix(1 0 0 1 136.4124 104.9936)" font-family="'MyriadPro-Regular'" font-size="7px">d</text>
<text transform="matrix(1 0 0 1 88.9366 12.304)" font-family="'MyriadPro-Regular'" font-size="7px">wtf</text>
<text transform="matrix(1 0 0 1 87.584 34.804)" font-family="'MyriadPro-Regular'" font-size="7px">UPN</text>
<text transform="matrix(1 0 0 1 87.5838 189.2445)" font-family="'MyriadPro-Regular'" font-size="7px">wbf</text>
<text transform="matrix(1 0 0 1 159.4976 42.4162)" font-family="'MyriadPro-Regular'" font-size="7px">ttf</text>
<g>
	<line fill="none" stroke="#000000" stroke-width="0.2742" stroke-miterlimit="10" x1="140.5" y1="166.66" x2="147" y2="166.66"/>
	<line fill="none" stroke="#000000" stroke-width="0.2742" stroke-miterlimit="10" x1="140.5" y1="173.33" x2="147" y2="173.33"/>
	
		<line fill="none" stroke="#000000" stroke-width="0.2742" stroke-miterlimit="10" x1="143.75" y1="166.66" x2="143.75" y2="173.33"/>
</g>
<text transform="matrix(1 0 0 1 146.9976 172.4098)" font-family="'MyriadPro-Regular'" font-size="7px">tbf</text>
<text transform="matrix(1 0 0 1 110.0315 118.7569)" font-family="'MyriadPro-Regular'" font-size="7px">tw</text>
<g>
	<line fill="none" stroke="#000000" stroke-width="0.2742" stroke-miterlimit="10" x1="8.67" y1="84.67" x2="8.67" y2="36.67"/>
	<line fill="none" stroke="#000000" stroke-width="0.2742" stroke-miterlimit="10" x1="11.67" y1="36.67" x2="5.17" y2="36.67"/>
	<line fill="none" stroke="#000000" stroke-width="0.2742" stroke-miterlimit="10" x1="11.67" y1="84.67" x2="5.17" y2="84.67"/>
</g>
<text transform="matrix(1 0 0 1 3.7471 65.4804)" font-family="'MyriadPro-Regular'" font-size="7px">e</text>
<g>
	<line fill="none" stroke="#000000" stroke-width="0.4506" stroke-miterlimit="10" x1="60.16" y1="14.3" x2="127.5" y2="14.3"/>
	<line fill="none" stroke="#000000" stroke-width="0.4506" stroke-miterlimit="10" x1="127.5" y1="24.05" x2="127.5" y2="5.89"/>
	<line fill="none" stroke="#000000" stroke-width="0.4506" stroke-miterlimit="10" x1="60.16" y1="24.05" x2="60.16" y2="5.89"/>
</g>
<g>
	
		<line fill="none" stroke="#000000" stroke-width="0.2468" stroke-miterlimit="10" x1="68.41" y1="181.71" x2="119.25" y2="181.71"/>
	
		<line fill="none" stroke="#000000" stroke-width="0.2468" stroke-miterlimit="10" x1="119.25" y1="185.58" x2="119.25" y2="178.36"/>
	<line fill="none" stroke="#000000" stroke-width="0.2468" stroke-miterlimit="10" x1="68.41" y1="185.58" x2="68.41" y2="178.36"/>
</g>
<path d="M60.16,40.43L60.16,40.43l0-3.83h-3.83v0C56.33,38.72,58.05,40.43,60.16,40.43z"/>
<path d="M91.41,47.22L91.41,47.22l0-3.83h-3.83v0C87.58,45.5,89.3,47.22,91.41,47.22z"/>
<path d="M127.5,40.43L127.5,40.43v-3.83h3.83v0C131.33,38.72,129.61,40.43,127.5,40.43z"/>
<path d="M96.41,47.22L96.41,47.22l0-3.83h3.83v0C100.24,45.5,98.53,47.22,96.41,47.22z"/>
<path d="M96.41,162.83L96.41,162.83l0,3.83h3.83v0C100.24,164.55,98.53,162.83,96.41,162.83z"/>
<path d="M91.41,162.83L91.41,162.83l0,3.83h-3.83v0C87.58,164.55,89.3,162.83,91.41,162.83z"/>
</svg>
