<?xml version="1.0" encoding="utf-8"?>
<!-- Generator: Adobe Illustrator 21.0.2, SVG Export Plug-In . SVG Version: 6.00 Build 0)  -->
<svg version="1.1" id="Layer_1" xmlns="http://www.w3.org/2000/svg" xmlns:xlink="http://www.w3.org/1999/xlink" x="0px" y="0px"
	 viewBox="0 0 141.33 193.33" enable-background="new 0 0 141.33 193.33" xml:space="preserve">
<rect x="28.7" y="36.67" fill="#EF3F54" stroke="#000000" stroke-width="1.1726" stroke-miterlimit="10" width="92.59" height="6.66"/>
<rect x="72.45" y="43.33" fill="#EF3F54" stroke="#000000" stroke-width="0.7838" stroke-miterlimit="10" width="5.1" height="123.32"/>
<path fill="#EF3F54" stroke="#000000" stroke-miterlimit="10" d="M108.67,166.67v6.66H41.33v-6.66h26.92c0.08,0,0.16,0,0.24-0.01
	h13.02c0.08,0.01,0.16,0.01,0.24,0.01H108.67z"/>
<line fill="none" stroke="#000000" stroke-width="0.2742" stroke-miterlimit="10" x1="122.58" y1="36.67" x2="129.08" y2="36.67"/>
<line fill="none" stroke="#000000" stroke-width="0.2742" stroke-miterlimit="10" x1="122.58" y1="43.33" x2="129.08" y2="43.33"/>
<g>
	<line fill="none" stroke="#000000" stroke-width="0.3161" stroke-miterlimit="10" x1="28.7" y1="20.17" x2="121.29" y2="20.17"/>
	<line fill="none" stroke="#000000" stroke-width="0.3161" stroke-miterlimit="10" x1="121.29" y1="23.17" x2="121.29" y2="16.67"/>
	<line fill="none" stroke="#000000" stroke-width="0.3161" stroke-miterlimit="10" x1="28.7" y1="23.17" x2="28.7" y2="16.67"/>
</g>
<g>
	<line fill="none" stroke="#000000" stroke-width="0.2742" stroke-miterlimit="10" x1="23.66" y1="173.33" x2="23.66" y2="36.67"/>
	<line fill="none" stroke="#000000" stroke-width="0.2742" stroke-miterlimit="10" x1="26.66" y1="36.67" x2="20.16" y2="36.67"/>
	<line fill="none" stroke="#000000" stroke-width="0.2742" stroke-miterlimit="10" x1="26.66" y1="173.33" x2="20.16" y2="173.33"/>
</g>
<g>
	<line fill="none" stroke="#000000" stroke-width="0.2742" stroke-miterlimit="10" x1="11.53" y1="84.67" x2="11.53" y2="36.67"/>
	<line fill="none" stroke="#000000" stroke-width="0.2742" stroke-miterlimit="10" x1="14.53" y1="36.67" x2="8.03" y2="36.67"/>
	<line fill="none" stroke="#000000" stroke-width="0.2742" stroke-miterlimit="10" x1="14.53" y1="84.67" x2="8.03" y2="84.67"/>
</g>
<g>
	
		<line fill="none" stroke="#000000" stroke-width="0.2551" stroke-miterlimit="10" x1="112.17" y1="164.14" x2="112.17" y2="45.85"/>
	<line fill="none" stroke="#000000" stroke-width="0.2551" stroke-miterlimit="10" x1="115.17" y1="45.85" x2="108.67" y2="45.85"/>
	
		<line fill="none" stroke="#000000" stroke-width="0.2551" stroke-miterlimit="10" x1="115.17" y1="164.14" x2="108.67" y2="164.14"/>
</g>
<g>
	<line fill="none" stroke="#000000" stroke-width="0.2104" stroke-miterlimit="10" x1="72.2" y1="117.88" x2="81.63" y2="117.88"/>
	<line fill="none" stroke="#000000" stroke-width="0.2104" stroke-miterlimit="10" x1="78.26" y1="120.45" x2="76.35" y2="114.82"/>
	<line fill="none" stroke="#000000" stroke-width="0.2104" stroke-miterlimit="10" x1="73.16" y1="120.45" x2="71.24" y2="114.82"/>
</g>
<line fill="none" stroke="#000000" stroke-width="0.2742" stroke-miterlimit="10" x1="125.83" y1="36.67" x2="125.83" y2="43.33"/>
<g>
	<g>
		<g>
			<line fill="none" stroke="#000000" stroke-width="0.2742" stroke-miterlimit="10" x1="75" y1="84.67" x2="73.5" y2="84.67"/>
			
				<line fill="none" stroke="#000000" stroke-width="0.2742" stroke-miterlimit="10" stroke-dasharray="3.0488,1.0163" x1="72.48" y1="84.67" x2="32.34" y2="84.67"/>
			<line fill="none" stroke="#000000" stroke-width="0.2742" stroke-miterlimit="10" x1="31.83" y1="84.67" x2="30.33" y2="84.67"/>
		</g>
	</g>
	<g>
		<g>
			<line fill="none" stroke="#000000" stroke-width="0.2742" stroke-miterlimit="10" x1="75" y1="128.67" x2="75" y2="127.17"/>
			
				<line fill="none" stroke="#000000" stroke-width="0.2742" stroke-miterlimit="10" stroke-dasharray="3,1" x1="75" y1="126.17" x2="75" y2="86.67"/>
			<line fill="none" stroke="#000000" stroke-width="0.2742" stroke-miterlimit="10" x1="75" y1="86.17" x2="75" y2="84.67"/>
		</g>
	</g>
	<line fill="none" stroke="#000000" stroke-width="0.1939" stroke-miterlimit="10" x1="35.58" y1="83.04" x2="30.33" y2="84.67"/>
	<line fill="none" stroke="#000000" stroke-width="0.1939" stroke-miterlimit="10" x1="35.58" y1="86.29" x2="30.33" y2="84.67"/>
	<line fill="none" stroke="#000000" stroke-width="0.1939" stroke-miterlimit="10" x1="35.58" y1="83.04" x2="35.58" y2="86.29"/>
	<line fill="none" stroke="#000000" stroke-width="0.1939" stroke-miterlimit="10" x1="73.37" y1="123.42" x2="75" y2="128.67"/>
	<line fill="none" stroke="#000000" stroke-width="0.1939" stroke-miterlimit="10" x1="76.62" y1="123.42" x2="75" y2="128.67"/>
	<line fill="none" stroke="#000000" stroke-width="0.1939" stroke-miterlimit="10" x1="73.37" y1="123.42" x2="76.62" y2="123.42"/>
	<text transform="matrix(1 0 0 1 45.8301 81.4168)" font-family="'MyriadPro-Regular'" font-size="8.4928px">y</text>
	<text transform="matrix(1 0 0 1 73.3718 133.9168)" font-family="'MyriadPro-Regular'" font-size="8.4928px">z</text>
</g>
<text transform="matrix(1 0 0 1 14.5799 107.6666)" font-family="'MyriadPro-Regular'" font-size="7px">h</text>
<text transform="matrix(1 0 0 1 6.6155 65.4806)" font-family="'MyriadPro-Regular'" font-size="7px">e</text>
<text transform="matrix(1 0 0 1 117.5799 104.9937)" font-family="'MyriadPro-Regular'" font-size="7px">d</text>
<text transform="matrix(1 0 0 1 70.6651 18.3335)" font-family="'MyriadPro-Regular'" font-size="7px">wtf</text>
<g>
	
		<line fill="none" stroke="#000000" stroke-width="0.2727" stroke-miterlimit="10" x1="40.53" y1="184.17" x2="109.46" y2="184.17"/>
	
		<line fill="none" stroke="#000000" stroke-width="0.2727" stroke-miterlimit="10" x1="109.46" y1="187.17" x2="109.46" y2="180.67"/>
	<line fill="none" stroke="#000000" stroke-width="0.2727" stroke-miterlimit="10" x1="40.53" y1="187.17" x2="40.53" y2="180.67"/>
</g>
<text transform="matrix(1 0 0 1 70.6651 182.3336)" font-family="'MyriadPro-Regular'" font-size="7px">wbf</text>
<text transform="matrix(1 0 0 1 132.4133 42.4166)" font-family="'MyriadPro-Regular'" font-size="7px">ttf</text>
<line fill="none" stroke="#000000" stroke-width="0.2742" stroke-miterlimit="10" x1="122.58" y1="166.66" x2="129.08" y2="166.66"/>
<line fill="none" stroke="#000000" stroke-width="0.2742" stroke-miterlimit="10" x1="122.58" y1="173.33" x2="129.08" y2="173.33"/>
<line fill="none" stroke="#000000" stroke-width="0.2742" stroke-miterlimit="10" x1="125.83" y1="166.66" x2="125.83" y2="173.33"/>
<text transform="matrix(1 0 0 1 131.4133 172.4101)" font-family="'MyriadPro-Regular'" font-size="7px">tbf</text>
<text transform="matrix(1 0 0 1 91.199 118.7572)" font-family="'MyriadPro-Regular'" font-size="7px">tw</text>
<g>
	<path d="M77.5,162.83L77.5,162.83l0,3.83h3.83v0C81.32,164.55,79.61,162.83,77.5,162.83z"/>
	<path d="M72.49,162.83L72.49,162.83l0,3.83h-3.83v0C68.67,164.55,70.38,162.83,72.49,162.83z"/>
</g>
<g>
	<path d="M72.5,47.16L72.5,47.16v-3.83h-3.83v0C68.67,45.45,70.38,47.16,72.5,47.16z"/>
	<path d="M77.5,47.16L77.5,47.16v-3.83h3.83v0C81.32,45.45,79.61,47.16,77.5,47.16z"/>
</g>
</svg>
