<?xml version="1.0" encoding="utf-8"?>
<!-- Generator: Adobe Illustrator 21.0.2, SVG Export Plug-In . SVG Version: 6.00 Build 0)  -->
<svg version="1.1" id="Layer_1" xmlns="http://www.w3.org/2000/svg" xmlns:xlink="http://www.w3.org/1999/xlink" x="0px" y="0px"
	 viewBox="0 0 148.95 193.33" enable-background="new 0 0 148.95 193.33" xml:space="preserve">
<g>
	<line fill="none" stroke="#000000" stroke-width="0.2742" stroke-miterlimit="10" x1="13.75" y1="80.21" x2="13.75" y2="32.21"/>
	<line fill="none" stroke="#000000" stroke-width="0.2742" stroke-miterlimit="10" x1="16.75" y1="32.21" x2="10.25" y2="32.21"/>
	<line fill="none" stroke="#000000" stroke-width="0.2742" stroke-miterlimit="10" x1="16.75" y1="80.21" x2="10.25" y2="80.21"/>
</g>
<text transform="matrix(1 0 0 1 8.8287 61.0189)" font-family="'MyriadPro-Regular'" font-size="7px">e</text>
<g>
	
		<line fill="none" stroke="#000000" stroke-width="0.2606" stroke-miterlimit="10" x1="131.46" y1="166.81" x2="131.46" y2="43.33"/>
	<line fill="none" stroke="#000000" stroke-width="0.2606" stroke-miterlimit="10" x1="134.46" y1="43.33" x2="127.96" y2="43.33"/>
	
		<line fill="none" stroke="#000000" stroke-width="0.2606" stroke-miterlimit="10" x1="134.46" y1="166.81" x2="127.96" y2="166.81"/>
</g>
<text transform="matrix(1 0 0 1 124.3572 107.3998)" font-family="'MyriadPro-Regular'" font-size="6.0904px">d</text>
<rect x="28.7" y="32.21" fill="#EF3F54" stroke="#000000" stroke-width="0.7838" stroke-miterlimit="10" width="92.59" height="11.12"/>
<path fill="#EF3F54" stroke="#000000" stroke-width="1.159" stroke-miterlimit="10" d="M120.22,166.67v6.66H29.77v-6.66h36.16
	c0.11,0,0.21,0,0.32-0.01h17.49c0.11,0.01,0.21,0.01,0.32,0.01H120.22z"/>
<line fill="none" stroke="#000000" stroke-width="0.3542" stroke-miterlimit="10" x1="122.58" y1="32.21" x2="129.08" y2="32.21"/>
<line fill="none" stroke="#000000" stroke-width="0.2742" stroke-miterlimit="10" x1="122.58" y1="43.33" x2="129.08" y2="43.33"/>
<g>
	<line fill="none" stroke="#000000" stroke-width="0.3161" stroke-miterlimit="10" x1="28.7" y1="20.17" x2="121.29" y2="20.17"/>
	<line fill="none" stroke="#000000" stroke-width="0.3161" stroke-miterlimit="10" x1="121.29" y1="23.17" x2="121.29" y2="16.67"/>
	<line fill="none" stroke="#000000" stroke-width="0.3161" stroke-miterlimit="10" x1="28.7" y1="23.17" x2="28.7" y2="16.67"/>
</g>
<g>
	<line fill="none" stroke="#000000" stroke-width="0.2786" stroke-miterlimit="10" x1="23.66" y1="173.33" x2="23.66" y2="32.21"/>
	<line fill="none" stroke="#000000" stroke-width="0.2786" stroke-miterlimit="10" x1="26.66" y1="32.21" x2="20.16" y2="32.21"/>
	<line fill="none" stroke="#000000" stroke-width="0.2786" stroke-miterlimit="10" x1="26.66" y1="173.33" x2="20.16" y2="173.33"/>
</g>
<line fill="none" stroke="#000000" stroke-width="0.3542" stroke-miterlimit="10" x1="125.83" y1="32.21" x2="125.83" y2="43.33"/>
<text transform="matrix(1 0 0 1 14.5799 107.6666)" font-family="'MyriadPro-Regular'" font-size="7px">h</text>
<text transform="matrix(1 0 0 1 70.6651 18.3335)" font-family="'MyriadPro-Regular'" font-size="7px">wtf</text>
<g>
	<line fill="none" stroke="#000000" stroke-width="0.3161" stroke-miterlimit="10" x1="28.7" y1="184.17" x2="121.29" y2="184.17"/>
	
		<line fill="none" stroke="#000000" stroke-width="0.3161" stroke-miterlimit="10" x1="121.29" y1="187.17" x2="121.29" y2="180.67"/>
	<line fill="none" stroke="#000000" stroke-width="0.3161" stroke-miterlimit="10" x1="28.7" y1="187.17" x2="28.7" y2="180.67"/>
</g>
<text transform="matrix(1 0 0 1 70.6651 182.3334)" font-family="'MyriadPro-Regular'" font-size="7px">wbf</text>
<text transform="matrix(1 0 0 1 131.4568 39.3333)" font-family="'MyriadPro-Regular'" font-size="7px">ttf</text>
<line fill="none" stroke="#000000" stroke-width="0.2742" stroke-miterlimit="10" x1="122.58" y1="166.66" x2="129.08" y2="166.66"/>
<line fill="none" stroke="#000000" stroke-width="0.2742" stroke-miterlimit="10" x1="122.58" y1="173.33" x2="129.08" y2="173.33"/>
<line fill="none" stroke="#000000" stroke-width="0.2742" stroke-miterlimit="10" x1="125.83" y1="166.66" x2="125.83" y2="173.33"/>
<text transform="matrix(1 0 0 1 131.4134 172.4101)" font-family="'MyriadPro-Regular'" font-size="7px">tbf</text>
<g>
	<g>
		
			<rect x="33.01" y="43.33" fill="#EF3F54" stroke="#000000" stroke-width="0.7838" stroke-miterlimit="10" width="5.1" height="123.32"/>
		<g>
			<path d="M38.06,162.83L38.06,162.83l0,3.83h3.83v0C41.89,164.55,40.18,162.83,38.06,162.83z"/>
			<path d="M33.06,162.83L33.06,162.83l0,3.83h-3.83v0C29.24,164.55,30.95,162.83,33.06,162.83z"/>
		</g>
		<g>
			<path d="M33.06,47.16L33.06,47.16l0-3.83h-3.83v0C29.24,45.45,30.95,47.16,33.06,47.16z"/>
			<path d="M38.07,47.16L38.07,47.16l0-3.83h3.83v0C41.89,45.45,40.18,47.16,38.07,47.16z"/>
		</g>
	</g>
	<g>
		
			<rect x="111.88" y="43.33" fill="#EF3F54" stroke="#000000" stroke-width="0.7838" stroke-miterlimit="10" width="5.1" height="123.32"/>
		<g>
			<path d="M116.93,162.83L116.93,162.83v3.83h3.83v0C120.76,164.55,119.04,162.83,116.93,162.83z"/>
			<path d="M111.93,162.83L111.93,162.83v3.83h-3.83v0C108.1,164.55,109.81,162.83,111.93,162.83z"/>
		</g>
		<g>
			<path d="M111.93,47.16L111.93,47.16v-3.83h-3.83v0C108.1,45.45,109.82,47.16,111.93,47.16z"/>
			<path d="M116.93,47.16L116.93,47.16v-3.83h3.83v0C120.76,45.45,119.04,47.16,116.93,47.16z"/>
		</g>
	</g>
</g>
<g>
	<line fill="none" stroke="#000000" stroke-width="0.2104" stroke-miterlimit="10" x1="32.67" y1="117.88" x2="42.1" y2="117.88"/>
	<line fill="none" stroke="#000000" stroke-width="0.2104" stroke-miterlimit="10" x1="38.73" y1="120.45" x2="36.82" y2="114.82"/>
	<line fill="none" stroke="#000000" stroke-width="0.2104" stroke-miterlimit="10" x1="33.63" y1="120.45" x2="31.71" y2="114.82"/>
</g>
<text transform="matrix(1 0 0 1 45.8296 118.7571)" font-family="'MyriadPro-Regular'" font-size="7px">tw</text>
<g>
	
		<line fill="none" stroke="#000000" stroke-width="0.2104" stroke-miterlimit="10" x1="117.09" y1="117.88" x2="107.66" y2="117.88"/>
	
		<line fill="none" stroke="#000000" stroke-width="0.2104" stroke-miterlimit="10" x1="111.02" y1="120.45" x2="112.94" y2="114.82"/>
	
		<line fill="none" stroke="#000000" stroke-width="0.2104" stroke-miterlimit="10" x1="116.13" y1="120.45" x2="118.05" y2="114.82"/>
</g>
<text transform="matrix(1 0 0 1 99.9029 118.7571)" font-family="'MyriadPro-Regular'" font-size="7px">tw</text>
<g>
	<g>
		<g>
			<line fill="none" stroke="#000000" stroke-width="0.2742" stroke-miterlimit="10" x1="75.82" y1="79.85" x2="74.32" y2="79.85"/>
			
				<line fill="none" stroke="#000000" stroke-width="0.2742" stroke-miterlimit="10" stroke-dasharray="3.0203,1.0068" x1="73.31" y1="79.85" x2="45.63" y2="79.85"/>
			<line fill="none" stroke="#000000" stroke-width="0.2742" stroke-miterlimit="10" x1="45.12" y1="79.85" x2="43.62" y2="79.85"/>
		</g>
	</g>
	<g>
		<g>
			
				<line fill="none" stroke="#000000" stroke-width="0.2742" stroke-miterlimit="10" x1="75.82" y1="123.85" x2="75.82" y2="122.35"/>
			
				<line fill="none" stroke="#000000" stroke-width="0.2742" stroke-miterlimit="10" stroke-dasharray="3,1" x1="75.82" y1="121.35" x2="75.82" y2="81.85"/>
			<line fill="none" stroke="#000000" stroke-width="0.2742" stroke-miterlimit="10" x1="75.82" y1="81.35" x2="75.82" y2="79.85"/>
		</g>
	</g>
	<line fill="none" stroke="#000000" stroke-width="0.1939" stroke-miterlimit="10" x1="48.87" y1="78.23" x2="43.62" y2="79.85"/>
	<line fill="none" stroke="#000000" stroke-width="0.1939" stroke-miterlimit="10" x1="48.87" y1="81.48" x2="43.62" y2="79.85"/>
	<line fill="none" stroke="#000000" stroke-width="0.1939" stroke-miterlimit="10" x1="48.87" y1="78.23" x2="48.87" y2="81.48"/>
	<line fill="none" stroke="#000000" stroke-width="0.1939" stroke-miterlimit="10" x1="74.19" y1="118.6" x2="75.82" y2="123.85"/>
	<line fill="none" stroke="#000000" stroke-width="0.1939" stroke-miterlimit="10" x1="77.44" y1="118.6" x2="75.82" y2="123.85"/>
	<line fill="none" stroke="#000000" stroke-width="0.1939" stroke-miterlimit="10" x1="74.19" y1="118.6" x2="77.44" y2="118.6"/>
	<text transform="matrix(1 0 0 1 59.1216 76.6045)" font-family="'MyriadPro-Regular'" font-size="8.4928px">y</text>
	<text transform="matrix(1 0 0 1 74.1932 129.1045)" font-family="'MyriadPro-Regular'" font-size="8.4928px">z</text>
</g>
</svg>
