<?xml version="1.0" encoding="utf-8"?>
<!-- Generator: Adobe Illustrator 21.0.2, SVG Export Plug-In . SVG Version: 6.00 Build 0)  -->
<svg version="1.1" id="Layer_1" xmlns="http://www.w3.org/2000/svg" xmlns:xlink="http://www.w3.org/1999/xlink" x="0px" y="0px"
	 viewBox="0 0 148.95 193.33" enable-background="new 0 0 148.95 193.33" xml:space="preserve">
<g>
	<line fill="none" stroke="#000000" stroke-width="0.3732" stroke-miterlimit="10" x1="13.75" y1="121.13" x2="13.75" y2="32.21"/>
	<line fill="none" stroke="#000000" stroke-width="0.3732" stroke-miterlimit="10" x1="16.75" y1="32.21" x2="10.25" y2="32.21"/>
	<line fill="none" stroke="#000000" stroke-width="0.3732" stroke-miterlimit="10" x1="16.75" y1="121.13" x2="10.25" y2="121.13"/>
</g>
<text transform="matrix(1 0 0 1 8.8287 74.4401)" font-family="'MyriadPro-Regular'" font-size="7px">e</text>
<g>
	<line fill="none" stroke="#000000" stroke-width="0.2606" stroke-miterlimit="10" x1="131.46" y1="162.2" x2="131.46" y2="38.72"/>
	<line fill="none" stroke="#000000" stroke-width="0.2606" stroke-miterlimit="10" x1="134.46" y1="38.72" x2="127.96" y2="38.72"/>
	<line fill="none" stroke="#000000" stroke-width="0.2606" stroke-miterlimit="10" x1="134.46" y1="162.2" x2="127.96" y2="162.2"/>
</g>
<text transform="matrix(1 0 0 1 124.3572 107.3998)" font-family="'MyriadPro-Regular'" font-size="6.0904px">d</text>
<rect x="28.7" y="162.21" fill="#EF3F54" stroke="#000000" stroke-width="0.7838" stroke-miterlimit="10" width="92.59" height="11.12"/>
<path fill="#EF3F54" stroke="#000000" stroke-width="1.159" stroke-miterlimit="10" d="M29.77,38.87v-6.66h90.45v6.66H84.06
	c-0.11,0-0.21,0-0.32,0.01H66.25c-0.11-0.01-0.21-0.01-0.32-0.01H29.77z"/>
<line fill="none" stroke="#000000" stroke-width="0.3542" stroke-miterlimit="10" x1="122.58" y1="32.21" x2="129.08" y2="32.21"/>
<line fill="none" stroke="#000000" stroke-width="0.2122" stroke-miterlimit="10" x1="122.58" y1="38.88" x2="129.08" y2="38.88"/>
<g>
	<line fill="none" stroke="#000000" stroke-width="0.3161" stroke-miterlimit="10" x1="28.7" y1="20.17" x2="121.29" y2="20.17"/>
	<line fill="none" stroke="#000000" stroke-width="0.3161" stroke-miterlimit="10" x1="121.29" y1="23.17" x2="121.29" y2="16.67"/>
	<line fill="none" stroke="#000000" stroke-width="0.3161" stroke-miterlimit="10" x1="28.7" y1="23.17" x2="28.7" y2="16.67"/>
</g>
<g>
	<line fill="none" stroke="#000000" stroke-width="0.2786" stroke-miterlimit="10" x1="23.66" y1="173.33" x2="23.66" y2="32.21"/>
	<line fill="none" stroke="#000000" stroke-width="0.2786" stroke-miterlimit="10" x1="26.66" y1="32.21" x2="20.16" y2="32.21"/>
	<line fill="none" stroke="#000000" stroke-width="0.2786" stroke-miterlimit="10" x1="26.66" y1="173.33" x2="20.16" y2="173.33"/>
</g>
<line fill="none" stroke="#000000" stroke-width="0.2742" stroke-miterlimit="10" x1="125.83" y1="32.21" x2="125.83" y2="38.88"/>
<text transform="matrix(1 0 0 1 24.83 100.4588)" font-family="'MyriadPro-Regular'" font-size="7px">h</text>
<text transform="matrix(1 0 0 1 70.6652 18.3335)" font-family="'MyriadPro-Regular'" font-size="7px">wtf</text>
<g>
	<line fill="none" stroke="#000000" stroke-width="0.3161" stroke-miterlimit="10" x1="28.7" y1="184.17" x2="121.29" y2="184.17"/>
	
		<line fill="none" stroke="#000000" stroke-width="0.3161" stroke-miterlimit="10" x1="121.29" y1="187.17" x2="121.29" y2="180.67"/>
	<line fill="none" stroke="#000000" stroke-width="0.3161" stroke-miterlimit="10" x1="28.7" y1="187.17" x2="28.7" y2="180.67"/>
</g>
<text transform="matrix(1 0 0 1 70.6652 182.3335)" font-family="'MyriadPro-Regular'" font-size="7px">wbf</text>
<text transform="matrix(1 0 0 1 129.7069 37.0832)" font-family="'MyriadPro-Regular'" font-size="7px">ttf</text>
<line fill="none" stroke="#000000" stroke-width="0.3541" stroke-miterlimit="10" x1="122.58" y1="162.21" x2="129.08" y2="162.21"/>
<line fill="none" stroke="#000000" stroke-width="0.2742" stroke-miterlimit="10" x1="122.58" y1="173.33" x2="129.08" y2="173.33"/>
<line fill="none" stroke="#000000" stroke-width="0.3541" stroke-miterlimit="10" x1="125.83" y1="162.21" x2="125.83" y2="173.33"/>
<text transform="matrix(1 0 0 1 131.4135 172.41)" font-family="'MyriadPro-Regular'" font-size="7px">tbf</text>
<g>
	<g>
		
			<rect x="111.88" y="38.88" fill="#EF3F54" stroke="#000000" stroke-width="0.7838" stroke-miterlimit="10" width="5.1" height="123.32"/>
		<g>
			<path d="M111.93,42.7L111.93,42.7v-3.83h-3.83v0C108.1,40.99,109.82,42.7,111.93,42.7z"/>
			<path d="M116.93,42.7L116.93,42.7v-3.83h3.83v0C120.76,40.99,119.04,42.7,116.93,42.7z"/>
		</g>
		<g>
			<path d="M116.93,158.37L116.93,158.37v3.83h3.83l0,0C120.76,160.09,119.04,158.37,116.93,158.37z"/>
			<path d="M111.93,158.37L111.93,158.37v3.83h-3.83l0,0C108.1,160.09,109.81,158.37,111.93,158.37z"/>
		</g>
	</g>
	<g>
		
			<rect x="33.01" y="38.88" fill="#EF3F54" stroke="#000000" stroke-width="0.7838" stroke-miterlimit="10" width="5.1" height="123.32"/>
		<g>
			<path d="M33.06,42.7L33.06,42.7l0-3.83h-3.83v0C29.24,40.99,30.95,42.7,33.06,42.7z"/>
			<path d="M38.07,42.7L38.07,42.7l0-3.83h3.83v0C41.89,40.99,40.18,42.7,38.07,42.7z"/>
		</g>
		<g>
			<path d="M38.06,158.37L38.06,158.37l0,3.83h3.83l0,0C41.89,160.09,40.18,158.37,38.06,158.37z"/>
			<path d="M33.06,158.37L33.06,158.37l0,3.83h-3.83l0,0C29.24,160.09,30.95,158.37,33.06,158.37z"/>
		</g>
	</g>
</g>
<g>
	<line fill="none" stroke="#000000" stroke-width="0.2104" stroke-miterlimit="10" x1="32.67" y1="71.88" x2="42.1" y2="71.88"/>
	<line fill="none" stroke="#000000" stroke-width="0.2104" stroke-miterlimit="10" x1="38.73" y1="74.44" x2="36.82" y2="68.81"/>
	<line fill="none" stroke="#000000" stroke-width="0.2104" stroke-miterlimit="10" x1="33.63" y1="74.44" x2="31.71" y2="68.81"/>
</g>
<text transform="matrix(1 0 0 1 45.8297 72.7483)" font-family="'MyriadPro-Regular'" font-size="7px">tw</text>
<g>
	
		<line fill="none" stroke="#000000" stroke-width="0.2104" stroke-miterlimit="10" x1="117.09" y1="117.88" x2="107.66" y2="117.88"/>
	
		<line fill="none" stroke="#000000" stroke-width="0.2104" stroke-miterlimit="10" x1="111.02" y1="120.45" x2="112.94" y2="114.82"/>
	
		<line fill="none" stroke="#000000" stroke-width="0.2104" stroke-miterlimit="10" x1="116.13" y1="120.45" x2="118.05" y2="114.82"/>
</g>
<text transform="matrix(1 0 0 1 99.903 118.757)" font-family="'MyriadPro-Regular'" font-size="7px">tw</text>
<g>
	<g>
		<g>
			
				<line fill="none" stroke="#000000" stroke-width="0.2742" stroke-miterlimit="10" x1="75.82" y1="121.13" x2="74.32" y2="121.13"/>
			
				<line fill="none" stroke="#000000" stroke-width="0.2742" stroke-miterlimit="10" stroke-dasharray="3.0203,1.0068" x1="73.31" y1="121.13" x2="45.63" y2="121.13"/>
			
				<line fill="none" stroke="#000000" stroke-width="0.2742" stroke-miterlimit="10" x1="45.12" y1="121.13" x2="43.62" y2="121.13"/>
		</g>
	</g>
	<g>
		<g>
			
				<line fill="none" stroke="#000000" stroke-width="0.2742" stroke-miterlimit="10" x1="75.82" y1="154.92" x2="75.82" y2="153.42"/>
			
				<line fill="none" stroke="#000000" stroke-width="0.2742" stroke-miterlimit="10" stroke-dasharray="3.1844,1.0615" x1="75.82" y1="152.36" x2="75.82" y2="123.17"/>
			
				<line fill="none" stroke="#000000" stroke-width="0.2742" stroke-miterlimit="10" x1="75.82" y1="122.63" x2="75.82" y2="121.13"/>
		</g>
	</g>
	<line fill="none" stroke="#000000" stroke-width="0.1939" stroke-miterlimit="10" x1="48.87" y1="119.51" x2="43.62" y2="121.13"/>
	<line fill="none" stroke="#000000" stroke-width="0.1939" stroke-miterlimit="10" x1="48.87" y1="122.76" x2="43.62" y2="121.13"/>
	<line fill="none" stroke="#000000" stroke-width="0.1939" stroke-miterlimit="10" x1="48.87" y1="119.51" x2="48.87" y2="122.76"/>
	<line fill="none" stroke="#000000" stroke-width="0.1939" stroke-miterlimit="10" x1="74.19" y1="149.67" x2="75.82" y2="154.92"/>
	<line fill="none" stroke="#000000" stroke-width="0.1939" stroke-miterlimit="10" x1="77.44" y1="149.67" x2="75.82" y2="154.92"/>
	<line fill="none" stroke="#000000" stroke-width="0.1939" stroke-miterlimit="10" x1="74.19" y1="149.67" x2="77.44" y2="149.67"/>
	<text transform="matrix(1 0 0 1 59.1217 117.8844)" font-family="'MyriadPro-Regular'" font-size="8.4928px">y</text>
	<text transform="matrix(1 0 0 1 74.1932 160.1664)" font-family="'MyriadPro-Regular'" font-size="8.4928px">z</text>
</g>
</svg>
