<?xml version="1.0" encoding="utf-8"?>
<!-- Generator: Adobe Illustrator 21.0.2, SVG Export Plug-In . SVG Version: 6.00 Build 0)  -->
<svg version="1.1" id="Layer_1" xmlns="http://www.w3.org/2000/svg" xmlns:xlink="http://www.w3.org/1999/xlink" x="0px" y="0px"
	 viewBox="0 0 141.33 193.33" enable-background="new 0 0 141.33 193.33" xml:space="preserve">
<rect x="41.33" y="36.67" fill="#EF3F54" stroke="#000000" stroke-miterlimit="10" width="67.34" height="6.66"/>
<rect x="72.41" y="43.33" fill="#EF3F54" stroke="#000000" stroke-width="0.7871" stroke-miterlimit="10" width="5.17" height="122.83"/>
<path fill="#EF3F54" stroke="#000000" stroke-width="0.8689" stroke-miterlimit="10" d="M100.42,166.67v6.66H49.58v-6.66H69.9
	c0.06,0,0.12,0,0.18-0.01h9.83c0.06,0.01,0.12,0.01,0.18,0.01H100.42z"/>
<g>
	<line fill="none" stroke="#000000" stroke-width="0.281" stroke-miterlimit="10" x1="23.66" y1="173.33" x2="23.66" y2="29.77"/>
	<line fill="none" stroke="#000000" stroke-width="0.281" stroke-miterlimit="10" x1="26.66" y1="29.77" x2="20.16" y2="29.77"/>
	<line fill="none" stroke="#000000" stroke-width="0.281" stroke-miterlimit="10" x1="26.66" y1="173.33" x2="20.16" y2="173.33"/>
</g>
<g>
	
		<line fill="none" stroke="#000000" stroke-width="0.2551" stroke-miterlimit="10" x1="112.17" y1="164.14" x2="112.17" y2="45.85"/>
	<line fill="none" stroke="#000000" stroke-width="0.2551" stroke-miterlimit="10" x1="115.17" y1="45.85" x2="108.67" y2="45.85"/>
	
		<line fill="none" stroke="#000000" stroke-width="0.2551" stroke-miterlimit="10" x1="115.17" y1="164.14" x2="108.67" y2="164.14"/>
</g>
<line fill="none" stroke="#000000" stroke-width="0.2742" stroke-miterlimit="10" x1="70.66" y1="117.88" x2="86.66" y2="117.88"/>
<line fill="none" stroke="#000000" stroke-width="0.2742" stroke-miterlimit="10" x1="79.2" y1="120.45" x2="75.95" y2="114.82"/>
<line fill="none" stroke="#000000" stroke-width="0.2742" stroke-miterlimit="10" x1="73.63" y1="120.45" x2="70.38" y2="114.82"/>
<g>
	<line fill="none" stroke="#000000" stroke-width="0.2742" stroke-miterlimit="10" x1="121.67" y1="36.67" x2="128.17" y2="36.67"/>
	<line fill="none" stroke="#000000" stroke-width="0.2742" stroke-miterlimit="10" x1="121.67" y1="43.33" x2="128.17" y2="43.33"/>
	<line fill="none" stroke="#000000" stroke-width="0.2742" stroke-miterlimit="10" x1="124.92" y1="36.67" x2="124.92" y2="43.33"/>
</g>
<g>
	<g>
		<g>
			<line fill="none" stroke="#000000" stroke-width="0.2742" stroke-miterlimit="10" x1="75" y1="84.67" x2="73.5" y2="84.67"/>
			
				<line fill="none" stroke="#000000" stroke-width="0.2742" stroke-miterlimit="10" stroke-dasharray="3.0488,1.0163" x1="72.48" y1="84.67" x2="32.34" y2="84.67"/>
			<line fill="none" stroke="#000000" stroke-width="0.2742" stroke-miterlimit="10" x1="31.83" y1="84.67" x2="30.33" y2="84.67"/>
		</g>
	</g>
	<g>
		<g>
			<line fill="none" stroke="#000000" stroke-width="0.2742" stroke-miterlimit="10" x1="75" y1="128.67" x2="75" y2="127.17"/>
			
				<line fill="none" stroke="#000000" stroke-width="0.2742" stroke-miterlimit="10" stroke-dasharray="3,1" x1="75" y1="126.17" x2="75" y2="86.67"/>
			<line fill="none" stroke="#000000" stroke-width="0.2742" stroke-miterlimit="10" x1="75" y1="86.17" x2="75" y2="84.67"/>
		</g>
	</g>
	<line fill="none" stroke="#000000" stroke-width="0.1939" stroke-miterlimit="10" x1="35.58" y1="83.04" x2="30.33" y2="84.67"/>
	<line fill="none" stroke="#000000" stroke-width="0.1939" stroke-miterlimit="10" x1="35.58" y1="86.29" x2="30.33" y2="84.67"/>
	<line fill="none" stroke="#000000" stroke-width="0.1939" stroke-miterlimit="10" x1="35.58" y1="83.04" x2="35.58" y2="86.29"/>
	<line fill="none" stroke="#000000" stroke-width="0.1939" stroke-miterlimit="10" x1="73.37" y1="123.42" x2="75" y2="128.67"/>
	<line fill="none" stroke="#000000" stroke-width="0.1939" stroke-miterlimit="10" x1="76.62" y1="123.42" x2="75" y2="128.67"/>
	<line fill="none" stroke="#000000" stroke-width="0.1939" stroke-miterlimit="10" x1="73.37" y1="123.42" x2="76.62" y2="123.42"/>
	<text transform="matrix(1 0 0 1 45.8299 81.4168)" font-family="'MyriadPro-Regular'" font-size="8.4928px">y</text>
	<text transform="matrix(1 0 0 1 73.3716 133.9168)" font-family="'MyriadPro-Regular'" font-size="8.4928px">z</text>
</g>
<text transform="matrix(1 0 0 1 14.5796 107.6667)" font-family="'MyriadPro-Regular'" font-size="7px">h</text>
<text transform="matrix(1 0 0 1 117.5796 104.9937)" font-family="'MyriadPro-Regular'" font-size="7px">d</text>
<text transform="matrix(1 0 0 1 70.7464 22.4548)" font-family="'MyriadPro-Regular'" font-size="7px">wtf</text>
<text transform="matrix(1 0 0 1 68.751 189.2446)" font-family="'MyriadPro-Regular'" font-size="7px">wbf</text>
<text transform="matrix(1 0 0 1 65.6631 8.9548)" font-family="'MyriadPro-Regular'" font-size="7px">wPlate</text>
<text transform="matrix(1 0 0 1 128.1648 42.4163)" font-family="'MyriadPro-Regular'" font-size="7px">ttf</text>
<g>
	
		<line fill="none" stroke="#000000" stroke-width="0.2742" stroke-miterlimit="10" x1="121.67" y1="166.66" x2="128.17" y2="166.66"/>
	
		<line fill="none" stroke="#000000" stroke-width="0.2742" stroke-miterlimit="10" x1="121.67" y1="173.33" x2="128.17" y2="173.33"/>
	
		<line fill="none" stroke="#000000" stroke-width="0.2742" stroke-miterlimit="10" x1="124.92" y1="166.66" x2="124.92" y2="173.33"/>
</g>
<text transform="matrix(1 0 0 1 128.1648 172.4099)" font-family="'MyriadPro-Regular'" font-size="7px">tbf</text>
<text transform="matrix(1 0 0 1 91.1988 118.757)" font-family="'MyriadPro-Regular'" font-size="7px">tw</text>
<g>
	<line fill="none" stroke="#000000" stroke-width="0.2742" stroke-miterlimit="10" x1="8.67" y1="84.67" x2="8.67" y2="36.67"/>
	<line fill="none" stroke="#000000" stroke-width="0.2742" stroke-miterlimit="10" x1="11.67" y1="36.67" x2="5.17" y2="36.67"/>
	<line fill="none" stroke="#000000" stroke-width="0.2742" stroke-miterlimit="10" x1="11.67" y1="84.67" x2="5.17" y2="84.67"/>
</g>
<text transform="matrix(1 0 0 1 3.7471 65.4806)" font-family="'MyriadPro-Regular'" font-size="7px">e</text>
<rect x="26.66" y="29.77" fill="#EF3F54" stroke="#000000" stroke-miterlimit="10" width="94.5" height="6.83"/>
<g>
	<line fill="none" stroke="#000000" stroke-width="0.4506" stroke-miterlimit="10" x1="41.33" y1="24.45" x2="108.66" y2="24.45"/>
	<line fill="none" stroke="#000000" stroke-width="0.4506" stroke-miterlimit="10" x1="108.66" y1="34.21" x2="108.66" y2="16.04"/>
	<line fill="none" stroke="#000000" stroke-width="0.4506" stroke-miterlimit="10" x1="41.33" y1="34.21" x2="41.33" y2="16.04"/>
</g>
<g>
	
		<line fill="none" stroke="#000000" stroke-width="0.2468" stroke-miterlimit="10" x1="49.57" y1="181.71" x2="100.42" y2="181.71"/>
	
		<line fill="none" stroke="#000000" stroke-width="0.2468" stroke-miterlimit="10" x1="100.42" y1="185.58" x2="100.42" y2="178.36"/>
	<line fill="none" stroke="#000000" stroke-width="0.2468" stroke-miterlimit="10" x1="49.57" y1="185.58" x2="49.57" y2="178.36"/>
</g>
<g>
	<line fill="none" stroke="#000000" stroke-width="0.6674" stroke-miterlimit="10" x1="26.49" y1="12.2" x2="123.5" y2="12.2"/>
	<line fill="none" stroke="#000000" stroke-width="0.6674" stroke-miterlimit="10" x1="123.5" y1="34.21" x2="123.5" y2="6.54"/>
	<line fill="none" stroke="#000000" stroke-width="0.6674" stroke-miterlimit="10" x1="26.49" y1="34.21" x2="26.49" y2="6.54"/>
</g>
<path d="M41.33,40.43L41.33,40.43l0-3.83H37.5v0C37.5,38.72,39.21,40.43,41.33,40.43z"/>
<path d="M72.58,47.22L72.58,47.22v-3.83h-3.83v0C68.75,45.5,70.46,47.22,72.58,47.22z"/>
<path d="M108.67,40.43L108.67,40.43l0-3.83h3.83v0C112.49,38.72,110.78,40.43,108.67,40.43z"/>
<path d="M77.58,47.22L77.58,47.22v-3.83h3.83v0C81.41,45.5,79.69,47.22,77.58,47.22z"/>
<path d="M77.58,162.83L77.58,162.83v3.83h3.83v0C81.41,164.55,79.69,162.83,77.58,162.83z"/>
<path d="M72.58,162.83L72.58,162.83v3.83h-3.83v0C68.75,164.55,70.46,162.83,72.58,162.83z"/>
</svg>
